<svg width="73" height="73" viewBox="0 0 73 73" fill="none" xmlns="http://www.w3.org/2000/svg">
<g clip-path="url(#clip0_166_349)">
<path d="M-0.256738 68.9448C0.0774338 68.0996 0.523229 66.6824 0.400873 65.2606C0.354151 64.7151 -0.199449 64.4063 -0.72655 64.6099L-1.11903 64.7625C-1.52334 64.9212 -1.7852 65.3378 -1.72854 65.7525C-1.59177 66.7595 -1.75937 67.8445 -1.91515 68.5489C-2.01421 68.9927 -1.77065 69.4166 -1.34671 69.5237C-0.909167 69.6387 -0.429504 69.3861 -0.256738 68.9448ZM-19.9474 90.6414L-22.4776 90.9089C-22.9897 91.214 -23.1784 91.8658 -22.8883 92.3132L-22.3816 93.0892C-22.0937 93.5282 -21.4618 93.5926 -20.9994 93.23L-18.9729 92.1836C-18.5705 91.8633 -18.433 91.3242 -18.6497 90.9219C-18.892 90.481 -19.4682 90.3575 -19.9474 90.6414Z" fill="#0E4981"/>
<path d="M-9.48765 103.912C-9.48765 103.912 -7.95186 104.126 -6.73797 103.712C-5.46311 103.281 -5.01707 102.797 -5.10815 102.574C-5.25995 102.215 -6.80864 102.583 -7.92356 102.479C-9.03848 102.375 -9.84466 102.174 -9.84466 102.174C-10.0552 102.177 -10.2587 102.31 -10.3448 102.509C-10.6568 103.212 -10.219 103.923 -9.48765 103.912ZM1.22148 70.1795L1.5747 67.6598C1.897 67.1583 2.55489 66.9918 2.99222 67.297L3.75054 67.8298C4.17953 68.1324 4.22241 68.7661 3.84433 69.2159L2.72973 71.2058C2.39589 71.597 1.85246 71.7162 1.45777 71.4859C1.25073 71.3617 1.11025 71.1559 1.06613 70.912C1.02202 70.6681 1.07774 70.4053 1.22148 70.1795Z" fill="#0E4981"/>
<path d="M2.65902 66.4059L3.87491 64.7296C4.41047 64.2646 5.18312 64.3089 5.54174 64.8273L6.16185 65.7205C6.51563 66.2277 6.32218 66.979 5.7444 67.3635L4.2786 68.4375C4.03597 68.5989 3.75283 68.6737 3.4815 68.648C3.21017 68.6223 2.969 68.4979 2.80256 68.2978C2.42472 67.8455 2.15414 66.8412 2.65902 66.4059Z" fill="#0E4981"/>
<path d="M10.6291 65.8118L9.72405 66.2383C9.08513 66.4919 8.51582 66.615 8.31573 66.5922L5.98601 66.8768C5.6872 66.8439 5.42001 66.4692 5.37403 66.1761L5.21531 65.1587C5.13484 64.6457 5.62387 64.1572 6.13858 64.2293L10.7299 64.67C11.3495 64.7462 11.1555 65.3926 10.6291 65.8118ZM2.64322 73.6944L4.12946 71.0026C4.45176 70.5011 5.10964 70.3346 5.54698 70.6398L6.30529 71.1726C6.73429 71.4752 6.77717 72.1089 6.39909 72.5587L4.15454 74.7178C3.8207 75.109 3.27726 75.2282 2.88257 74.9979C2.44705 74.7438 2.34062 74.161 2.64322 73.6944Z" fill="#0E4981"/>
<path d="M5.5752 70.0428L7.38799 67.4678C7.92355 67.0029 8.6962 67.0472 9.05482 67.5655L9.67493 68.4587C10.0287 68.9659 9.83526 69.7173 9.25748 70.1017L6.82458 71.7835C6.58195 71.9449 6.29881 72.0197 6.02748 71.994C5.75616 71.9684 5.51499 71.8439 5.34855 71.6438C5.25886 71.5362 5.19357 71.4094 5.15642 71.2707C5.11927 71.132 5.11098 70.984 5.13203 70.8354C5.15308 70.6867 5.20305 70.5402 5.27909 70.4042C5.35514 70.2682 5.45575 70.1454 5.5752 70.0428Z" fill="#0E4981"/>
<path d="M15.4132 68.9564L14.5081 69.3829C13.8692 69.6366 13.2999 69.7597 13.0998 69.7368L9.50214 69.612C9.20333 69.5791 8.93613 69.2045 8.89015 68.9114L8.73143 67.8939C8.65097 67.381 9.14 66.8925 9.65471 66.9646L15.5171 67.8117C16.1331 67.8966 15.9396 68.5373 15.4132 68.9564ZM3.9225 77.7005L6.68812 74.331C7.05652 73.8589 7.72063 73.7602 8.11986 74.118L8.8094 74.7331C9.20072 75.0827 9.17473 75.7249 8.75405 76.1368L5.30153 78.8939C4.93606 79.2524 4.38817 79.3179 4.02282 79.0381C3.62234 78.7343 3.57644 78.1405 3.9225 77.7005Z" fill="#0E4981"/>
<path d="M8.21128 73.5128L10.0342 71.6664C10.17 71.5682 10.3216 71.4971 10.4795 71.4575C10.6373 71.4178 10.7979 71.4106 10.951 71.4362C11.1041 71.4618 11.2464 71.5197 11.3688 71.6063C11.4912 71.6928 11.5911 71.806 11.6621 71.9387L12.1744 72.9046C12.4655 73.4512 12.1992 74.1886 11.5889 74.5148L9.25068 75.3984C8.99523 75.5353 8.70926 75.5808 8.44543 75.5267C8.1816 75.4726 7.95766 75.3224 7.81483 75.1038C7.66084 74.8648 7.61611 74.5631 7.69042 74.2649C7.76473 73.9667 7.95202 73.6962 8.21128 73.5128Z" fill="#0E4981"/>
<path d="M16.7716 73.4556L15.8397 73.7868C15.1858 73.9758 14.6703 73.9888 14.4746 73.946L11.8862 74.0428C11.5953 73.9812 11.3732 73.5735 11.3593 73.2705L11.3133 72.2285C11.2907 71.7018 11.8188 71.2598 12.3178 71.3893L16.9979 72.3086C17.5917 72.4625 17.3336 73.0917 16.7716 73.4556ZM4.47885 81.3821L8.60116 77.7772C9.19193 77.2589 10.0548 77.5378 10.1101 78.2702L10.229 79.7744C10.2434 79.964 10.1978 80.1603 10.0985 80.3365C9.99914 80.5128 9.85088 80.6604 9.67391 80.7593L5.50576 83.0952C5.38216 83.1649 5.24792 83.2086 5.1123 83.2233C4.97669 83.238 4.84292 83.2235 4.72025 83.1806C4.59757 83.1377 4.4889 83.0675 4.40173 82.9749C4.31457 82.8823 4.25099 82.7695 4.21537 82.6442L4.14533 82.406C4.04137 82.0529 4.17426 81.6502 4.47885 81.3821Z" fill="#0E4981"/>
<path d="M-4.07498 61.6123L-4.90863 63.0088C-5.25716 63.5936 -5.09442 64.296 -4.54436 64.5766L-2.14439 65.801C-1.92036 65.9153 -1.65502 65.946 -1.39122 65.8881C-1.12741 65.8303 -0.880522 65.6872 -0.690406 65.4821L-0.160677 64.9068C0.0569877 64.6706 0.183921 64.3701 0.193615 64.0678C0.203307 63.7656 0.0950079 63.485 -0.108661 63.2848L-2.20471 61.2391C-2.72872 60.7277 -3.65815 60.914 -4.07498 61.6123ZM-21.2998 89.2852C-22.1559 89.5905 -23.5874 89.9879 -25.0042 89.8173C-25.5479 89.7521 -25.8377 89.1883 -25.6163 88.6684L-25.4505 88.2814C-25.2781 87.8827 -24.8529 87.6351 -24.4404 87.7058C-23.4386 87.8767 -22.3485 87.746 -21.6392 87.6143C-21.1923 87.5303 -20.7769 87.7882 -20.6843 88.2155C-20.5872 88.6596 -20.856 89.1304 -21.2998 89.2852Z" fill="#0E4981"/>
<path d="M-2.09003 59.2031C-2.98252 58.0036 -4.34273 56.0377 -7.36579 55.8322C-12.4536 55.4917 -15.49 58.0838 -16.4167 59.0956C-17.3434 60.1074 -16.6353 60.0664 -15.6395 60.0163C-15.1802 59.9943 -13.8624 59.8229 -12.6882 59.9695C-11.4855 60.115 -10.4351 60.5817 -10.5417 60.9748C-10.723 61.6406 -12.4967 62.0154 -13.2158 61.9774C-13.9942 61.9333 -14.1794 61.8645 -15.1497 61.6157C-16.1003 61.3689 -16.4756 61.1831 -16.4647 61.4891C-16.4538 61.795 -16.1565 62.4464 -15.4644 62.9905C-14.89 63.4374 -14.0513 63.6974 -13.2408 64.1798C-11.8513 65.0097 -12.3479 64.9992 -10.5791 66.0004C-9.53246 66.5921 -8.70792 66.7392 -6.92483 66.4661C-4.97813 66.172 -3.83019 64.9042 -3.28888 64.4759C-2.45084 63.8082 -1.9732 62.6081 -1.52234 61.3865C-1.41127 61.0839 -1.7086 59.7205 -2.09003 59.2031ZM-31.4001 87.5343C-32.5686 86.6016 -34.4871 85.1755 -34.5899 82.1472C-34.7632 77.0509 -32.0695 74.1043 -31.0211 73.2123C-29.9758 72.3232 -30.0434 73.0267 -30.1273 74.0203C-30.165 74.4786 -30.381 75.7898 -30.2743 76.9683C-30.1697 78.1752 -29.7389 79.2409 -29.3424 79.1477C-28.6709 78.9892 -28.2361 77.2292 -28.2497 76.5092C-28.2673 75.7298 -28.3298 75.5423 -28.5455 74.5641C-28.7599 73.6057 -28.9328 73.2243 -28.6274 73.2456C-28.322 73.2668 -27.6811 73.5862 -27.1608 74.2963C-26.7336 74.8855 -26.5023 75.7326 -26.0477 76.559C-25.2655 77.9759 -25.259 77.4792 -24.3185 79.281C-23.7626 80.3471 -23.6436 81.1762 -23.9771 82.9489C-24.3372 84.8845 -25.6432 85.9888 -26.0897 86.5152C-26.7854 87.3301 -28.001 87.7667 -29.2373 88.1758C-29.5434 88.2766 -30.896 87.9331 -31.4001 87.5343ZM5.14587 83.7174C4.80153 84.1346 4.60954 84.6419 4.5676 85.1571C4.47371 86.2447 4.01584 88.5702 1.03728 91.4493C-1.98421 94.3699 -4.51691 94.7821 -5.69391 94.8597C-6.22789 94.8901 -6.75815 95.0902 -7.20683 95.4307C-9.57552 97.2404 -12.645 97.4595 -14.6155 95.8567L-20.6158 91.9204C-23.1137 89.8887 -22.3058 86.3968 -20.0561 83.0829C-20.0561 83.0829 -17.6187 79.3187 -14.0358 75.8555C-10.453 72.3923 -6.60812 70.084 -6.60812 70.084C-3.17991 67.9096 0.139601 67.28 2.11365 69.6599C2.20239 69.764 2.27844 69.8856 2.34614 70.0048L5.84507 76.301C7.38173 78.3389 7.05199 81.4108 5.14587 83.7174Z" fill="#EA4832"/>
<path d="M45.25 24.7679C45.5837 23.9285 46.0264 22.5142 45.9063 21.1008C45.8591 20.561 45.3086 20.2492 44.7841 20.4555L44.3974 20.6079C43.9961 20.7637 43.7342 21.1803 43.7883 21.5922C43.9255 22.5935 43.7583 23.6729 43.6025 24.3772C43.5035 24.8211 43.7475 25.2392 44.1683 25.3493C44.6006 25.4589 45.0776 25.2035 45.25 24.7679ZM25.6461 46.3701L23.1272 46.6371C23.0062 46.7091 22.8988 46.8038 22.8117 46.9152C22.7246 47.0266 22.6598 47.1522 22.6214 47.2841C22.583 47.416 22.572 47.5512 22.5889 47.6811C22.6058 47.811 22.6503 47.9327 22.7196 48.0385L23.2237 48.8118C23.5116 49.2508 24.1378 49.3154 24.5975 48.9501L26.6149 47.9126C27.0142 47.5952 27.1543 47.0588 26.9349 46.6538C26.6957 46.2099 26.1226 46.0835 25.6461 46.3701Z" fill="#D9D9D9"/>
<path d="M21.8408 47.6696L20.1303 48.8219C19.6474 49.3414 19.6659 50.1094 20.1691 50.4827L21.0381 51.13C21.5304 51.4981 22.2879 51.3303 22.6886 50.7689L23.8057 49.3463C23.9751 49.1103 24.0594 48.8307 24.0428 48.5595C24.0263 48.2884 23.91 48.0441 23.7157 47.8721C23.2818 47.4845 22.2925 47.1855 21.8408 47.6696Z" fill="#D9D9D9"/>
<path d="M20.979 55.5807L21.4329 54.6936C21.7076 54.0694 21.8469 53.5076 21.834 53.3038L22.194 50.9938C22.1713 50.694 21.8086 50.417 21.5172 50.3611L20.5083 50.1706C20.3912 50.1487 20.2669 50.1567 20.1466 50.1942C20.0263 50.2316 19.9138 50.2972 19.819 50.3852C19.7242 50.4731 19.6502 50.5807 19.6035 50.6983C19.5567 50.8158 19.5388 50.9397 19.5512 51.0589L19.8314 55.6457C19.8983 56.2613 20.5479 56.0923 20.979 55.5807ZM29.0945 47.8997L26.3655 49.2875C26.2445 49.3595 26.1371 49.4542 26.05 49.5656C25.9629 49.677 25.8981 49.8026 25.8597 49.9345C25.8214 50.0664 25.8103 50.2016 25.8272 50.3315C25.8441 50.4614 25.8886 50.5831 25.9579 50.6889L26.4625 51.4565C26.7504 51.8955 27.3765 51.9601 27.8363 51.5948L30.0611 49.4338C30.4604 49.1164 30.6006 48.58 30.3812 48.175C30.1468 47.7422 29.5737 47.6158 29.0945 47.8997Z" fill="#D9D9D9"/>
<path d="M25.3634 50.6939L22.7402 52.4121C22.2573 52.9315 22.2758 53.6995 22.779 54.0728L23.648 54.7202C24.1403 55.0883 24.8978 54.9204 25.2985 54.359L27.0528 51.9935C27.2222 51.7575 27.3065 51.4779 27.2899 51.2067C27.2734 50.9356 27.1571 50.6913 26.9628 50.5193C26.7512 50.3347 26.4649 50.2495 26.1656 50.2822C25.8664 50.3149 25.5782 50.4627 25.3634 50.6939Z" fill="#D9D9D9"/>
<path d="M23.9493 60.4522L24.4032 59.5652C24.678 58.9409 24.8172 58.3791 24.8043 58.1754L24.8035 54.5896C24.7807 54.2899 24.418 54.0128 24.1266 53.9569L23.1178 53.7665C23.0006 53.7445 22.8764 53.7526 22.7561 53.79C22.6358 53.8274 22.5233 53.8931 22.4285 53.981C22.3337 54.069 22.2596 54.1765 22.2129 54.2941C22.1662 54.4116 22.1482 54.5355 22.1607 54.6547L22.8074 60.517C22.8687 61.1328 23.5156 60.9611 23.9493 60.4522ZM33.0381 49.3093L29.592 51.9441C29.1103 52.299 28.9896 52.9537 29.3309 53.3621L29.9197 54.0694C30.2532 54.4696 30.8928 54.4684 31.3188 54.062L34.1761 50.7199C34.5469 50.3668 34.6278 49.8244 34.3632 49.4525C34.0789 49.0417 33.4865 48.9813 33.0381 49.3093Z" fill="#D9D9D9"/>
<path d="M28.7283 53.4384L26.8272 55.1916C26.3953 55.7514 26.4944 56.5047 27.0419 56.8194L27.9841 57.3644C28.5206 57.6739 29.2639 57.4301 29.6076 56.8342L30.5665 54.536C30.7116 54.2862 30.7665 54.0028 30.7213 53.7383C30.6761 53.4737 30.5337 53.2458 30.3204 53.0966C29.84 52.7593 29.1291 52.9138 28.7283 53.4384Z" fill="#D9D9D9"/>
<path d="M28.3835 61.9519L28.7461 61.0318C28.9542 60.3877 28.9873 59.8757 28.9511 59.6786L29.1349 57.1064C29.0833 56.8135 28.6859 56.5805 28.3836 56.5563L27.3495 56.4747C26.8295 56.434 26.373 56.9439 26.4798 57.4472L27.2325 62.1362C27.3662 62.7349 27.9981 62.4985 28.3835 61.9519ZM36.6847 49.9881L32.9604 53.9678C32.4254 54.5377 32.6752 55.4038 33.3965 55.4872L34.8901 55.6573C35.2763 55.7008 35.6757 55.494 35.8902 55.139L38.3567 51.0671C38.4299 50.9462 38.4777 50.814 38.4968 50.6795C38.516 50.545 38.506 50.4113 38.4676 50.2877C38.4292 50.164 38.3633 50.0533 38.2744 49.9631C38.1855 49.8728 38.0756 49.8052 37.9524 49.7649L37.7167 49.6868C37.546 49.6319 37.3566 49.6312 37.1728 49.6849C36.989 49.7386 36.819 49.8441 36.6847 49.9881Z" fill="#D9D9D9"/>
<path d="M33.3463 54.9134L32.4995 55.9587C32.2362 56.2817 32.2034 56.7143 32.4073 57.0235L33.7999 58.9C34.1167 59.3691 34.9545 59.6035 35.5439 59.0286L36.013 58.6912C36.2482 58.4005 36.3052 58.0237 36.1605 57.7205L34.8375 54.9645C34.5701 54.4055 33.776 54.3819 33.3463 54.9134Z" fill="#D9D9D9"/>
<path d="M36.0588 59.5858C36.0588 59.5858 37.5889 59.7998 38.794 59.3892C40.0632 58.9588 40.5088 58.4806 40.4151 58.2547C40.2633 57.8951 38.7229 58.2659 37.6111 58.1592C36.5018 58.0552 35.6983 57.8562 35.6983 57.8562C35.4908 57.8563 35.29 57.9924 35.1981 58.192C34.8954 58.8855 35.3332 59.5962 36.0588 59.5858ZM46.726 25.9942L47.0783 23.4858C47.1544 23.3674 47.2527 23.2632 47.367 23.1799C47.4813 23.0966 47.609 23.0361 47.7421 23.0023C47.8752 22.9684 48.0107 22.9619 48.14 22.9832C48.2692 23.0045 48.3894 23.0532 48.4928 23.126L49.2485 23.6561C49.6775 23.9588 49.7208 24.5867 49.3401 25.0338L48.2347 27.0148C47.9039 27.4031 47.3631 27.525 46.9658 27.2919C46.5303 27.0378 46.4234 26.4607 46.726 25.9942Z" fill="#D9D9D9"/>
<path d="M48.1508 22.2382L49.3606 20.5678C49.8962 20.1028 50.6631 20.1474 51.0191 20.663L51.6366 21.5535C51.9877 22.058 51.7943 22.8093 51.2195 23.1908L49.7599 24.2589C49.5182 24.4202 49.236 24.4949 48.9655 24.4692C48.6951 24.4434 48.4548 24.319 48.2895 24.1189C47.917 23.6721 47.6547 22.6703 48.1508 22.2382Z" fill="#D9D9D9"/>
<path d="M56.0897 21.6425L55.1878 22.066C54.5546 22.3194 53.9883 22.4396 53.7852 22.4197L51.4642 22.7011C51.1654 22.6682 50.9008 22.2963 50.8549 22.0032L50.6988 20.9884C50.6209 20.4782 51.1043 19.9899 51.619 20.062L56.1906 20.5007C56.8066 20.5856 56.6157 21.229 56.0897 21.6425ZM48.1345 29.4955L49.6142 26.8153C49.6902 26.6968 49.7885 26.5926 49.9028 26.5093C50.0171 26.426 50.1449 26.3656 50.278 26.3317C50.4111 26.2978 50.5466 26.2913 50.6759 26.3126C50.8051 26.334 50.9253 26.3826 51.0287 26.4554L51.7843 26.9855C52.2133 27.2882 52.2567 27.9161 51.8759 28.3632L49.6406 30.5134C49.3098 30.9017 48.769 31.0236 48.3717 30.7905C47.9445 30.5389 47.8376 29.9618 48.1345 29.4955Z" fill="#D9D9D9"/>
<path d="M51.0569 25.8585L52.8631 23.2951C53.3987 22.8302 54.1656 22.8747 54.5216 23.3903L55.1391 24.2808C55.4902 24.7853 55.2968 25.5366 54.7221 25.9181L52.2984 27.591C52.0568 27.7523 51.7745 27.827 51.504 27.8013C51.2336 27.7756 50.9934 27.6511 50.8281 27.451C50.4555 27.0042 50.5577 26.2936 51.0569 25.8585Z" fill="#D9D9D9"/>
<path d="M60.8545 24.7795L59.9526 25.203C59.3193 25.4564 58.7531 25.5765 58.5499 25.5566L54.9663 25.4341C54.6675 25.4012 54.4029 25.0293 54.3569 24.7362L54.2009 23.7214C54.123 23.2112 54.6064 22.7229 55.1211 22.795L60.958 23.6404C61.5745 23.7196 61.3809 24.3603 60.8545 24.7795ZM49.4125 33.4818L52.1628 30.1271C52.5338 29.6577 53.1922 29.5593 53.5888 29.9143L54.2757 30.5267C54.6644 30.8736 54.6415 31.5129 54.2208 31.9248L50.7836 34.667C50.4182 35.0255 49.8733 35.088 49.5106 34.811C49.1097 34.5128 49.0664 33.9218 49.4125 33.4818Z" fill="#D9D9D9"/>
<path d="M53.6824 29.3175L55.4992 27.4771C56.0734 27.0644 56.8229 27.1891 57.1188 27.7469L57.6315 28.707C57.9226 29.2537 57.6537 29.9884 57.0464 30.3116L54.717 31.192C54.4624 31.3284 54.1774 31.3738 53.9145 31.3196C53.6517 31.2654 53.4287 31.1154 53.2868 30.8971C53.1341 30.6596 53.09 30.36 53.1641 30.0638C53.2383 29.7677 53.4247 29.4993 53.6824 29.3175Z" fill="#D9D9D9"/>
<path d="M62.2059 29.2591L61.274 29.5903C60.6232 29.7763 60.1103 29.7921 59.9146 29.7492L57.3376 29.8456C57.0467 29.784 56.8273 29.379 56.8133 29.076L56.7669 28.0397C56.7439 27.5186 57.2689 27.0797 57.7684 27.2035L62.4261 28.118C63.0229 28.2689 62.7653 28.8925 62.2059 29.2591ZM49.964 37.1523L54.0679 33.5652C54.6556 33.0498 55.5128 33.3289 55.5716 34.0527L55.6909 35.5512C55.7212 35.9386 55.501 36.3308 55.1389 36.5331L50.9856 38.8599C50.8624 38.929 50.7286 38.9722 50.5935 38.9868C50.4584 39.0014 50.3252 38.9869 50.2029 38.9443C50.0806 38.9017 49.9722 38.8321 49.885 38.7402C49.7979 38.6482 49.734 38.5362 49.6979 38.4116L49.6278 38.1734C49.5296 37.8201 49.6625 37.4174 49.964 37.1523Z" fill="#D9D9D9"/>
<path d="M55.0029 33.98L56.0764 33.1692C56.4082 32.917 56.8416 32.8989 57.1437 33.1132L58.9719 34.5687C59.4298 34.9013 59.6357 35.7466 59.0411 36.3161L58.688 36.7734C58.3895 36.9987 58.0109 37.0429 57.7129 36.8879L55.0007 35.4694C54.4537 35.1859 54.4541 34.3944 55.0029 33.98Z" fill="#D9D9D9"/>
<path d="M59.5774 36.8526C59.5774 36.8526 59.7394 38.389 59.2881 39.5795C58.8149 40.8333 58.3218 41.2624 58.0993 41.1611C57.745 40.9972 58.1679 39.4703 58.099 38.3555C58.0327 37.2434 57.8611 36.4335 57.8611 36.4335C57.8683 36.2261 58.0111 36.0301 58.2136 35.945C58.9201 35.663 59.6156 36.1247 59.5774 36.8526Z" fill="#D9D9D9"/>
<path d="M26.9524 35.2603C27.8893 34.3547 27.8664 32.8113 26.9013 31.8129C25.9362 30.8144 24.3944 30.7392 23.4576 31.6448C22.5207 32.5503 22.5436 34.0938 23.5086 35.0922C24.4737 36.0906 26.0155 36.1659 26.9524 35.2603Z" fill="#070707"/>
<path d="M35.1666 27.2149C36.1035 26.3093 36.0806 24.7659 35.1156 23.7675C34.1505 22.769 32.6087 22.6938 31.6718 23.5993C30.735 24.5049 30.7578 26.0484 31.7229 27.0468C32.688 28.0452 34.2298 28.1205 35.1666 27.2149Z" fill="#070707"/>
<path d="M41.4493 17.4659L40.6191 18.8538C40.2737 19.4356 40.4338 20.1353 40.9812 20.4131L43.3702 21.6324C43.5935 21.7461 43.8578 21.7765 44.1206 21.7187C44.3834 21.6608 44.6293 21.5181 44.8185 21.3137L45.3452 20.7413C45.7973 20.2515 45.8202 19.5385 45.3967 19.125L43.3086 17.0875C42.7925 16.5842 41.8661 16.7676 41.4493 17.4659ZM24.2958 45.0223C23.4455 45.3274 22.017 45.7218 20.6085 45.5537C20.0706 45.4883 19.7777 44.9275 20.0017 44.4103L20.1671 44.0289C20.3364 43.6332 20.7617 43.3857 21.1715 43.4536C22.1676 43.6248 23.252 43.4943 23.9613 43.3626C24.4082 43.2786 24.8179 43.5367 24.9136 43.961C25.0084 44.3968 24.74 44.8619 24.2958 45.0223Z" fill="#D9D9D9"/>
<path d="M17.127 40.9759L18.5423 40.1934C19.1355 39.8679 19.8293 40.0516 20.0884 40.6082L21.2259 43.0372C21.3319 43.2642 21.3533 43.5294 21.2866 43.7901C21.2199 44.0508 21.069 44.2916 20.8582 44.4738L20.2683 44.9807C20.026 45.1902 19.7221 45.3069 19.4205 45.3063C19.119 45.3057 18.8432 45.1878 18.6511 44.9774L16.6857 42.8213C16.2033 42.2854 16.4181 41.3658 17.127 40.9759Z" fill="#D9D9D9"/>
<path d="M24.4194 33.6159C24.6363 33.4063 24.661 33.0801 24.4747 32.8873C24.2884 32.6946 23.9616 32.7082 23.7447 32.9178C23.5279 33.1274 23.5031 33.4536 23.6894 33.6464C23.8758 33.8391 24.2026 33.8255 24.4194 33.6159Z" fill="#939090"/>
<path d="M32.7385 25.5746C32.9554 25.365 32.9801 25.0388 32.7938 24.8461C32.6075 24.6533 32.2807 24.667 32.0638 24.8766C31.847 25.0862 31.8222 25.4124 32.0085 25.6051C32.1948 25.7979 32.5217 25.7842 32.7385 25.5746Z" fill="#939090"/>
<path d="M43.4277 15.0683C42.5405 13.8742 41.1825 11.9168 38.1735 11.7135C33.1058 11.3693 30.0817 13.9496 29.1607 14.9612C28.2371 15.97 28.9425 15.9263 29.9353 15.8791C30.392 15.8544 31.7036 15.6889 32.8725 15.8301C34.0695 15.9758 35.1173 16.4398 35.0081 16.8302C34.8272 17.4902 33.0618 17.8676 32.3484 17.8293C31.5727 17.788 31.3906 17.7161 30.4233 17.4644C29.4784 17.2174 29.1 17.0346 29.114 17.3376C29.1249 17.6435 29.4196 18.2921 30.1121 18.8306C30.6839 19.2747 31.5195 19.5377 32.3274 20.0174C33.7143 20.8445 33.215 20.8313 34.9812 21.8298C36.0225 22.4161 36.844 22.5661 38.6183 22.2962C40.5593 22.0023 41.7011 20.7404 42.2367 20.3124C43.0717 19.6477 43.5463 18.4506 43.9967 17.2346C44.0986 16.941 43.8069 15.5773 43.4277 15.0683ZM14.2434 43.278C13.0801 42.3507 11.17 40.9271 11.069 37.9129C10.897 32.8364 13.5785 29.9017 14.6207 29.0156C15.6603 28.1268 15.5927 28.8303 15.5119 29.8209C15.4716 30.2765 15.2617 31.5817 15.3631 32.7547C15.4681 33.956 15.8963 35.0189 16.2901 34.923C16.9559 34.7647 17.393 33.0131 17.379 32.2988C17.364 31.5222 17.2984 31.3377 17.0796 30.3624C16.8648 29.4097 16.695 29.0253 16.9973 29.0496C17.3027 29.0709 17.941 29.3874 18.4556 30.0978C18.8801 30.6843 19.1145 31.5284 19.5665 32.3521C20.3461 33.7663 20.3499 33.2668 21.2878 35.0659C21.8384 36.1266 21.9605 36.9527 21.6305 38.7168C21.2708 40.6467 19.9709 41.745 19.5249 42.2657C18.8322 43.0777 17.6197 43.5113 16.3891 43.9202C16.0892 44.015 14.7392 43.6743 14.2434 43.278ZM50.6319 39.4761C50.2906 39.8904 50.0986 40.3977 50.0541 40.9102C49.9606 41.9921 49.5032 44.3119 46.54 47.1761C43.5307 50.0849 41.0068 50.4939 39.8355 50.5713C39.3012 50.6078 38.7749 50.8 38.3314 51.1391C35.9745 52.9425 32.9164 53.1612 30.9569 51.5637L24.9807 47.6461C22.4965 45.6223 23.3004 42.1448 25.5375 38.8485C25.5375 38.8485 27.9652 35.0988 31.5327 31.6505C35.1003 28.2021 38.9271 25.906 38.9271 25.906C42.3404 23.7406 45.6455 23.1145 47.6116 25.4862C47.7004 25.5903 47.7738 25.7092 47.8415 25.8284L51.3224 32.0998C52.8577 34.1179 52.5288 37.1784 50.6319 39.4761Z" fill="#D9D9D9"/>
<path d="M29.1612 45.7097C28.6459 46.2078 27.858 46.289 27.346 45.882C26.5626 45.268 25.554 43.5371 26.7535 40.9537C27.0799 40.2478 27.8929 39.8734 28.5649 40.1205C29.2399 40.3646 29.5225 41.1358 29.1934 41.8389C28.6189 43.0799 29.096 43.6103 29.1996 43.7053C29.7551 44.1388 29.7802 44.969 29.2764 45.5772C29.2414 45.6269 29.2011 45.6712 29.1612 45.7097Z" fill="white"/>
</g>
<defs>
<clipPath id="clip0_166_349">
<rect width="54" height="48" fill="white" transform="translate(0 37.9529) scale(1.01127) rotate(-44.0271)"/>
</clipPath>
</defs>
</svg>
