<svg width="32" height="32" viewBox="0 0 32 32" fill="none" xmlns="http://www.w3.org/2000/svg">
<path d="M25.724 11.0573L22.9654 13.816C22.1368 12.8781 21.1284 12.1159 20 11.5747V5.33334H21.3334V2.66667H10.6667V5.33334H12V11.5747C10.4064 12.3324 9.05976 13.5257 8.11595 15.0167C7.17214 16.5077 6.66968 18.2354 6.66669 20C6.66669 25.1453 10.8547 29.3333 16 29.3333C21.1454 29.3333 25.3334 25.1453 25.3334 20C25.332 18.6482 25.0353 17.3131 24.464 16.088L27.6094 12.9427L25.724 11.0573ZM13.7787 13.7213L14.6667 13.408V5.33334H17.3334V13.408L18.2214 13.7213C19.3016 14.1072 20.2642 14.765 21.0162 15.6313C21.7683 16.4975 22.2843 17.5429 22.5147 18.6667H9.48535C9.71571 17.5429 10.2318 16.4975 10.9838 15.6313C11.7358 14.765 12.6984 14.1072 13.7787 13.7213ZM16 26.6667C14.4641 26.6646 12.9758 26.133 11.7862 25.1615C10.5965 24.1899 9.77826 22.8379 9.46935 21.3333H22.532C22.2226 22.8379 21.404 24.1898 20.2142 25.1613C19.0244 26.1328 17.5361 26.6644 16 26.6667Z" fill="white"/>
</svg>
