<svg width="73" height="71" viewBox="0 0 73 71" fill="none" xmlns="http://www.w3.org/2000/svg">
<g clip-path="url(#clip0_166_247)">
<path d="M-1.31892 4.44053C-0.440967 4.63971 1.01386 4.86156 2.3872 4.52654C2.91419 4.39821 3.13264 3.80953 2.85355 3.32435L2.64477 2.96324C2.42816 2.59148 1.98068 2.39821 1.58335 2.51645C0.618233 2.80279 -0.469285 2.80298 -1.1824 2.75712C-1.6319 2.72734 -2.00995 3.02994 -2.05062 3.46116C-2.097 3.9069 -1.77703 4.3382 -1.31892 4.44053ZM-25.5393 -11.5506L-26.1842 -13.9871C-26.5604 -14.4421 -27.2271 -14.5282 -27.6212 -14.1765L-28.3041 -13.5629C-28.6903 -13.2146 -28.6576 -12.5864 -28.2327 -12.1886L-26.9015 -10.3632C-26.527 -10.0178 -25.9785 -9.96474 -25.6175 -10.2378C-25.2225 -10.5418 -25.1889 -11.1245 -25.5393 -11.5506Z" fill="#0E4981"/>
<path d="M-36.9466 0.697752C-36.9466 0.697752 -36.9234 2.23355 -36.3345 3.35922C-35.72 4.54202 -35.1788 4.90541 -34.9741 4.78247C-34.6451 4.57943 -35.2401 3.11912 -35.3073 2.01198C-35.3745 0.904846 -35.299 0.0851094 -35.299 0.0851094C-35.334 -0.120564 -35.4953 -0.299502 -35.7035 -0.353696C-36.4383 -0.552755 -37.0678 -0.0165577 -36.9466 0.697752ZM-2.30374 6.07451L0.216348 6.03883C0.755986 6.27843 1.01858 6.89725 0.786101 7.37157L0.379295 8.19457C0.147985 8.66034 -0.465836 8.79825 -0.963436 8.49624L-3.08008 7.70636C-3.51363 7.43879 -3.71256 6.92484 -3.54686 6.5036C-3.45669 6.28213 -3.27643 6.11345 -3.04435 6.03334C-2.81226 5.95323 -2.5466 5.968 -2.30374 6.07451Z" fill="#0E4981"/>
<path d="M1.60781 6.91052L3.4329 7.84701C3.96911 8.3009 4.04272 9.06397 3.5896 9.49351L2.80908 10.2358C2.36613 10.6589 1.60133 10.5833 1.13753 10.0759L-0.13577 8.80353C-0.330531 8.59045 -0.446606 8.3246 -0.46254 8.0551C-0.478474 7.7856 -0.39319 7.53068 -0.222453 7.33744C0.163101 6.89909 1.10526 6.48217 1.60781 6.91052Z" fill="#0E4981"/>
<path d="M3.39602 14.6227L2.84152 13.8013C2.49649 13.2142 2.2898 12.6755 2.28187 12.4762L1.65056 10.2387C1.63753 9.94117 1.96383 9.62289 2.2438 9.53351L3.2158 9.22409C3.70575 9.06767 4.25802 9.47244 4.26536 9.98722L4.52903 14.5485C4.5482 15.1666 3.88605 15.0745 3.39602 14.6227ZM-5.52953 7.99843L-2.66936 9.04583C-2.12972 9.28543 -1.86713 9.90425 -2.09961 10.3786L-2.50642 11.2016C-2.73773 11.6673 -3.35154 11.8052 -3.84914 11.5032L-6.3025 9.63283C-6.73606 9.36525 -6.93498 8.85131 -6.76928 8.43007C-6.58644 7.96525 -6.03205 7.77284 -5.52953 7.99843Z" fill="#0E4981"/>
<path d="M-1.51092 10.3158L1.2843 11.7006C1.82052 12.1545 1.89412 12.9176 1.441 13.3471L0.66048 14.0894C0.217534 14.5125 -0.547263 14.4368 -1.01106 13.9294L-3.02576 11.8024C-3.22053 11.5893 -3.3366 11.3235 -3.35253 11.054C-3.36847 10.7845 -3.28318 10.5296 -3.11245 10.3363C-3.02068 10.2322 -2.90645 10.1491 -2.77628 10.0918C-2.64611 10.0344 -2.50256 10.0039 -2.35382 10.002C-2.20509 10.0001 -2.0541 10.0268 -1.90947 10.0807C-1.76484 10.1345 -1.62941 10.2144 -1.51092 10.3158Z" fill="#0E4981"/>
<path d="M1.04189 19.782L0.487388 18.9607C0.142352 18.3736 -0.0643306 17.8349 -0.0722606 17.6356L-0.494756 14.0948C-0.507787 13.7973 -0.181487 13.479 0.0984862 13.3897L1.07049 13.0802C1.56044 12.9238 2.1127 13.3286 2.12004 13.8434L2.17826 19.7105C2.18843 20.3264 1.53191 20.2339 1.04189 19.782ZM-9.25749 9.85725L-5.54033 12.0545C-5.02238 12.3437 -4.82523 12.9788 -5.11503 13.4238L-5.61282 14.1919C-5.89581 14.628 -6.52843 14.6997 -6.99534 14.3503L-10.217 11.3879C-10.6233 11.0844 -10.7703 10.558 -10.5518 10.158C-10.315 9.71991 -9.74061 9.58508 -9.25749 9.85725Z" fill="#0E4981"/>
<path d="M-3.15685 21.793L-3.6221 20.9309C-3.90615 20.3193 -3.99695 19.8167 -3.9846 19.6186L-4.47126 17.0994C-4.45501 16.8053 -4.08948 16.5262 -3.79502 16.4667L-2.7819 16.2639C-2.26971 16.1621 -1.75713 16.6122 -1.80836 17.1202L-1.99972 21.8409C-2.06049 22.4455 -2.71553 22.2881 -3.15685 21.793ZM-12.7774 10.9592L-8.62434 14.4489C-8.02752 14.9488 -8.16984 15.8357 -8.87847 16.0007L-10.333 16.3449C-10.5164 16.3876 -10.7154 16.3727 -10.903 16.3022C-11.0906 16.2316 -11.2576 16.1088 -11.3812 15.9505L-14.2989 12.2239C-14.3858 12.1134 -14.4489 11.9886 -14.4838 11.8581C-14.5188 11.7275 -14.5248 11.5944 -14.5014 11.4678C-14.478 11.3412 -14.4257 11.2242 -14.3483 11.1249C-14.2708 11.0255 -14.17 10.9462 -14.0527 10.8924L-13.8301 10.7877C-13.5002 10.6325 -13.0859 10.7016 -12.7774 10.9592Z" fill="#0E4981"/>
<path d="M5.28097 -0.407343L3.78766 -1.01201C3.16244 -1.26466 2.49947 -0.999018 2.30811 -0.418077L1.47275 2.1167C1.3948 2.35332 1.40494 2.61771 1.50152 2.8672C1.5981 3.11668 1.7755 3.33671 2.00508 3.49177L2.64848 3.92324C2.9126 4.10057 3.22607 4.17932 3.52342 4.14306C3.82077 4.10679 4.07901 3.9583 4.24419 3.72861L5.92946 1.36703C6.35078 0.77663 6.02763 -0.105006 5.28097 -0.407343ZM-24.4165 -13.0799C-24.845 -13.8717 -25.4507 -15.2129 -25.4983 -16.6257C-25.5167 -17.1678 -25.0087 -17.5368 -24.4663 -17.3988L-24.0622 -17.2951C-23.6459 -17.1867 -23.3391 -16.8079 -23.3459 -16.3934C-23.3615 -15.3868 -23.0686 -14.3395 -22.8322 -13.6651C-22.6824 -13.2403 -22.8719 -12.7946 -23.2762 -12.6393C-23.6963 -12.477 -24.1979 -12.6689 -24.4165 -13.0799Z" fill="#0E4981"/>
<path d="M7.93998 1.17107C8.97915 0.115787 10.6976 -1.51337 10.4412 -4.50385C10.0043 -9.53605 7.00706 -12.116 5.87631 -12.87C4.74557 -13.624 4.89284 -12.9371 5.09268 -11.9698C5.18379 -11.5235 5.55106 -10.2595 5.58525 -9.08782C5.62493 -7.88842 5.32706 -6.78947 4.9261 -6.83429C4.24696 -6.91096 3.61148 -8.59058 3.53984 -9.3003C3.46514 -10.0689 3.5045 -10.2607 3.60116 -11.2482C3.69884 -12.2161 3.82383 -12.6117 3.52601 -12.5547C3.22818 -12.4977 2.63553 -12.108 2.20765 -11.3481C1.85712 -10.7182 1.72959 -9.85777 1.38003 -8.99135C0.778026 -7.50544 0.713063 -7.9932 0.000712375 -6.11007C-0.420076 -4.99592 -0.439241 -4.16648 0.0980588 -2.46231C0.68071 -0.601155 2.09561 0.330658 2.59683 0.795723C3.37728 1.51503 4.6244 1.80093 5.88859 2.05734C6.20154 2.12028 7.49124 1.6228 7.93998 1.17107ZM-24.2316 -23.2324C-23.4954 -24.5175 -22.3898 -26.6115 -19.4408 -27.1706C-14.4782 -28.1117 -11.1859 -25.9208 -10.1539 -25.0296C-9.12532 -24.1409 -9.82426 -24.1006 -10.8096 -24.0323C-11.2639 -23.9998 -12.5802 -24.0128 -13.7177 -23.7299C-14.8834 -23.4448 -15.8614 -22.8618 -15.7102 -22.4877C-15.4533 -21.8544 -13.6645 -21.6951 -12.9618 -21.8174C-12.2014 -21.9527 -12.0274 -22.0423 -11.1025 -22.4015C-10.1967 -22.7565 -9.8495 -22.9834 -9.8241 -22.6813C-9.79869 -22.3791 -10.0142 -21.7034 -10.6307 -21.0865C-11.1428 -20.5792 -11.937 -20.2244 -12.6771 -19.6543C-13.9458 -18.6741 -13.4586 -18.743 -15.08 -17.5494C-16.0395 -16.8439 -16.8331 -16.6019 -18.619 -16.66C-20.5683 -16.7194 -21.847 -17.8308 -22.43 -18.1881C-23.333 -18.7458 -23.9445 -19.8697 -24.5321 -21.018C-24.6771 -21.3024 -24.5456 -22.6785 -24.2316 -23.2324ZM-14.9623 11.9657C-15.4229 11.6918 -15.9486 11.5807 -16.4593 11.6176C-17.5382 11.6903 -19.884 11.5942 -23.1534 9.11425C-26.4698 6.59856 -27.2568 4.18163 -27.511 3.04117C-27.6215 2.52304 -27.8977 2.03425 -28.299 1.64658C-30.4291 -0.398245 -31.1083 -3.36989 -29.8376 -5.54149L-26.8926 -12.0113C-25.2818 -14.7642 -21.7412 -14.5019 -18.1566 -12.8013C-18.1566 -12.8013 -14.1026 -10.9851 -10.17 -8.00202C-6.23733 -5.01895 -3.39569 -1.60456 -3.39569 -1.60456C-0.748027 1.42223 0.37078 4.57649 -1.66009 6.86923C-1.74855 6.97187 -1.85612 7.06473 -1.96252 7.14905L-7.59637 11.5274C-9.35867 13.3402 -12.4158 13.4825 -14.9623 11.9657Z" fill="#EA4832"/>
<path d="M48.8164 42.3005C49.6887 42.5001 51.1402 42.7194 52.5056 42.3878C53.027 42.2599 53.2488 41.6738 52.9674 41.1916L52.7597 40.8361C52.5465 40.4669 52.099 40.2736 51.7039 40.3888C50.7445 40.6747 49.6626 40.6745 48.9495 40.6286C48.5 40.5989 48.1276 40.901 48.0835 41.3297C48.0417 41.7694 48.3639 42.1977 48.8164 42.3005ZM24.7015 26.38L24.0588 23.9547C23.9701 23.8471 23.8611 23.7562 23.7389 23.6878C23.6166 23.6194 23.4838 23.575 23.3489 23.5574C23.214 23.5398 23.08 23.5495 22.9554 23.5857C22.8308 23.6219 22.7183 23.6839 22.6252 23.7678L21.9446 24.3783C21.5584 24.7266 21.59 25.3494 22.0172 25.7441L23.3382 27.5619C23.7094 27.9047 24.2557 27.9608 24.6189 27.6847C25.0173 27.3833 25.0542 26.8031 24.7015 26.38Z" fill="#D9D9D9"/>
<path d="M22.8533 22.8517L21.4663 21.3516C20.8847 20.9576 20.1357 21.0919 19.8464 21.6411L19.3443 22.5898C19.0585 23.1274 19.3374 23.8435 19.9477 24.1508L21.5094 25.029C21.7661 25.1591 22.0526 25.1993 22.3155 25.142C22.5785 25.0848 22.8 24.934 22.939 24.7177C23.2526 24.2343 23.3956 23.2206 22.8533 22.8517Z" fill="#D9D9D9"/>
<path d="M14.9785 23.2057L15.9156 23.5157C16.5682 23.6902 17.1393 23.7415 17.3368 23.6979L19.6527 23.7007C19.9427 23.633 20.159 23.236 20.1696 22.9423L20.2033 21.9259C20.2071 21.8079 20.1804 21.6874 20.1255 21.5754C20.0706 21.4633 19.9894 21.363 19.8889 21.2836C19.7885 21.2041 19.672 21.1479 19.5498 21.1199C19.4277 21.092 19.3037 21.0932 19.1889 21.1234L14.7411 22.092C14.1486 22.2508 14.4124 22.8611 14.9785 23.2057ZM23.7262 29.9874L21.9545 27.526C21.8658 27.4184 21.7568 27.3276 21.6346 27.2592C21.5123 27.1908 21.3795 27.1464 21.2446 27.1288C21.1097 27.1112 20.9757 27.1208 20.8511 27.157C20.7265 27.1932 20.614 27.2553 20.5209 27.3391L19.8459 27.9492C19.4597 28.2975 19.4913 28.9203 19.9185 29.3151L22.3708 31.1658C22.742 31.5087 23.2883 31.5647 23.6515 31.2886C24.0397 30.9937 24.0767 30.4135 23.7262 29.9874Z" fill="#D9D9D9"/>
<path d="M20.426 26.7579L18.3469 24.45C17.7653 24.056 17.0163 24.1904 16.727 24.7395L16.2249 25.6882C15.9391 26.2258 16.218 26.9419 16.8283 27.2492L19.4095 28.6084C19.6662 28.7385 19.9527 28.7787 20.2156 28.7215C20.4786 28.6642 20.7001 28.5134 20.8391 28.2972C20.9878 28.0621 21.0278 27.7689 20.9505 27.4809C20.8732 27.1929 20.6848 26.9332 20.426 26.7579Z" fill="#D9D9D9"/>
<path d="M10.6592 26.8509L11.5963 27.1609C12.249 27.3354 12.8201 27.3867 13.0175 27.3431L16.5276 26.7995C16.8176 26.7319 17.0339 26.3349 17.0445 26.0412L17.0782 25.0247C17.082 24.9067 17.0553 24.7863 17.0004 24.6742C16.9456 24.5621 16.8643 24.4619 16.7638 24.3824C16.6634 24.303 16.5469 24.2468 16.4247 24.2188C16.3026 24.1909 16.1786 24.192 16.0638 24.2223L10.423 25.7428C9.82934 25.896 10.0954 26.5033 10.6592 26.8509ZM22.9433 34.0613L19.8423 31.0867C19.422 30.6688 18.7628 30.6498 18.4147 31.0458L17.8114 31.7292C17.4701 32.1162 17.5681 32.7422 18.0305 33.0977L21.7347 35.3888C22.1365 35.6983 22.6797 35.6955 23.0037 35.3802C23.3628 35.0396 23.3322 34.4506 22.9433 34.0613Z" fill="#D9D9D9"/>
<path d="M18.2488 30.4673L16.2447 28.8717C15.6312 28.5336 14.9088 28.7448 14.6836 29.3284L14.2927 30.3332C14.071 30.9052 14.4222 31.596 15.0576 31.8422L17.4526 32.433C17.7191 32.5372 18.0047 32.5481 18.2569 32.4638C18.509 32.3794 18.7106 32.2055 18.8243 31.9742C19.0819 31.4529 18.8229 30.7803 18.2488 30.4673Z" fill="#D9D9D9"/>
<path d="M9.8624 31.4187L10.818 31.6344C11.4801 31.7405 11.9863 31.6955 12.1738 31.6302L14.7196 31.4207C14.9985 31.3258 15.1664 30.9016 15.1444 30.602L15.0677 29.5772C15.0288 29.0621 14.4606 28.6924 13.984 28.8731L9.50775 30.3199C8.94193 30.5414 9.26896 31.1242 9.8624 31.4187ZM22.8309 37.7338L18.3712 34.6904C17.7323 34.253 16.9223 34.6286 16.9499 35.3474L17.0094 36.8353C17.0253 37.2199 17.2882 37.5796 17.6683 37.7359L22.0277 39.5339C22.1571 39.5873 22.2938 39.614 22.4284 39.6124C22.563 39.6108 22.6923 39.5808 22.8075 39.5245C22.9228 39.4682 23.0212 39.3869 23.0961 39.2862C23.1709 39.1855 23.2205 39.0677 23.2413 38.941L23.2821 38.6984C23.31 38.523 23.282 38.3376 23.2016 38.1657C23.1212 37.9939 22.9922 37.8435 22.8309 37.7338Z" fill="#D9D9D9"/>
<path d="M17.504 35.2113L16.3525 34.5406C15.9964 34.3318 15.5679 34.3651 15.2961 34.6116L13.67 36.2589C13.2588 36.6401 13.1561 37.4958 13.8082 37.9857L14.2094 38.3938C14.5296 38.5801 14.9071 38.5788 15.182 38.3913L17.6797 36.6789C18.1864 36.3325 18.0893 35.5516 17.504 35.2113Z" fill="#D9D9D9"/>
<path d="M13.3408 38.5741C13.3408 38.5741 13.3629 40.1043 13.9473 41.2219C14.5607 42.3991 15.0963 42.763 15.3032 42.637C15.6323 42.434 15.0361 40.9822 14.9723 39.8776C14.9061 38.776 14.9793 37.9593 14.9793 37.9593C14.9478 37.7562 14.7842 37.5802 14.5749 37.5205C13.8502 37.3291 13.2207 37.8653 13.3408 38.5741ZM47.8395 43.9311L50.3483 43.8963C50.4758 43.9528 50.5927 44.0332 50.6915 44.1325C50.7903 44.2318 50.8689 44.3477 50.9222 44.4729C50.9755 44.598 51.0023 44.7297 51.0011 44.8595C50.9998 44.9892 50.9704 45.1142 50.9147 45.2264L50.5102 46.0465C50.2789 46.5122 49.6707 46.6497 49.1753 46.3447L47.0688 45.5625C46.6386 45.2975 46.4374 44.7865 46.6054 44.3623C46.7882 43.8975 47.337 43.7055 47.8395 43.9311Z" fill="#D9D9D9"/>
<path d="M51.732 44.7573L53.5503 45.6887C54.0865 46.1426 54.1591 46.9001 53.7082 47.3266L52.93 48.0659C52.4893 48.486 51.7245 48.4104 51.264 47.9055L49.9975 46.6383C49.803 46.4262 49.6871 46.1612 49.6713 45.8925C49.6556 45.6239 49.7411 45.3699 49.9119 45.1778C50.2929 44.7454 51.2339 44.337 51.732 44.7573Z" fill="#D9D9D9"/>
<path d="M53.5169 52.4387L52.9658 51.6199C52.6219 51.0384 52.4185 50.5023 52.4072 50.3004L51.7804 48.0709C51.7674 47.7734 52.0914 47.4581 52.3714 47.3688L53.3411 47.0623C53.8288 46.9089 54.3799 47.3081 54.3873 47.8229L54.6499 52.3646C54.6601 52.9805 54.0013 52.891 53.5169 52.4387ZM44.6251 45.84L47.4729 46.8828C47.6004 46.9392 47.7172 47.0197 47.816 47.119C47.9149 47.2183 47.9934 47.3342 48.0467 47.4594C48.1 47.5845 48.1269 47.7162 48.1256 47.8459C48.1243 47.9757 48.0949 48.1007 48.0392 48.2129L47.6347 49.0329C47.4034 49.4987 46.7952 49.6362 46.2999 49.3312L43.8566 47.4684C43.4264 47.2034 43.2252 46.6925 43.3932 46.2682C43.5749 45.812 44.1236 45.62 44.6251 45.84Z" fill="#D9D9D9"/>
<path d="M48.6279 48.1502L51.4107 49.5303C51.9469 49.9842 52.0194 50.7417 51.5686 51.1683L50.7903 51.9075C50.3497 52.3277 49.5849 52.252 49.1244 51.7472L47.1198 49.6278C46.9253 49.4157 46.8094 49.1507 46.7937 48.882C46.7779 48.6134 46.8634 48.3594 47.0342 48.1673C47.4153 47.7349 48.1264 47.7274 48.6279 48.1502Z" fill="#D9D9D9"/>
<path d="M51.1675 57.578L50.6163 56.7592C50.2724 56.1777 50.0691 55.6416 50.0578 55.4397L49.6352 51.913C49.6222 51.6155 49.9462 51.3002 50.2262 51.2108L51.1959 50.9044C51.6836 50.751 52.2348 51.1502 52.2421 51.665L52.2982 57.5069C52.314 58.1224 51.6575 58.0299 51.1675 57.578ZM40.9163 47.6945L44.6166 49.879C45.1323 50.1712 45.3284 50.8008 45.0408 51.2428L44.5453 52.0079C44.2646 52.4409 43.6353 52.5153 43.1684 52.1658L39.9636 49.2162C39.5573 48.9127 39.4137 48.3888 39.63 47.9918C39.8611 47.5542 40.4332 47.4224 40.9163 47.6945Z" fill="#D9D9D9"/>
<path d="M45.6393 51.2441L47.716 52.7439C48.2069 53.2436 48.1983 53.9962 47.697 54.3703L46.8347 55.0176C46.3436 55.3853 45.5837 55.2332 45.1754 54.6877L43.9609 52.5406C43.7888 52.3121 43.7012 52.0399 43.7145 51.7744C43.7278 51.5089 43.8409 51.2679 44.033 51.096C44.2424 50.9105 44.5291 50.8219 44.8302 50.8497C45.1313 50.8775 45.4223 51.0193 45.6393 51.2441Z" fill="#D9D9D9"/>
<path d="M46.9868 59.5791L46.5216 58.717C46.2409 58.108 46.1478 57.6084 46.1602 57.4103L45.6757 54.9022C45.692 54.6081 46.0552 54.332 46.3497 54.2724L47.3572 54.0701C47.8637 53.9687 48.3729 54.4162 48.3274 54.9239L48.1372 59.6219C48.0798 60.229 47.4304 60.0712 46.9868 59.5791ZM37.4067 48.7901L41.5395 52.2645C42.1329 52.7618 41.9895 53.6431 41.2899 53.8103L39.841 54.154C39.4664 54.2423 39.0491 54.0861 38.7962 53.7622L35.8897 50.0487C35.8034 49.9385 35.7408 49.8141 35.7061 49.6841C35.6714 49.554 35.6654 49.4214 35.6886 49.2953C35.7117 49.1691 35.7635 49.0524 35.8403 48.9532C35.9171 48.854 36.0171 48.7745 36.1336 48.7202L36.3561 48.6156C36.6872 48.4659 37.1015 48.5351 37.4067 48.7901Z" fill="#D9D9D9"/>
<path d="M41.275 53.2425L42.2312 54.1706C42.5283 54.4573 42.6117 54.8789 42.4476 55.207L41.2995 57.217C41.0433 57.7157 40.2469 58.0452 39.5994 57.5493L39.0983 57.2729C38.8326 57.0148 38.732 56.6509 38.8385 56.3357L39.8166 53.4659C40.0113 52.8875 40.7862 52.7681 41.275 53.2425Z" fill="#D9D9D9"/>
<path d="M39.1554 58.1556C39.1554 58.1556 37.6758 58.5468 36.4421 58.2852C35.143 58.0117 34.6483 57.594 34.7138 57.3608C34.8207 56.9892 36.3794 57.172 37.4603 56.9358C38.539 56.7026 39.3057 56.412 39.3057 56.412C39.5099 56.3876 39.7234 56.4977 39.8373 56.6832C40.2203 57.332 39.8736 58.0828 39.1554 58.1556Z" fill="#D9D9D9"/>
<path d="M35.775 25.9769C36.8034 26.7569 38.3109 26.5009 39.1421 25.405C39.9734 24.3091 39.8137 22.7884 38.7853 22.0084C37.757 21.2283 36.2495 21.4844 35.4182 22.5803C34.587 23.6762 34.7467 25.1969 35.775 25.9769Z" fill="#070707"/>
<path d="M44.8944 32.8001C45.9227 33.5801 47.4302 33.324 48.2615 32.2282C49.0928 31.1323 48.9331 29.6115 47.9047 28.8315C46.8764 28.0515 45.3689 28.3076 44.5376 29.4034C43.7064 30.4993 43.8661 32.0201 44.8944 32.8001Z" fill="#070707"/>
<path d="M55.3892 37.4745L53.9049 36.8719C53.283 36.6218 52.6223 36.8845 52.4332 37.4624L51.6013 39.9857C51.5238 40.2214 51.5341 40.4848 51.6304 40.7333C51.7268 40.9818 51.9037 41.2009 52.1326 41.3552L52.7726 41.7841C53.3205 42.1526 54.022 42.067 54.3627 41.5899L56.0411 39.2373C56.4556 38.6559 56.1358 37.7768 55.3892 37.4745ZM25.8165 24.8541C25.3892 24.0679 24.7868 22.7293 24.7381 21.325C24.7207 20.7885 25.2253 20.4169 25.7655 20.5579L26.1639 20.662C26.5769 20.7679 26.8836 21.1467 26.8791 21.5582C26.8624 22.5592 27.1543 23.601 27.3906 24.2754C27.5405 24.7002 27.3499 25.1403 26.9489 25.2982C26.5367 25.457 26.0408 25.2647 25.8165 24.8541Z" fill="#D9D9D9"/>
<path d="M28.6923 17.2238L29.6727 18.4908C30.0811 19.0222 30.0063 19.7293 29.5007 20.0672L27.295 21.5484C27.0889 21.6866 26.8325 21.7477 26.5672 21.7218C26.3019 21.696 26.0432 21.5847 25.833 21.4059L25.2474 20.9052C25.0057 20.6997 24.8455 20.4199 24.8004 20.1246C24.7554 19.8293 24.829 19.5415 25.0059 19.3216L26.819 17.0712C27.2706 16.5178 28.2033 16.5889 28.6923 17.2238Z" fill="#D9D9D9"/>
<path d="M37.0014 23.2483C37.2394 23.4289 37.5625 23.4037 37.7229 23.1922C37.8834 22.9806 37.8206 22.6627 37.5826 22.4822C37.3445 22.3016 37.0215 22.3268 36.861 22.5383C36.7005 22.7499 36.7634 23.0678 37.0014 23.2483Z" fill="#939090"/>
<path d="M46.1326 30.1748C46.3707 30.3553 46.6937 30.3302 46.8542 30.1186C47.0147 29.907 46.9518 29.5892 46.7138 29.4086C46.4758 29.2281 46.1527 29.2532 45.9922 29.4648C45.8318 29.6764 45.8946 29.9942 46.1326 30.1748Z" fill="#939090"/>
<path d="M58.0358 39.0482C59.0704 37.9989 60.781 36.3732 60.5244 33.3968C60.0942 28.3838 57.1104 25.814 55.9808 25.0656C54.8534 24.3142 55.003 24.9981 55.1994 25.9628C55.2928 26.4061 55.6533 27.665 55.6921 28.8307C55.7307 30.0246 55.4351 31.1205 55.0364 31.0727C54.3629 30.9956 53.7262 29.3245 53.6557 28.6203C53.5787 27.8547 53.6214 27.6655 53.7215 26.6805C53.8202 25.7182 53.9419 25.3201 53.6474 25.3796C53.3496 25.4366 52.7592 25.8233 52.337 26.5828C51.9887 27.2097 51.8578 28.0675 51.5105 28.931C50.9108 30.4139 50.8481 29.9231 50.138 31.8033C49.7218 32.9114 49.6992 33.7383 50.2321 35.4344C50.8136 37.29 52.2218 38.2167 52.7219 38.6762C53.499 39.393 54.7427 39.6763 56.0013 39.9332C56.3041 39.9885 57.5949 39.4965 58.0358 39.0482ZM26.0023 14.7495C26.7339 13.4703 27.8384 11.3849 30.7737 10.8297C35.7172 9.89285 38.9961 12.0735 40.0213 12.9596C41.0488 13.8428 40.3498 13.8831 39.3679 13.9539C38.9158 13.9835 37.6063 13.9756 36.4733 14.2525C35.3133 14.5371 34.3375 15.1172 34.491 15.4882C34.7468 16.116 36.5277 16.2787 37.2248 16.1568C37.9828 16.0246 38.1535 15.9325 39.0751 15.5706C39.9752 15.2161 40.3258 14.9917 40.3478 15.2913C40.3732 15.5935 40.1599 16.2663 39.5424 16.8776C39.0325 17.3819 38.2417 17.7392 37.5038 18.3063C36.2374 19.2836 36.7269 19.2117 35.1078 20.4022C34.1528 21.1018 33.3626 21.3463 31.5857 21.2904C29.642 21.2305 28.37 20.1242 27.7927 19.7664C26.8931 19.2113 26.285 18.0899 25.6984 16.9472C25.5602 16.6679 25.6894 15.2948 26.0023 14.7495ZM35.2329 49.7957C34.7757 49.5243 34.25 49.4132 33.7415 49.4472C32.6683 49.5194 30.3281 49.4228 27.0756 46.9557C23.7726 44.4502 22.9901 42.0414 22.737 40.9065C22.6204 40.3889 22.3526 39.9029 21.9535 39.52C19.8312 37.4858 19.1542 34.5253 20.4214 32.3652L23.3517 25.9219C24.9567 23.1835 28.4827 23.4441 32.0482 25.135C32.0482 25.135 36.0864 26.9439 40.0022 29.9142C43.918 32.8845 46.7451 36.2832 46.7451 36.2832C49.3816 39.2967 50.4948 42.4374 48.4708 44.7211C48.3823 44.8238 48.277 44.9136 48.1706 44.9979L42.5583 49.3549C40.8152 51.1634 37.7693 51.3048 35.2329 49.7957Z" fill="#D9D9D9"/>
<path d="M25.8802 29.7211C25.3146 29.292 25.1158 28.5331 25.4367 27.9702C25.9192 27.1103 27.4609 25.861 30.1715 26.6441C30.9119 26.8568 31.4015 27.5959 31.2614 28.2912C31.1246 28.9889 30.4124 29.3823 29.6743 29.1666C28.3725 28.7921 27.9255 29.3394 27.8482 29.4552C27.5079 30.0647 26.6991 30.2149 26.0273 29.8138C25.9734 29.7871 25.924 29.7543 25.8802 29.7211Z" fill="white"/>
</g>
<defs>
<clipPath id="clip0_166_247">
<rect width="54" height="48" fill="white" transform="translate(29.0589) scale(1.00173) rotate(37.1818)"/>
</clipPath>
</defs>
</svg>
