<?xml version="1.0" encoding="UTF-8" standalone="no"?>
<!-- Created with Inkscape (http://www.inkscape.org/) -->

<svg
   xmlns:dc="http://purl.org/dc/elements/1.1/"
   xmlns:cc="http://creativecommons.org/ns#"
   xmlns:rdf="http://www.w3.org/1999/02/22-rdf-syntax-ns#"
   xmlns:svg="http://www.w3.org/2000/svg"
   xmlns="http://www.w3.org/2000/svg"
   xmlns:sodipodi="http://sodipodi.sourceforge.net/DTD/sodipodi-0.dtd"
   xmlns:inkscape="http://www.inkscape.org/namespaces/inkscape"
   width="20"
   height="16"
   id="svg4022"
   version="1.1"
   inkscape:version="0.91 r13725"
   sodipodi:docname="crab_sm.svg">
  <defs
     id="defs4024" />
  <sodipodi:namedview
     id="base"
     pagecolor="#ffffff"
     bordercolor="#666666"
     borderopacity="1.0"
     inkscape:pageopacity="0.0"
     inkscape:pageshadow="2"
     inkscape:zoom="11.000459"
     inkscape:cx="4.3906057"
     inkscape:cy="8"
     inkscape:document-units="px"
     inkscape:current-layer="layer1"
     showgrid="false"
     inkscape:window-width="1231"
     inkscape:window-height="1000"
     inkscape:window-x="49"
     inkscape:window-y="24"
     inkscape:window-maximized="1" />
  <metadata
     id="metadata4027">
    <rdf:RDF>
      <cc:Work
         rdf:about="">
        <dc:format>image/svg+xml</dc:format>
        <dc:type
           rdf:resource="http://purl.org/dc/dcmitype/StillImage" />
        <dc:title></dc:title>
      </cc:Work>
    </rdf:RDF>
  </metadata>
  <g
     inkscape:label="Layer 1"
     inkscape:groupmode="layer"
     id="layer1"
     transform="translate(0,-1036.3622)">
    <g
       style="fill:#81007f;fill-opacity:1"
       id="g4782"
       transform="matrix(0.14423842,0,0,0.1464297,-35.954235,1007.255)">
      <g
         style="fill:#81007f;fill-opacity:1"
         id="g4784"
         transform="matrix(0.43083704,0,0,0.43036413,180.42591,158.47128)">
        <path
           id="path4786"
           style="opacity:1;fill:#81007f;fill-opacity:1;stroke:none;stroke-width:2.3223381;stroke-linecap:round;stroke-linejoin:round;stroke-miterlimit:4;stroke-dasharray:none;stroke-opacity:1"
           d="m 227.88421,346.29532 c -3.00907,-2.27651 -5.93412,-5.36621 -7.26874,-7.67789 -0.70951,-1.22894 -1.68037,-2.58769 -2.15745,-3.01945 -0.47709,-0.43176 -0.86743,-1.0685 -0.86743,-1.41498 0,-0.34648 -0.36624,-1.15229 -0.81387,-1.79069 -2.40095,-3.42414 -2.37005,-9.22769 0.0795,-14.93929 0.36199,-0.84404 0.75384,-3.0086 0.87078,-4.81013 0.11695,-1.80154 0.45691,-3.86585 0.75547,-4.58737 0.29857,-0.72152 0.82309,-2.00058 1.16561,-2.84235 0.80748,-1.98444 2.1846,-4.58473 3.5896,-6.77791 0.6163,-0.96203 1.37048,-2.24109 1.67595,-2.84235 0.30548,-0.60127 0.9965,-1.82587 1.53562,-2.72134 0.53912,-0.89546 1.64792,-2.86013 2.464,-4.36592 0.81608,-1.50579 1.82096,-3.23286 2.23306,-3.83793 5.4489,-8.0005 5.69219,-11.21833 0.90928,-12.0264 -1.65335,-0.27933 -1.95251,-0.17382 -3.5184,1.24087 -0.94128,0.85038 -2.3627,1.87941 -3.15871,2.28673 -0.79601,0.40732 -2.13602,1.27901 -2.97779,1.93708 -3.29565,2.57644 -12.62624,6.12515 -18.58459,7.06827 -1.68355,0.26649 -4.87399,0.50594 -7.08987,0.53213 -4.69044,0.0554 -4.79142,0.12219 -6.24975,4.13204 -0.86377,2.37505 -1.2337,2.86857 -2.58006,3.44202 -2.69649,1.1485 -2.83018,1.25492 -3.16922,2.52265 -0.2338,0.87421 -0.0708,1.80707 0.55643,3.18386 0.80684,1.77113 0.83556,2.15085 0.31733,4.1961 -0.31339,1.23681 -0.5719,4.65927 -0.57448,7.60548 -0.003,2.9462 -0.13773,5.35673 -0.30036,5.35673 -0.72417,0 -3.0208,-3.57544 -3.86672,-6.01979 -0.7261,-2.09812 -0.82351,-2.88018 -0.44651,-3.58461 0.39697,-0.74175 0.28303,-1.16214 -0.6446,-2.37833 -0.99641,-1.30636 -1.15255,-2.00154 -1.34926,-6.00737 -0.12235,-2.49153 -0.43382,-5.64429 -0.69217,-7.00614 -0.39726,-2.09406 -0.36056,-2.63193 0.23782,-3.48625 0.38916,-0.55559 0.70755,-1.74662 0.70755,-2.64673 0,-2.10268 0.94765,-4.94076 3.11187,-9.3196 2.95622,-5.98131 3.38333,-6.5528 5.59901,-7.49182 3.65673,-1.54975 13.32718,-4.49059 15.65699,-4.76138 1.38882,-0.16143 4.10664,-0.67249 6.0396,-1.1357 3.41461,-0.81828 6.96393,-1.16021 14.63284,-1.40967 4.78279,-0.15559 7.87112,-1.38727 7.87112,-3.13914 0,-1.3003 -2.13485,-3.70787 -3.28784,-3.70787 -0.40228,0 -1.25373,-0.27299 -1.8921,-0.60664 -0.63838,-0.33366 -1.65263,-0.83339 -2.25389,-1.11053 -1.86567,-0.85992 -3.07141,-1.62965 -4.29141,-2.73958 -2.24946,-2.04649 -3.36166,-2.48768 -6.25743,-2.48225 -1.53359,0.003 -3.77223,-0.11459 -4.97476,-0.26105 -1.20254,-0.14647 -3.26871,-0.3146 -4.59149,-0.37364 -1.32279,-0.059 -2.70023,-0.22603 -3.06099,-0.37109 -1.46218,-0.58795 -4.33086,-1.23903 -5.51679,-1.25211 -0.69362,-0.008 -1.6431,-0.30281 -2.10995,-0.65592 -0.46685,-0.35311 -1.14692,-0.64202 -1.51125,-0.64202 -0.36433,0 -2.78014,-1.08228 -5.36846,-2.40507 -2.58832,-1.32278 -5.19089,-2.40506 -5.78349,-2.40506 -1.14048,0 -2.50203,1.53214 -3.10876,3.49827 -0.52613,1.70495 -2.90283,5.73688 -3.5217,5.97437 -0.30635,0.11755 -1.24825,1.6255 -2.09312,3.35099 -2.12441,4.33874 -3.48599,9.36762 -5.22092,19.28307 -0.29133,1.665 -0.73873,3.09573 -0.99424,3.1794 -0.42716,0.13988 -1.10903,-1.02906 -2.98521,-5.11754 -0.38731,-0.84401 -1.27129,-4.05224 -1.9644,-7.12941 -1.01097,-4.48834 -1.18027,-5.95061 -0.85602,-7.39372 0.2223,-0.98938 0.29812,-2.07524 0.1685,-2.41303 -0.31363,-0.81733 0.64271,-4.84806 2.36143,-9.95277 0.75495,-2.24227 3.90876,-8.00804 5.42881,-9.92493 2.14971,-2.71093 4.00605,-3.5476 8.15035,-3.67344 1.8038,-0.0548 5.44419,-0.22882 8.08976,-0.38676 7.48458,-0.44683 17.49153,-0.0593 17.95797,0.69537 0.13253,0.21443 0.81007,0.38987 1.50567,0.38987 1.85778,0 6.26713,1.23638 10.92764,3.06411 5.33916,2.09388 9.45294,3.47836 10.3597,3.48653 0.52694,0.005 1.0797,0.2054 1.22834,0.44591 0.14864,0.24051 0.89817,0.44025 1.66562,0.44387 1.43358,0.007 3.72422,0.7036 5.4115,1.64623 0.52533,0.29348 1.26065,0.53361 1.63405,0.53361 0.3734,0 1.66799,0.98389 2.87687,2.18642 2.05067,2.0399 2.34467,2.18642 4.3873,2.18642 2.31072,0 3.24641,0.46172 7.68329,3.79132 5.69266,4.27197 12.95807,11.41317 17.84602,17.54088 2.66491,3.34085 7.97071,8.21271 12.11014,11.11972 3.09436,2.17309 8.7609,5.18415 10.88468,5.78388 0.60126,0.16978 3.15938,0.96444 5.6847,1.76591 2.52531,0.80147 5.96893,1.5825 7.65248,1.73562 6.30864,0.5738 6.83688,0.70541 6.69203,1.66728 -0.073,0.48492 -0.72389,1.19892 -1.44637,1.58665 -0.72248,0.38774 -1.90315,1.12249 -2.62371,1.63279 -3.7278,2.64001 -12.50288,5.86815 -16.61506,6.11229 -4.67148,0.27733 -9.25044,0.0976 -12.06981,-0.4737 -1.45671,-0.2952 -1.73586,-0.1673 -3.71692,1.70299 -1.17806,1.11218 -3.22422,3.0032 -4.547,4.20226 -6.40841,5.80902 -6.19906,5.35028 -6.2782,13.75714 l -0.0624,6.63168 1.90767,2.52873 c 1.04922,1.39081 2.30296,2.85221 2.7861,3.24757 0.48314,0.39536 1.31487,1.17467 1.8483,1.73179 0.99605,1.0403 1.52471,1.42503 5.43632,3.95623 1.2502,0.80899 2.1989,1.69346 2.10823,1.96547 -0.30263,0.90788 -4.70384,1.64155 -6.81529,1.13608 -1.05141,-0.2517 -2.01371,-0.35557 -2.13846,-0.23083 -0.28935,0.28936 -2.03363,-0.66669 -6.55186,-3.59113 -3.56958,-2.31042 -5.7962,-4.57152 -5.7962,-5.88592 0,-0.37402 -0.67493,-1.68298 -1.49984,-2.90879 -2.99279,-4.44726 -4.77039,-10.24405 -4.31842,-14.08242 0.48598,-4.12728 1.97329,-6.61439 6.54698,-10.94798 2.85602,-2.7061 7.14112,-7.63075 7.13571,-8.20071 -0.0161,-1.6879 -2.19678,-3.10657 -4.79142,-3.11706 -1.24611,-0.005 -3.3497,-0.57222 -5.67636,-1.5305 -3.89103,-1.60259 -5.74538,-1.88203 -6.47596,-0.97588 -0.24239,0.30063 -0.53176,2.90794 -0.64304,5.79402 -0.18814,4.87895 -0.31153,5.48274 -1.75725,8.59875 -0.91166,1.96495 -2.02453,3.65906 -2.69013,4.09518 -0.62438,0.4091 -1.13809,0.96717 -1.14157,1.24014 -0.004,0.27297 -1.41621,1.97215 -3.13939,3.77595 -1.72317,1.8038 -3.34775,3.67319 -3.61019,4.1542 -0.26243,0.48102 -1.45702,1.34729 -2.65464,1.92507 -2.82459,1.36268 -6.03702,4.85496 -5.97335,6.49374 0.0257,0.6608 0.0637,3.07084 0.0844,5.35566 0.0564,6.20967 2.00641,13.7431 4.66681,18.02929 2.06242,3.32278 0.86572,4.42023 -2.24977,2.0632 z m 194.42073,-67.8966 c -0.33475,-0.40335 -0.35312,-1.36014 -0.0609,-3.17438 0.23003,-1.42835 0.47076,-4.86144 0.53496,-7.6291 l 0.11672,-5.0321 -1.5305,-2.55062 c -0.84177,-1.40284 -2.66929,-3.76085 -4.06116,-5.24002 -1.39187,-1.47917 -2.82356,-3.23054 -3.18154,-3.89194 -0.74563,-1.37759 -1.32714,-1.43771 -11.99782,-1.24044 -6.63594,0.12267 -7.17328,0.31044 -10.34925,3.6163 -4.23487,4.40808 -5.52777,5.34933 -11.56935,8.42261 -3.45744,1.75875 -6.86633,3.50873 -7.57532,3.88884 -0.84359,0.45227 -2.35479,0.68243 -4.37285,0.66598 -1.69607,-0.0138 -3.64142,0.19243 -4.323,0.45834 -0.68157,0.26591 -1.41949,0.37207 -1.63981,0.2359 -0.89666,-0.55416 -0.28388,-1.43234 1.7853,-2.55853 2.909,-1.58328 9.15443,-7.54868 12.1713,-11.62559 2.34254,-3.16563 4.87164,-8.3347 5.51813,-11.27818 0.32573,-1.48301 0.8181,-6.80331 1.54674,-16.71298 0.23873,-3.24683 0.71767,-7.87112 1.0643,-10.27618 0.34663,-2.40507 0.74652,-5.55352 0.88865,-6.99656 0.14212,-1.44304 0.55459,-3.70598 0.9166,-5.02877 0.36201,-1.32278 0.948,-4.66187 1.3022,-7.42018 0.35419,-2.75831 0.9151,-5.80837 1.24644,-6.77791 0.33135,-0.96954 1.02448,-3.16839 1.54029,-4.88635 1.61969,-5.39452 6.17654,-12.79474 8.30157,-13.48156 0.38815,-0.12545 1.04932,-0.76973 1.46929,-1.43175 0.41996,-0.66201 1.33896,-2.08916 2.04222,-3.17143 0.70326,-1.08228 1.93388,-3.22096 2.73471,-4.75261 2.36999,-4.53283 2.67035,-5.05121 3.27976,-5.66062 0.31974,-0.31975 0.58135,-0.7349 0.58135,-0.92255 0,-0.18766 0.59034,-0.95892 1.31186,-1.71393 0.72152,-0.755 1.31185,-1.56328 1.31185,-1.79618 0,-0.2329 0.4908,-0.97261 1.09067,-1.64379 0.59986,-0.67119 2.29654,-2.5978 3.77037,-4.28134 1.47384,-1.68355 3.6022,-3.59681 4.72967,-4.25169 1.12747,-0.65489 3.21878,-2.29393 4.64735,-3.64231 1.42856,-1.34839 3.67967,-3.1535 5.00246,-4.01137 1.32279,-0.85786 3.0791,-2.22139 3.90291,-3.03007 1.87534,-1.84087 4.10021,-2.45643 7.58852,-2.09953 5.35165,0.54755 9.91768,2.63743 15.48336,7.08675 1.57947,1.26266 3.10455,2.29574 3.38908,2.29574 0.62622,0 3.00398,2.27535 4.56966,4.37285 0.62835,0.84177 1.37528,1.72727 1.65986,1.96778 0.65825,0.55631 2.76222,4.55166 2.76222,5.24536 0,0.28798 0.31864,1.16234 0.70809,1.94301 0.5109,1.02412 0.62104,1.92571 0.39549,3.2375 -0.17193,0.99995 -0.34299,2.35923 -0.38013,3.02063 -0.0371,0.66139 -0.2643,1.16514 -0.50481,1.11945 -1.32611,-0.25195 -3.40489,-1.79353 -6.16666,-4.57307 -1.70812,-1.71911 -3.71315,-3.4398 -4.45562,-3.82375 -0.74247,-0.38394 -1.60787,-1.06338 -1.92311,-1.50986 -0.99965,-1.41586 -10.63843,-5.00793 -16.56773,-6.17427 -0.86031,-0.16923 -1.7741,-0.43742 -2.03065,-0.59598 -0.7522,-0.46489 -3.32493,0.83567 -4.31522,2.18142 -0.50242,0.68277 -1.75287,3.1108 -2.77875,5.39561 -1.67592,3.73253 -7.20214,11.64974 -10.16063,14.55675 -0.43788,0.43025 -0.79614,0.9686 -0.79614,1.19633 0,0.22772 -0.78083,0.93077 -1.73518,1.56233 -0.95435,0.63156 -1.83956,1.47066 -1.96712,1.86466 -0.12757,0.39401 -0.92097,1.18449 -1.7631,1.75664 -0.84213,0.57214 -1.53115,1.21589 -1.53115,1.43055 0,0.21466 -0.48238,1.12399 -1.07195,2.02073 -0.58957,0.89674 -1.6842,3.10628 -2.4325,4.91008 -0.7483,1.8038 -1.91319,4.46526 -2.58864,5.91436 -1.82832,3.92248 -1.98633,5.07229 -0.88876,6.46762 0.71358,0.90717 1.30238,1.17384 2.59185,1.17384 1.35498,0 2.04761,-0.34923 3.68592,-1.85846 4.97372,-4.58185 6.43376,-5.78155 7.90999,-6.4996 0.86744,-0.42193 2.26764,-1.37339 3.11156,-2.11436 0.84393,-0.74098 3.10713,-2.13798 5.02934,-3.10445 1.92222,-0.96647 4.44811,-2.442 5.6131,-3.27896 2.57859,-1.85253 7.69598,-4.25519 12.18225,-5.71965 4.80148,-1.56736 7.68141,-1.20071 13.21,1.68184 2.28481,1.19128 4.50623,2.54251 4.93649,3.00275 0.43025,0.46023 1.06524,0.83679 1.41109,0.83679 0.34585,0 0.97672,0.54114 1.40193,1.20253 0.42522,0.6614 1.23798,1.57779 1.80614,2.03642 1.60249,1.29361 2.55617,2.36705 5.76144,6.48503 3.89633,5.00583 4.37562,6.48913 5.93633,18.37155 0.35529,2.70496 -0.37347,2.72513 -1.55983,0.0432 -1.3003,-2.93956 -5.32762,-7.30807 -9.05776,-9.82515 -4.407,-2.97379 -13.18848,-7.38143 -14.7063,-7.38143 -1.50694,0 -4.69845,1.77589 -7.1236,3.96387 -0.98584,0.88943 -2.51475,1.95991 -3.39757,2.37883 -0.88281,0.41893 -2.00819,1.32775 -2.50085,2.01962 -0.55587,0.78066 -1.28943,1.25794 -1.93336,1.25794 -0.57069,0 -1.15127,0.18388 -1.29017,0.40862 -0.55075,0.89114 -7.23937,3.08966 -9.39976,3.08966 -1.20728,0 -4.08845,0.49195 -6.4026,1.09321 -2.31415,0.60127 -4.71496,1.09321 -5.33515,1.09321 -1.47487,0 -3.88142,1.66773 -4.47744,3.10284 -0.79727,1.9197 0.5279,4.01971 3.24797,5.14712 1.2381,0.51316 2.58003,0.93302 2.98207,0.93302 0.40204,0 0.8403,0.17687 0.97391,0.39305 0.1336,0.21617 1.71559,0.72069 3.51553,1.12113 1.79994,0.40045 3.38647,0.91231 3.52562,1.13745 0.13915,0.22515 0.69572,0.40936 1.23682,0.40936 0.54111,0 1.3658,0.28891 1.83265,0.64202 0.46686,0.35311 1.24516,0.64828 1.72957,0.65593 0.48441,0.008 1.96025,0.4222 3.27964,0.92123 1.31939,0.49903 2.89083,1.06608 3.4921,1.26011 1.14349,0.36901 2.48028,0.91289 5.55637,2.26065 1.0117,0.44327 3.1809,1.94043 4.82045,3.32702 3.57647,3.02469 5.60657,4.48886 6.22387,4.48886 1.26208,0 3.69773,1.90636 5.50162,4.30607 1.38674,1.84478 2.33482,3.74309 3.03442,6.07574 0.84959,2.83275 1.80901,8.00892 1.64481,8.87383 -0.0244,0.12857 -0.2698,2.68401 -0.54531,5.67875 -0.27551,2.99473 -0.70729,5.69363 -0.95951,5.99754 -0.97918,1.17983 -1.54247,0.54617 -1.77282,-1.99426 -0.40226,-4.43613 -3.37229,-10.40179 -7.70599,-15.47839 -1.05166,-1.23194 -2.17766,-2.87543 -2.50221,-3.65219 -0.71767,-1.71764 -3.03665,-3.23239 -5.03891,-3.29141 -0.81339,-0.024 -1.97082,-0.18351 -2.57209,-0.35452 -0.60635,-0.17246 -1.96111,-0.0529 -3.04201,0.2685 -2.79039,0.82967 -12.40648,0.38755 -14.3113,-0.65798 -0.52533,-0.28835 -1.50922,-0.52661 -2.18643,-0.52948 -0.6772,-0.003 -2.31721,-0.64239 -3.64446,-1.42117 -1.32725,-0.77878 -3.09825,-1.80952 -3.93556,-2.29053 -0.83731,-0.48102 -2.84554,-2.25202 -4.46274,-3.93556 -2.92736,-3.04747 -2.94567,-3.05805 -4.14346,-2.39433 -0.66171,0.36667 -1.43119,1.15378 -1.70997,1.74914 -0.27877,0.59536 -1.04343,2.26314 -1.69924,3.70618 -0.79131,1.74121 -2.06863,3.45853 -3.79752,5.10569 -2.29723,2.18862 -2.58867,2.65379 -2.4657,3.93556 0.11788,1.2288 0.37848,1.53159 1.68527,1.95811 0.85021,0.27748 4.19544,0.61728 7.43384,0.75509 9.34378,0.39762 10.84203,0.7307 13.82677,3.07384 1.40583,1.10364 2.87633,2.00674 3.26777,2.00689 1.06754,4.1e-4 1.69225,0.99565 2.102,3.34875 0.2028,1.16467 0.88704,3.39624 1.52054,4.95905 0.95289,2.35072 1.188,3.74632 1.36129,8.08066 0.1232,3.08126 0.0185,5.87333 -0.25409,6.77879 -0.69727,2.31581 -2.25549,5.81361 -2.97615,6.68071 -0.35118,0.42253 -0.85439,1.20125 -1.11823,1.73046 -0.42908,0.86066 -3.55047,3.35331 -4.2452,3.39009 -0.15093,0.008 -0.49004,-0.2453 -0.7536,-0.56285 z m -122.30013,4.73618 c -1.21018,-0.32657 -3.72422,-1.19912 -5.58676,-1.939 -1.86253,-0.73988 -3.66588,-1.34524 -4.00744,-1.34524 -1.11726,0 -7.05143,-3.31146 -10.78584,-6.01886 -4.25919,-3.08786 -8.11654,-6.79534 -13.22049,-12.70684 -7.66137,-8.87354 -14.10952,-14.81828 -20.32719,-18.74025 -3.91062,-2.46674 -4.87314,-3.65473 -4.87314,-6.0147 0,-1.03942 -0.25079,-2.09799 -0.55732,-2.35239 -0.66984,-0.55592 -3.62581,-1.54616 -6.76095,-2.2649 -1.51782,-0.34797 -3.25637,-1.24762 -5.15809,-2.66918 -1.57771,-1.17937 -3.0431,-2.1443 -3.2564,-2.1443 -0.21331,0 -0.51803,-0.41023 -0.67717,-0.91163 -0.22005,-0.69333 -0.53205,-0.85071 -1.30294,-0.65723 -0.86648,0.21748 -1.15337,-0.0343 -1.97653,-1.73475 -0.52962,-1.09403 -1.48158,-2.31876 -2.11548,-2.72162 -0.63391,-0.40287 -1.29258,-0.93381 -1.46372,-1.17987 -0.17113,-0.24606 -0.56469,-0.81982 -0.87456,-1.27502 -0.30988,-0.4552 -1.00616,-1.32024 -1.5473,-1.92232 -0.54114,-0.60207 -0.98389,-1.25587 -0.98389,-1.45289 0,-0.19701 -0.59644,-1.03751 -1.32541,-1.86777 -1.51618,-1.72684 -3.92201,-6.04872 -3.92201,-7.04559 0,-0.36857 -0.17956,-1.01181 -0.39902,-1.42944 -0.38505,-0.73271 -1.48493,-8.27963 -1.43179,-9.82436 0.0143,-0.41615 -0.16893,-0.87712 -0.4072,-1.02438 -0.26749,-0.16532 -0.17492,-0.66196 0.24199,-1.29823 0.71867,-1.09683 1.15867,-4.89586 1.18808,-10.25793 0.01,-1.8038 0.18865,-3.48805 0.39725,-3.74279 0.65346,-0.79799 1.69816,-7.78503 1.24556,-8.33038 -0.42724,-0.51478 -0.10284,-1.91993 0.44325,-1.91993 0.48444,0 2.22016,-3.3037 2.22016,-4.22577 0,-0.45487 0.26782,-1.2152 0.59515,-1.6896 0.32733,-0.4744 1.51388,-3.22388 2.63678,-6.10996 2.05658,-5.28583 4.14002,-9.87167 4.66869,-10.27618 0.15717,-0.12026 0.60926,-0.85012 1.00467,-1.62191 0.3954,-0.7718 1.20997,-1.89433 1.81015,-2.49451 0.60018,-0.60019 1.09124,-1.3124 1.09124,-1.58269 0,-0.2703 1.31289,-1.95258 2.91754,-3.7384 4.64997,-5.17498 14.09952,-10.46874 17.85348,-10.00174 0.96202,0.11968 2.50694,0.29228 3.43315,0.38355 0.92621,0.0913 1.89492,0.37685 2.15269,0.63462 0.77077,0.77076 -0.31791,2.50681 -2.62073,4.17915 -1.1498,0.835 -2.54342,2.19422 -3.09694,3.0205 -0.55351,0.82627 -1.78337,2.22121 -2.73302,3.09986 -0.94965,0.87865 -1.72664,1.85048 -1.72664,2.15962 0,0.30915 -0.4753,1.0086 -1.05621,1.55434 -0.58092,0.54574 -1.17192,1.45325 -1.31333,2.01668 -0.25155,1.00225 -2.50628,6.23708 -3.33449,7.74173 -0.22987,0.41762 -0.41795,1.22983 -0.41795,1.80492 0,0.57507 -0.29438,1.28991 -0.65417,1.58851 -0.35979,0.2986 -1.2771,1.80825 -2.03846,3.3548 -1.37071,2.7843 -1.37697,2.82723 -0.63893,4.37493 0.6933,1.45387 0.85348,1.5455 2.2933,1.31185 1.05582,-0.17134 2.451,-1.05744 4.38844,-2.7872 1.56228,-1.3948 3.95652,-3.43992 5.32054,-4.54472 1.36402,-1.10479 3.45923,-3.26935 4.65604,-4.81013 1.1968,-1.54078 2.33969,-2.87081 2.53976,-2.95563 0.20006,-0.0848 0.8177,-1.1671 1.37253,-2.40507 0.55483,-1.23796 1.5273,-2.7279 2.16105,-3.31096 0.63375,-0.58306 1.15227,-1.29444 1.15227,-1.58085 0,-0.2864 0.41514,-1.04849 0.92253,-1.69353 1.06472,-1.35358 3.0085,-5.06566 3.0112,-5.75056 0.003,-0.76683 2.51711,-2.93347 3.03354,-2.6143 1.22176,0.75509 2.86829,5.27782 3.38318,9.29293 0.45324,3.53445 0.16177,10.20381 -0.55826,12.77392 -1.40882,5.02873 -2.99242,9.35205 -4.17704,11.40352 -0.20832,0.36076 -0.74295,1.44583 -1.18807,2.41126 -0.44512,0.96543 -1.13137,2.02261 -1.52499,2.34929 -0.39362,0.32667 -0.71567,0.86294 -0.71567,1.19171 0,0.32876 -0.96135,1.6593 -2.13633,2.95676 -1.17498,1.29745 -2.30645,2.64683 -2.51438,2.99862 -0.20793,0.35179 -1.36195,1.37883 -2.56448,2.28231 -1.20254,0.90348 -2.7648,2.22689 -3.4717,2.9409 -0.7069,0.71402 -1.88757,1.60416 -2.62371,1.97809 -2.49791,1.26885 -7.27139,5.15575 -7.51744,6.12123 -0.13468,0.52848 -0.73012,1.27882 -1.3232,1.66742 -0.59308,0.3886 -1.0171,0.98265 -0.94226,1.32011 0.0748,0.33745 1.90603,1.95182 4.06933,3.58749 2.2035,1.66606 4.20019,3.54756 4.54023,4.27829 1.07822,2.31704 1.87087,2.93821 3.42711,2.68567 1.24416,-0.2019 1.40392,-0.11706 1.31693,0.6994 -0.0822,0.7719 0.22563,0.99536 1.81897,1.32019 3.10581,0.63317 4.60749,0.11637 6.62942,-2.28152 0.9854,-1.16861 2.12185,-2.68566 2.52546,-3.37121 1.98908,-3.37857 2.58858,-4.12388 3.8751,-4.81759 0.76567,-0.41287 1.6318,-1.19849 1.92472,-1.74582 0.29293,-0.54733 1.28966,-1.49615 2.21496,-2.10849 0.9253,-0.61234 2.32213,-1.79307 3.10405,-2.62385 0.78193,-0.83077 2.39893,-1.88468 3.59334,-2.34202 2.91703,-1.11692 3.17313,-1.63366 2.25554,-4.55093 -0.70175,-2.23104 -0.7041,-2.51465 -0.0347,-4.18766 0.79242,-1.98044 1.7356,-2.48406 3.89389,-2.07916 1.88004,0.3527 2.69922,1.34806 3.08619,3.7499 0.38625,2.39747 0.92667,3.49828 1.7174,3.49828 0.6706,0 4.38569,-2.32974 7.00692,-4.39404 1.75352,-1.38097 1.93803,-1.40281 5.15548,-0.61041 1.54969,0.38166 3.26537,-0.71301 4.04611,-2.5816 1.35653,-3.24662 5.47126,-4.79218 9.81969,-3.68843 1.41118,0.35819 2.0117,0.25266 4.05032,-0.71176 1.3164,-0.62276 3.0645,-1.1323 3.88465,-1.1323 3.93665,0 6.51419,-1.76731 6.51419,-4.46649 0,-1.98333 1.32691,-4.80844 2.71515,-5.7808 1.70431,-1.19374 3.58481,-0.87697 5.11067,0.86089 0.75675,0.86188 1.35716,2.0375 1.35716,2.65734 0,0.65661 0.54696,1.6586 1.33623,2.44787 1.20706,1.20705 1.5347,1.31414 3.38896,1.10762 2.22012,-0.24726 7.35724,0.2139 10.68909,0.95958 1.1424,0.25567 2.9134,0.64679 3.93556,0.86916 3.57045,0.77674 5.1673,1.26198 5.75322,1.74826 0.89353,0.74157 2.72284,-0.13687 3.52819,-1.69423 0.42278,-0.81757 1.54118,-1.76125 2.90848,-2.45411 1.88525,-0.95533 2.19169,-1.28202 2.02423,-2.15798 -0.15299,-0.80034 0.0315,-1.08968 0.82143,-1.28793 1.58045,-0.39667 2.41264,-2.38452 1.81435,-4.33392 -0.36867,-1.20123 -0.3586,-1.9977 0.0409,-3.23361 2.16289,-6.69179 2.69772,-9.07892 2.43163,-10.85332 -0.42387,-2.82646 -1.46768,-3.68639 -4.47467,-3.68639 -1.37513,0 -3.18766,0.20429 -4.02785,0.45398 -1.44496,0.42941 -7.76718,0.95169 -11.58515,0.95705 -3.46208,0.005 -9.92648,-1.27172 -12.68125,-2.50427 -2.25672,-1.0097 -4.2021,-1.84659 -5.02877,-2.16334 -0.36076,-0.13823 -1.24627,-0.63674 -1.96778,-1.10779 -0.72152,-0.47105 -1.90219,-1.18723 -2.62371,-1.59152 -3.10589,-1.74031 -9.40162,-7.56931 -9.40162,-8.70464 0,-0.16974 -0.66048,-1.22048 -1.46773,-2.33498 -1.50252,-2.0744 -3.3424,-6.85479 -3.3424,-8.68427 0,-1.60365 1.06602,-1.64075 4.95626,-0.17248 1.98815,0.75038 3.8578,1.36432 4.15479,1.36432 0.29699,0 0.97581,0.27256 1.50848,0.60568 0.53268,0.33312 2.04587,0.73932 3.36264,0.90268 1.31678,0.16335 2.66097,0.51846 2.9871,0.78912 0.56771,0.47116 1.63573,0.68689 7.93064,1.60193 3.84845,0.55942 15.20317,0.0912 16.75144,-0.69081 0.94623,-0.4779 1.20254,-0.91492 1.20254,-2.05039 0,-1.52304 -1.45833,-3.34463 -2.67764,-3.34463 -0.35942,0 -1.03546,-0.28891 -1.50231,-0.64202 -0.46685,-0.35311 -1.36343,-0.64828 -1.99239,-0.65593 -0.62896,-0.008 -1.64393,-0.40749 -2.25549,-0.88855 -1.54151,-1.21256 -9.34491,-4.84765 -11.46862,-5.34249 -2.54758,-0.5936 -7.33894,-1.1914 -11.55477,-1.44166 -2.026,-0.12026 -3.76378,-0.2988 -3.86173,-0.39674 -0.25433,-0.25434 3.61172,-5.01649 5.43824,-6.69875 2.60637,-2.40051 12.23891,-4.75123 15.15226,-3.69775 0.79605,0.28785 2.16848,0.52337 3.04986,0.52337 1.59929,0 3.62894,0.40026 8.17431,1.61205 2.65981,0.7091 2.92259,0.8129 6.99655,2.76372 3.4658,1.6596 4.73374,2.36948 5.37168,3.00742 0.26837,0.26836 0.74954,0.48793 1.06927,0.48793 0.31973,0 1.54779,0.73792 2.72901,1.63982 4.33759,3.31188 6.01127,4.48216 6.41015,4.48216 0.22451,0 1.43975,0.9839 2.70053,2.18643 1.26079,1.20253 2.46759,2.18642 2.68178,2.18642 0.55164,0 3.31052,2.74455 3.65113,3.63218 0.15633,0.40737 0.58556,0.74067 0.95388,0.74067 0.3683,0 0.66964,0.18582 0.66964,0.41294 0,0.22713 0.68779,1.16182 1.52841,2.07711 0.84062,0.91528 1.52935,1.82989 1.5305,2.03246 10e-4,0.20257 0.39564,0.86864 0.87665,1.48015 0.48102,0.61151 0.87457,1.44455 0.87457,1.8512 0,0.40666 0.4955,1.20488 1.10112,1.77382 0.60561,0.56894 1.36926,1.93149 1.697,3.02789 0.32775,1.0964 1.13299,3.27252 1.78943,4.83581 1.9806,4.71671 2.8139,9.19512 2.8071,15.08631 -0.007,6.28772 -1.24664,9.82599 -9.23565,26.36641 -3.10091,6.42009 -3.94602,9.22214 -5.36841,17.79933 -0.39884,2.40507 -1.08931,6.24224 -1.53438,8.52705 -1.5919,8.17225 -3.06289,20.14862 -3.06289,24.9372 0,1.77781 -0.31219,5.78707 -0.69376,8.90947 -0.63301,5.17993 -0.86776,6.02394 -2.68067,9.63789 -2.05364,4.09386 -3.97162,7.13357 -5.33176,8.45005 -0.43083,0.417 -2.00922,2.12371 -3.50753,3.79271 -3.08982,3.44177 -8.33681,7.00268 -9.687,6.57414 -0.46439,-0.14739 -1.38408,0.0142 -2.04374,0.35901 -0.65967,0.34484 -2.67523,1.42128 -4.47903,2.39209 -1.8038,0.97081 -4.17955,2.06568 -5.27944,2.43304 -2.52928,0.84477 -8.80271,1.77599 -11.19539,1.66183 -1.46496,-0.0699 -2.11311,0.1646 -3.27963,1.18659 -1.40763,1.23322 -5.73606,3.59677 -9.32497,5.09192 -0.96202,0.40078 -3.99015,1.28722 -6.72917,1.96988 -2.73902,0.68265 -5.10035,1.41225 -5.24741,1.62133 -0.14706,0.20908 -0.83506,0.81611 -1.52889,1.34896 -1.07334,0.82431 -1.79081,0.96452 -4.81013,0.94004 -1.95174,-0.0158 -4.53877,-0.29598 -5.74896,-0.62255 z"
           inkscape:connector-curvature="0" />
      </g>
    </g>
  </g>
</svg>
