<?xml version="1.0" encoding="UTF-8" standalone="no"?>
<!-- Created with Inkscape (http://www.inkscape.org/) -->

<svg
   xmlns:dc="http://purl.org/dc/elements/1.1/"
   xmlns:cc="http://creativecommons.org/ns#"
   xmlns:rdf="http://www.w3.org/1999/02/22-rdf-syntax-ns#"
   xmlns:svg="http://www.w3.org/2000/svg"
   xmlns="http://www.w3.org/2000/svg"
   xmlns:sodipodi="http://sodipodi.sourceforge.net/DTD/sodipodi-0.dtd"
   xmlns:inkscape="http://www.inkscape.org/namespaces/inkscape"
   width="16"
   height="16"
   id="svg4022"
   version="1.1"
   inkscape:version="0.48.1 "
   sodipodi:docname="crab_sm.svg">
  <defs
     id="defs4024" />
  <sodipodi:namedview
     id="base"
     pagecolor="#ffffff"
     bordercolor="#666666"
     borderopacity="1.0"
     inkscape:pageopacity="0.0"
     inkscape:pageshadow="2"
     inkscape:zoom="50.5625"
     inkscape:cx="5.6365884"
     inkscape:cy="8"
     inkscape:document-units="px"
     inkscape:current-layer="layer1"
     showgrid="false"
     inkscape:window-width="1920"
     inkscape:window-height="1028"
     inkscape:window-x="-8"
     inkscape:window-y="-8"
     inkscape:window-maximized="1" />
  <metadata
     id="metadata4027">
    <rdf:RDF>
      <cc:Work
         rdf:about="">
        <dc:format>image/svg+xml</dc:format>
        <dc:type
           rdf:resource="http://purl.org/dc/dcmitype/StillImage" />
        <dc:title></dc:title>
      </cc:Work>
    </rdf:RDF>
  </metadata>
  <g
     inkscape:label="Layer 1"
     inkscape:groupmode="layer"
     id="layer1"
     transform="translate(0,-1036.3622)">
    <path
       style="fill:#a9a7a8;fill-opacity:1;stroke:none"
       d="m 2.1487878,1039.5272 c 0.46234,-0.4924 1.0904,-0.9434 1.88418,-1.1789 0.0656,-0.015 0.11305,-0.066 0.0676,-0.1739 -0.1014,-0.1057 -0.63728,-0.3144 -0.82131,-0.2802 -1.88418,0.3609 -2.69117997,1.9648 -2.74414997,2.4997 0.42133,2.5088 1.79554997,3.6338 2.18372997,3.549 -0.0364,0.094 -0.0479,0.138 -0.01,0.2319 0.35473,0.5121 0.75918,0.958 1.18848,1.3624 -0.75428,0.2305 -1.12625,0.5361 -1.32651,0.8738 -0.35779,0.9801 -0.39856,2.0605 -0.31611,2.8463 0.22628,1.3453 0.8503,1.9282 1.27545,1.9228 0.0227,0 0.042,-0.084 0.0331,-0.097 -0.55831,-0.575 -0.53017,-1.6968 -0.54988,-2.7441 0.0781,-0.6089 0.16879,-0.9812 0.34354,-1.3852 0.39115,-0.5236 0.90969,-0.6755 1.06214,-0.8082 0.029,0.032 0.058,0.065 0.087,0.097 -0.82528,0.4956 -1.2169,1.3955 -1.26306,1.575 -0.0751,0.9655 0.43051,2.8351 1.34036,4.0872 0.72412,0.6163 0.99252,0.4387 1.09187,0.4155 0.0194,-0.014 0.0233,-0.1457 0,-0.1546 -0.64155,-0.046 -1.52006,-3.1109 -1.48803,-3.865 0.0872,-0.9375 0.4042,-1.0985 0.80199,-1.5267 0.087,0.081 0.17392,0.1611 0.26089,0.2416 -0.72519,0.7341 -0.86022,1.4621 -0.87722,1.6433 -0.11235,0.9888 1.16683,3.2511 2.27828,3.5068 1.14643,0.1707 1.4418,-0.056 1.85519,-0.2705 -0.003,-0.048 -0.006,-0.097 -0.01,-0.145 -0.29401,0.075 -0.60045,0.088 -0.95658,0.039 -1.84035,-0.6499 -2.17735,-2.6726 -2.22237,-2.9374 0.0301,-0.6092 0.2404,-0.9202 0.44447,-1.3431 0.0322,0.01 0.0644,0.019 0.0966,0.029 -0.25124,0.3829 -0.27884,0.6974 -0.23811,1.0864 0.14861,0.7937 0.50843,1.5999 0.75022,1.7351 0.78773,0.407 1.93576,0.093 2.25136,0.01 0.0161,-0.025 0.0258,-0.1138 0.01,-0.1643 -0.11824,-0.2153 -0.31724,-0.2816 -0.5411,-0.3478 -0.27162,-0.029 -0.55399,-0.06 -0.82131,-0.029 -0.16426,0.032 -0.32852,0.064 -0.49279,0.097 -0.0591,-0.352 -0.16794,-0.7164 -0.27054,-0.8696 -0.12308,-0.1599 -0.28344,-0.2577 -0.42515,-0.3865 0.1095,-0.2577 0.21901,-0.5154 0.32852,-0.773 2.95271,-0.039 4.5760202,-0.86 4.6090102,-1.4204 0.22868,0.219 0.45736,0.438 0.68604,0.657 -0.22916,0.551 -0.22225,0.9219 -0.20292,1.4107 -1.30704,0.2835 -1.6511902,0.8092 -1.5170102,1.1112 0.1577802,0.075 1.2473902,-0.2671 1.7779002,-0.5217 0.29403,-0.2453 0.43897,-0.5961 0.43481,-0.773 -0.005,-1.34 0.13995,-1.9468 -0.90827,-2.4543 0.0129,-0.029 0.0258,-0.058 0.0386,-0.087 0.57562,0.2832 1.04564,0.9143 1.13051,1.0918 0.32861,2.1898 -0.60385,3.8392 -1.88419,3.923 0,0.045 0,0.09 0,0.1353 2.07341,0.091 2.37635,-1.2713 2.49293,-1.4784 0.50731,-0.9913 0.34372,-2.1939 0.34785,-2.6572 -0.0869,-0.9287 -1.25475,-1.3481 -1.82621,-1.5749 0.0515,-0.1224 0.10306,-0.2448 0.1546,-0.3672 1.33947,0.453 1.55455,0.9991 1.63296,1.2658 0.34006,1.3576 0.31982,3.678 -0.13528,3.9423 0.003,0.051 0.006,0.103 0.01,0.1546 0.8953,-0.1089 1.05431,-1.4282 1.0822,-1.7489 0.16282,-1.4631 -0.0879,-2.7649 -0.32852,-3.179 -0.5461,-0.8118 -1.3141,-0.9176 -1.97115,-1.0436 0.74664,-0.1763 0.93853,-0.03 1.36241,0.1063 1.63422,1.4465 1.62439,3.6797 1.36241,3.8554 0.006,0.055 0.0129,0.1095 0.0193,0.1642 0.0483,-0.01 0.0966,-0.019 0.14494,-0.029 0.57449,-0.3622 0.84639,-2.0357 0.029,-3.5075 -0.77478,-1.7153 -1.70085,-1.5042 -2.65719,-1.3334 0.17393,-0.5346 0.34785,-1.0693 0.52178,-1.604 0.92598,-0.377 0.94421,-1.6922 1.05321,-2.4929 0.15392,-2.0703 -0.31751,-2.2343 -0.86963,-2.5799 -2.47324,-1.1689 -3.2520102,0.073 -3.3045702,0.1546 0.006,0.052 0.0129,0.1031 0.0193,0.1546 1.1684802,-0.1757 1.5905802,0.032 2.1740602,0.2899 -0.7891,0.1997 -1.5782,0.3994 -2.3673102,0.5991 0.0161,0.039 0.0322,0.077 0.0483,0.1159 1.3441902,0.167 2.5169102,0.2634 3.0340202,0.077 0.21182,0.8182 0.1513,1.0413 0.0605,1.6073 -0.11917,0.4026 -0.29885,0.9565 -0.41802,1.3591 -1.51243,-1.169 -2.03642,-1.0973 -3.0243702,-1.4493 0.0932,-0.2472 0.0451,-0.5347 0.0676,-0.802 -0.11188,-0.491 -0.30445,-0.5885 -0.39616,-0.6861 -0.28013,-0.1017 -0.5508,0.1018 -0.53144,0.2996 0.006,0.2544 -0.0174,0.5593 0.0395,0.7936 0.0354,0.055 0.0507,0.079 0.0861,0.134 -0.006,0.048 -0.0129,0.097 -0.0193,0.1449 -0.28521,-0.063 -1.34707,-0.3181 -2.33832,0.4155 0.003,-0.1353 0.006,-0.2706 0.01,-0.4058 -0.1351,-0.503 -0.41142,-0.8446 -0.64738,-0.7827 -0.18418,0.1095 -0.21707,0.1988 -0.28022,0.3285 -0.0167,0.9263 0.0876,0.9447 0.22224,1.2658 -1.27324,0.9589 -1.90096,1.716 -2.36731,2.4833 -0.80241,-0.946 -1.08033,-1.5692 -1.22714,-2.4446 0.14172,-0.016 0.28344,-0.032 0.42515,-0.048 0.5773,-0.117 1.56812,-0.6879 2.36731,-1.1982 0.0402,-0.039 0.0618,-0.1523 0.01,-0.1546 -0.83097,0.1385 -1.66195,0.277 -2.49292,0.4155 z"
       id="path4018"
       inkscape:connector-curvature="0"
       sodipodi:nodetypes="cccccccccccccccccccccccccccccccccccccccccccccccccccccccccccccccccccccccccccccccccccccccccccccccccc"
       inkscape:export-filename="/home/frank/miniSASS/minisass/monitor/static/img/icon_obs_add.png"
       inkscape:export-xdpi="90"
       inkscape:export-ydpi="90" />
  </g>
</svg>
