<svg width="32" height="32" viewBox="0 0 32 32" fill="none" xmlns="http://www.w3.org/2000/svg">
<path d="M28 10.6667C27.7306 10.6667 21.5333 10.7053 16 13.344C10.4666 10.7053 4.26929 10.6667 3.99996 10.6667C3.64634 10.6667 3.3072 10.8071 3.05715 11.0572C2.8071 11.3072 2.66663 11.6464 2.66663 12V25.1773C2.66663 25.3562 2.70263 25.5333 2.7725 25.698C2.84236 25.8627 2.94466 26.0117 3.07329 26.136C3.33329 26.3867 3.71329 26.5427 4.04529 26.5093L4.21463 26.508C5.12529 26.508 9.94263 26.6387 15.436 29.208C15.4573 29.2187 15.4813 29.2147 15.5026 29.2227C15.6613 29.288 15.828 29.3333 16 29.3333C16.172 29.3333 16.3386 29.288 16.4986 29.2227C16.52 29.2147 16.544 29.2187 16.5653 29.208C22.0586 26.6373 26.876 26.508 27.7866 26.508L27.956 26.5093C28.2733 26.5427 28.6666 26.3867 28.928 26.136C29.1866 25.884 29.3333 25.5373 29.3333 25.1773V12C29.3333 11.6464 29.1928 11.3072 28.9428 11.0572C28.6927 10.8071 28.3536 10.6667 28 10.6667ZM5.33329 13.3987C7.31329 13.5467 11.1746 14.0387 14.6666 15.6547V25.9773C10.6666 24.4107 7.21329 23.9853 5.33329 23.876V13.3987ZM26.6666 23.876C24.7866 23.9853 21.3333 24.4107 17.3333 25.9773V15.6547C20.8253 14.0387 24.6866 13.5467 26.6666 13.3987V23.876Z" fill="white"/>
<path d="M16 10.6667C18.2091 10.6667 20 8.87581 20 6.66667C20 4.45753 18.2091 2.66667 16 2.66667C13.7909 2.66667 12 4.45753 12 6.66667C12 8.87581 13.7909 10.6667 16 10.6667Z" fill="white"/>
</svg>
