<svg width="70" height="70" viewBox="0 0 70 70" fill="none" xmlns="http://www.w3.org/2000/svg">
<path d="M35 4.375C28.943 4.375 23.0219 6.17113 17.9857 9.53624C12.9494 12.9014 9.02414 17.6843 6.7062 23.2803C4.38827 28.8763 3.78179 35.034 4.96346 40.9746C6.14514 46.9153 9.06188 52.3722 13.3449 56.6551C17.6278 60.9381 23.0847 63.8549 29.0254 65.0365C34.966 66.2182 41.1237 65.6117 46.7197 63.2938C52.3157 60.9759 57.0986 57.0506 60.4638 52.0143C63.8289 46.9781 65.625 41.057 65.625 35C65.625 26.8777 62.3985 19.0882 56.6552 13.3449C50.9118 7.60155 43.1223 4.375 35 4.375ZM51.2903 36.9578L25.0403 50.0828C24.7067 50.2495 24.3361 50.3281 23.9635 50.3113C23.591 50.2944 23.229 50.1826 22.9118 49.9864C22.5947 49.7902 22.3329 49.5163 22.1515 49.1905C21.97 48.8647 21.8748 48.4979 21.875 48.125V21.875C21.8752 21.5023 21.9706 21.1358 22.1523 20.8103C22.3339 20.4848 22.5957 20.2111 22.9128 20.0152C23.2298 19.8193 23.5917 19.7077 23.9641 19.6909C24.3364 19.6741 24.7069 19.7528 25.0403 19.9194L51.2903 33.0444C51.6532 33.2262 51.9583 33.5055 52.1715 33.8508C52.3847 34.1962 52.4977 34.5941 52.4977 35C52.4977 35.4059 52.3847 35.8038 52.1715 36.1491C51.9583 36.4945 51.6532 36.7738 51.2903 36.9556V36.9578Z" fill="#539987"/>
</svg>
