<svg width="69" height="60" viewBox="0 0 69 60" fill="none" xmlns="http://www.w3.org/2000/svg">
<path d="M36.0963 14.7737L36.1887 14.8013L36.1927 14.7967C36.6312 14.8762 37.0662 14.6136 37.195 14.1787C38.3688 10.2346 42.0669 7.47921 46.1871 7.47921C46.6749 7.47921 47.0705 7.08358 47.0705 6.5958C47.0705 6.10801 46.6749 5.7124 46.1871 5.7124C41.1234 5.7124 36.8682 9.08384 35.5019 13.6752C35.3625 14.1429 35.6289 14.6343 36.0963 14.7737Z" fill="#539987" stroke="#F9FFF9" stroke-width="0.3"/>
<path d="M56.4501 42.5185H52.0515C51.6467 42.5185 51.3184 42.1902 51.3184 41.7854C51.3184 41.3806 51.6467 41.0523 52.0515 41.0523H56.4501C62.5134 41.0523 67.4468 36.1189 67.4468 30.0556C67.4468 23.9923 62.5134 19.059 56.4501 19.059H56.3443C56.1317 19.059 55.9296 18.9668 55.7903 18.806C55.651 18.6453 55.5882 18.4321 55.6186 18.2216C55.684 17.765 55.717 17.3063 55.717 16.8596C55.717 11.6048 51.4413 7.32912 46.1865 7.32912C44.1422 7.32912 42.1926 7.96797 40.5483 9.17707C40.187 9.44257 39.6738 9.32475 39.4648 8.92728C34.808 0.059812 22.645 -1.131 16.339 6.58293C13.6826 9.83269 12.6388 14.0601 13.4752 18.1803C13.5674 18.6354 13.2191 19.0595 12.7567 19.0595H12.463C6.39966 19.0595 1.46629 23.9929 1.46629 30.0562C1.46629 36.1195 6.39966 41.0529 12.463 41.0529H16.8616C17.2664 41.0529 17.5947 41.3812 17.5947 41.786C17.5947 42.1908 17.2664 42.5191 16.8616 42.5191H12.463C5.59104 42.5191 0 36.9281 0 30.0561C0 23.377 5.2815 17.9079 11.8875 17.6063C11.2669 13.3317 12.4535 9.01994 15.2037 5.65503C21.9551 -2.60451 34.8937 -1.67872 40.3632 7.53126C42.108 6.43735 44.1046 5.86348 46.1863 5.86348C52.5528 5.86348 57.5977 11.2823 57.1562 17.6131C63.7014 17.9802 68.9127 23.4204 68.9127 30.0556C68.9127 36.9281 63.3217 42.5186 56.4498 42.5186L56.4501 42.5185Z" fill="#539987"/>
<path d="M15.8799 41.3714C15.8799 51.5606 24.1692 59.8497 34.3582 59.8497C44.5474 59.8497 52.8365 51.5604 52.8365 41.3714C52.8365 31.1823 44.5474 22.8931 34.3582 22.8931C24.1691 22.8931 15.8799 31.1824 15.8799 41.3714ZM17.647 41.3714C17.647 32.1572 25.1438 24.6603 34.3582 24.6603C43.5725 24.6603 51.0694 32.157 51.0694 41.3714C51.0694 50.5857 43.5725 58.0826 34.3582 58.0826C25.144 58.0826 17.647 50.5858 17.647 41.3714Z" fill="#539987" stroke="#F9FFF9" stroke-width="0.3"/>
<path d="M34.0063 48.7496C34.0063 49.1289 34.314 49.4366 34.6933 49.4366C35.0726 49.4366 35.3803 49.1294 35.3803 48.7496V34.7947C35.3803 34.4154 35.0727 34.1077 34.6933 34.1077C34.3139 34.1077 34.0063 34.4154 34.0063 34.7947V48.7496Z" fill="#539987" stroke="#539987" stroke-width="0.3"/>
<path d="M34.6932 35.7676L30.8854 39.5755L34.6932 35.7676ZM34.6932 35.7676L38.5012 39.5756C38.6351 39.7096 38.8115 39.7768 38.9869 39.7768L34.6932 35.7676ZM29.9137 39.5756C30.182 39.8439 30.6172 39.8441 30.8853 39.5756L38.987 39.7768C39.1621 39.7768 39.3386 39.7102 39.4728 39.5755C39.7411 39.3071 39.7411 38.8724 39.4727 38.604L35.179 34.3103C34.9107 34.042 34.4755 34.0418 34.2074 34.3103C34.2074 34.3103 34.2073 34.3103 34.2073 34.3104L29.9137 38.604C29.6453 38.8724 29.6453 39.3072 29.9137 39.5756Z" fill="#539987" stroke="#539987" stroke-width="0.3"/>
</svg>
