<svg width="72" height="73" viewBox="0 0 72 73" fill="none" xmlns="http://www.w3.org/2000/svg">
<g clip-path="url(#clip0_165_247)">
<path d="M2.50383 71.7739C2.75946 70.9074 3.07468 69.4647 2.82702 68.0679C2.73221 67.532 2.15666 67.2756 1.65293 67.524L1.27795 67.71C0.891798 67.9031 0.66963 68.3389 0.762621 68.7444C0.987648 69.7292 0.918273 70.8183 0.826733 71.5295C0.768163 71.9777 1.04701 72.3757 1.47625 72.444C1.91967 72.519 2.37206 72.2261 2.50383 71.7739ZM-15.0595 95.0063L-17.5407 95.4963C-18.0205 95.8439 -18.1494 96.506 -17.8223 96.9232L-17.2516 97.6463C-16.9275 98.0553 -16.2962 98.0628 -15.8707 97.6627L-13.9575 96.4464C-13.5876 96.0934 -13.4994 95.5475 -13.7499 95.1685C-14.0289 94.7535 -14.6104 94.6826 -15.0595 95.0063Z" fill="#0e4981"/>
<path d="M-3.52313 107.213C-3.52313 107.213 -1.98364 107.288 -0.818692 106.771C0.405122 106.231 0.803652 105.712 0.693619 105.499C0.511339 105.157 -0.989128 105.659 -2.10216 105.656C-3.21519 105.652 -4.03128 105.524 -4.03128 105.524C-4.23948 105.546 -4.42899 105.696 -4.49658 105.901C-4.74293 106.624 -4.24622 107.289 -3.52313 107.213ZM4.07721 72.8647L4.20267 70.3387C4.47713 69.8136 5.11364 69.5902 5.57377 69.8534L6.37193 70.3134C6.82358 70.5748 6.92242 71.1984 6.58815 71.6774L5.66175 73.7465C5.36606 74.1636 4.83865 74.3299 4.4274 74.137C4.21138 74.0326 4.05399 73.8413 3.98861 73.6037C3.92323 73.3662 3.95501 73.1011 4.07721 72.8647Z" fill="#0e4981"/>
<path d="M5.16464 69.0009L6.21921 67.2331C6.70806 66.7251 7.47694 66.7002 7.87811 67.1814L8.57152 68.0106C8.96691 68.4812 8.84225 69.2423 8.30445 69.6743L6.94885 70.868C6.723 71.0494 6.44934 71.1487 6.17844 71.1474C5.90754 71.1461 5.6577 71.0444 5.47511 70.8611C5.06078 70.4469 4.70353 69.4767 5.16464 69.0009Z" fill="#0e4981"/>
<path d="M13.0022 67.7034L12.1442 68.2061C11.5342 68.5141 10.9816 68.6867 10.7814 68.6818L8.50028 69.1709C8.20152 69.165 7.90366 68.8178 7.83205 68.5318L7.58437 67.5386C7.45906 67.0379 7.89973 66.5107 8.41572 66.5363L13.0005 66.564C13.6206 66.5843 13.4861 67.2416 13.0022 67.7034ZM5.79757 76.2181L7.02942 73.4208C7.30388 72.8957 7.94038 72.6723 8.40051 72.9355L9.19867 73.3955C9.65032 73.6569 9.74916 74.2804 9.41489 74.7594L7.38487 77.0967C7.08918 77.5138 6.56177 77.6801 6.15053 77.4872C5.69674 77.2744 5.53951 76.7069 5.79757 76.2181Z" fill="#0e4981"/>
<path d="M8.37536 72.342L9.9409 69.6313C10.4297 69.1234 11.1986 69.0985 11.5998 69.5797L12.2932 70.4088C12.6886 70.8795 12.5639 71.6405 12.0261 72.0725L9.76718 73.9541C9.54134 74.1355 9.26767 74.2347 8.99677 74.2335C8.72587 74.2322 8.47603 74.1305 8.29344 73.9471C8.19507 73.8486 8.11915 73.7289 8.07003 73.5948C8.0209 73.4608 7.99953 73.3151 8.00714 73.166C8.01475 73.017 8.05118 72.8675 8.11436 72.7261C8.17755 72.5847 8.26623 72.4542 8.37536 72.342Z" fill="#0e4981"/>
<path d="M18.0185 70.3909L17.1604 70.8937C16.5505 71.2017 15.9978 71.3742 15.7976 71.3694L12.2248 71.566C11.926 71.56 11.6281 71.2129 11.5565 70.9268L11.3088 69.9336C11.1835 69.433 11.6242 68.9058 12.1402 68.9314L18.0195 69.2483C18.6369 69.2776 18.5023 69.9291 18.0185 70.3909ZM7.42061 80.0703L9.85878 76.4883C10.1815 75.9881 10.8302 75.8313 11.2573 76.15L11.9947 76.6976C12.4132 77.0089 12.4446 77.647 12.0648 78.0923L8.89208 81.1291C8.56216 81.5165 8.02557 81.6301 7.63896 81.3857C7.21544 81.1205 7.11715 80.5367 7.42061 80.0703Z" fill="#0e4981"/>
<path d="M19.7637 74.7243L18.8706 75.1351C18.24 75.3804 17.7309 75.4392 17.5333 75.4142L14.9794 75.7404C14.6858 75.7053 14.4297 75.3214 14.3889 75.0227L14.2507 73.9952C14.1814 73.4757 14.665 72.9912 15.1705 73.075L19.8857 73.5686C20.4873 73.6681 20.2877 74.314 19.7637 74.7243ZM8.29904 83.6657L12.0594 79.7299C12.5982 79.1642 13.4772 79.3635 13.5971 80.0837L13.8488 81.5623C13.8799 81.7487 13.8522 81.9471 13.7695 82.1304C13.6869 82.3137 13.5532 82.4731 13.3868 82.5868L9.46816 85.2703C9.35199 85.3503 9.22297 85.4055 9.09002 85.4321C8.95707 85.4588 8.82335 85.4563 8.69808 85.4247C8.57281 85.3932 8.45898 85.3334 8.36444 85.2495C8.26991 85.1656 8.19692 85.0595 8.15051 84.9386L8.05996 84.709C7.92562 84.3687 8.02134 83.9582 8.29904 83.6657Z" fill="#0e4981"/>
<path d="M-1.9288 64.8544L-2.62985 66.3111C-2.92286 66.9211 -2.69924 67.602 -2.1297 67.8308L0.355292 68.8295C0.587262 68.9227 0.85268 68.9295 1.1087 68.8487C1.36473 68.7679 1.59642 68.6043 1.76639 68.3844L2.23963 67.7676C2.43411 67.5145 2.53303 67.2056 2.51573 66.9055C2.49842 66.6054 2.36624 66.3373 2.14678 66.1572L-0.1104 64.3184C-0.674696 63.8587 -1.57827 64.126 -1.9288 64.8544ZM-16.5191 93.784C-17.3394 94.1624 -18.7213 94.6832 -20.1392 94.6405C-20.6832 94.6243 -21.0203 94.0919 -20.8474 93.5575L-20.7177 93.1596C-20.5825 92.7495 -20.1835 92.4666 -19.7689 92.4999C-18.7618 92.5799 -17.6943 92.3535 -17.0038 92.16C-16.5688 92.0371 -16.1346 92.2554 -16.0049 92.6702C-15.8693 93.1013 -16.0935 93.5913 -16.5191 93.784Z" fill="#0e4981"/>
<path d="M-0.178031 62.2926C-1.16837 61.1844 -2.68995 59.3593 -5.70113 59.4248C-10.7685 59.5405 -13.5439 62.3769 -14.3713 63.4611C-15.1987 64.5452 -14.5014 64.4417 -13.5199 64.3034C-13.0671 64.2407 -11.7778 63.9538 -10.6023 63.9945C-9.39863 64.0315 -8.31715 64.4001 -8.38768 64.7987C-8.5079 65.4739 -10.2306 66.0029 -10.9459 66.0292C-11.7204 66.0549 -11.9099 66.0032 -12.8927 65.8432C-13.8557 65.6835 -14.2439 65.533 -14.2058 65.8349C-14.1678 66.1368 -13.8155 66.7553 -13.0819 67.2324C-12.4734 67.6237 -11.62 67.8064 -10.7747 68.2119C-9.32512 68.9098 -9.81774 68.9437 -7.97747 69.7775C-6.88862 70.2702 -6.05922 70.3424 -4.31823 69.9134C-2.41713 69.4489 -1.39348 68.0916 -0.895684 67.6194C-0.125422 66.8838 0.240659 65.6532 0.578299 64.4036C0.661341 64.0942 0.245638 62.7708 -0.178031 62.2926ZM-26.6744 92.9495C-27.9143 92.1301 -29.9405 90.8889 -30.3118 87.8999C-30.9369 82.87 -28.5322 79.713 -27.5737 78.7366C-26.618 77.7634 -26.6223 78.4659 -26.6169 79.457C-26.6134 79.9141 -26.7106 81.2314 -26.5001 82.3886C-26.2892 83.5742 -25.7678 84.5909 -25.3836 84.4634C-24.7329 84.2467 -24.459 82.4655 -24.5365 81.7539C-24.6233 80.9839 -24.7019 80.8039 -25.0025 79.8546C-25.3 78.9249 -25.5051 78.5626 -25.2009 78.5565C-24.8967 78.5504 -24.2338 78.8095 -23.6554 79.4663C-23.1801 80.0116 -22.8757 80.8296 -22.3521 81.6073C-21.4516 82.9405 -21.4894 82.4481 -20.3979 84.1482C-19.7527 85.1543 -19.5611 85.9645 -19.7335 87.7492C-19.9177 89.6976 -21.1125 90.907 -21.5076 91.4679C-22.1239 92.3366 -23.2885 92.877 -24.476 93.3921C-24.7701 93.5191 -26.1398 93.2994 -26.6744 92.9495ZM9.16725 85.9183C8.86348 86.362 8.71855 86.8813 8.72288 87.3951C8.72671 88.4802 8.48036 90.8233 5.78775 93.9387C3.05631 97.099 0.585568 97.7326 -0.572788 97.9141C-1.09873 97.9917 -1.60589 98.237 -2.01979 98.6141C-4.2038 100.616 -7.22316 101.106 -9.31661 99.6951L-15.6074 96.332C-18.2612 94.5429 -17.7721 91.0139 -15.8397 87.5329C-15.8397 87.5329 -13.7616 83.5893 -10.5227 79.8418C-7.28377 76.0943 -3.68271 73.467 -3.68271 73.467C-0.482222 71.0091 2.74814 70.0905 4.91428 72.2709C5.0114 72.3661 5.09751 72.4797 5.17515 72.5917L9.19947 78.5137C10.9022 80.3945 10.8491 83.4651 9.16725 85.9183Z" fill="#0e4981"/>
<path d="M43.6251 23.9881C43.8808 23.1273 44.1933 21.6878 43.9486 20.2992C43.8538 19.7689 43.2811 19.5093 42.7802 19.7602L42.4108 19.9454C42.0274 20.1354 41.8053 20.5711 41.8954 20.9741C42.1204 21.9533 42.0509 23.0367 41.9594 23.7479C41.9008 24.1961 42.1796 24.5884 42.606 24.6599C43.0437 24.7299 43.4933 24.4346 43.6251 23.9881ZM26.1393 47.1193L23.6693 47.6078C23.556 47.6898 23.458 47.7931 23.3817 47.9112C23.3054 48.0292 23.2524 48.1594 23.2261 48.2933C23.1999 48.4273 23.201 48.5622 23.2293 48.6893C23.2576 48.8164 23.3125 48.9329 23.3905 49.0315L23.9584 49.7522C24.2825 50.1612 24.9081 50.1694 25.3308 49.7668L27.2357 48.5602C27.6027 48.2104 27.6938 47.6669 27.4405 47.2855C27.1642 46.8673 26.5856 46.7932 26.1393 47.1193Z" fill="#0e4981"/>
<path d="M22.4876 48.7445L20.8967 50.0375C20.4649 50.5948 20.5515 51.3535 21.0829 51.6783L22.0009 52.2418C22.521 52.5624 23.2559 52.3288 23.6027 51.7374L24.582 50.2296C24.7288 49.9808 24.7873 49.6965 24.7468 49.4296C24.7063 49.1626 24.5695 48.9311 24.3618 48.7781C23.8977 48.433 22.8917 48.225 22.4876 48.7445Z" fill="#0e4981"/>
<path d="M22.3384 56.6533L22.7088 55.7347C22.9253 55.0923 23.0132 54.5236 22.9822 54.3231L23.1331 52.0041C23.0839 51.7093 22.7002 51.4673 22.4067 51.4379L21.391 51.3391C21.273 51.3278 21.1507 51.3469 21.035 51.3946C20.9193 51.4424 20.8137 51.5174 20.7277 51.6129C20.6417 51.7084 20.5779 51.8215 20.5421 51.942C20.5063 52.0625 20.4996 52.1868 20.5225 52.3037L21.208 56.8198C21.3291 57.4233 21.9572 57.1982 22.3384 56.6533ZM29.6894 48.3268L27.1112 49.9436C26.9978 50.0256 26.8998 50.1289 26.8235 50.2469C26.7472 50.365 26.6942 50.4951 26.668 50.6291C26.6417 50.7631 26.6428 50.8979 26.6711 51.025C26.6994 51.1521 26.7543 51.2687 26.8323 51.3673L27.4002 52.0823C27.7243 52.4913 28.3499 52.4995 28.7726 52.097L30.7829 49.7595C31.1499 49.4097 31.241 48.8662 30.9877 48.4848C30.7172 48.0772 30.1385 48.0031 29.6894 48.3268Z" fill="#0e4981"/>
<path d="M26.2442 51.4251L23.8 53.3596C23.3682 53.9168 23.4549 54.6755 23.9863 55.0003L24.9042 55.5639C25.4243 55.8845 26.1593 55.6509 26.5061 55.0594L28.0323 52.5614C28.1791 52.3127 28.2376 52.0284 28.1971 51.7614C28.1566 51.4944 28.0198 51.2629 27.8121 51.1099C27.5862 50.946 27.2951 50.8871 27.0017 50.9461C26.7084 51.0051 26.4363 51.1771 26.2442 51.4251Z" fill="#0e4981"/>
<path d="M25.7126 61.2119L26.083 60.2933C26.2995 59.6508 26.3874 59.0822 26.3564 58.8817L26.0365 55.3318C25.9873 55.037 25.6036 54.7951 25.3101 54.7656L24.2944 54.6669C24.1765 54.6555 24.0542 54.6746 23.9384 54.7224C23.8227 54.7701 23.7171 54.8451 23.6311 54.9406C23.5451 55.0361 23.4813 55.1492 23.4455 55.2697C23.4097 55.3903 23.403 55.5145 23.4259 55.6314L24.5878 61.3776C24.7033 61.9819 25.3285 61.7543 25.7126 61.2119ZM33.7191 49.3713L30.5419 52.2865C30.0965 52.6807 30.0353 53.3396 30.4096 53.7136L31.0554 54.3614C31.4211 54.728 32.0543 54.6699 32.4398 54.2296L34.9713 50.6666C35.3069 50.284 35.3388 49.7398 35.0437 49.3952C34.7257 49.0138 34.1339 49.0067 33.7191 49.3713Z" fill="#0e4981"/>
<path d="M29.8197 53.8427L28.0936 55.7476C27.7158 56.3404 27.8811 57.0773 28.4511 57.3402L29.4323 57.7959C29.991 58.0545 30.7052 57.747 30.9924 57.1264L31.7373 54.7658C31.8586 54.5056 31.8879 54.2202 31.8195 53.9623C31.7512 53.7044 31.59 53.4915 31.3655 53.3627C30.8599 53.0715 30.1698 53.2877 29.8197 53.8427Z" fill="#0e4981"/>
<path d="M30.2361 62.3021L30.5132 61.3589C30.6618 60.7026 30.6491 60.1928 30.5957 60.0009L30.5488 57.438C30.4715 57.1527 30.0575 56.9573 29.756 56.9602L28.7249 56.9715C28.2065 56.9775 27.7999 57.5229 27.9504 58.0117L29.113 62.5869C29.2986 63.1677 29.9031 62.8775 30.2361 62.3021ZM37.3898 49.7188L34.0567 53.9903C33.5778 54.6021 33.9022 55.4374 34.6237 55.4557L36.1176 55.4912C36.5037 55.4999 36.8808 55.2596 37.0616 54.889L39.1411 50.6383C39.2028 50.5121 39.2383 50.377 39.2453 50.2421C39.2523 50.1072 39.2305 49.9758 39.1815 49.8568C39.1325 49.7378 39.0574 49.634 38.9613 49.5526C38.8653 49.4712 38.7505 49.414 38.6249 49.385L38.3846 49.3287C38.2107 49.2895 38.0232 49.3057 37.846 49.3752C37.6688 49.4447 37.5099 49.5643 37.3898 49.7188Z" fill="#0e4981"/>
<path d="M34.5229 54.8921L33.7775 56.0023C33.5456 56.3456 33.5516 56.7768 33.781 57.0647L35.3267 58.7986C35.6822 59.2347 36.5325 59.3923 37.0648 58.7706L37.4992 58.3949C37.7062 58.0862 37.7291 57.708 37.5589 57.4208L36.0038 54.81C35.6893 54.2803 34.901 54.3277 34.5229 54.8921Z" fill="#0e4981"/>
<path d="M37.6242 59.2764C37.6242 59.2764 39.1581 59.3522 40.3146 58.8384C41.5328 58.2994 41.9314 57.7863 41.8185 57.571C41.6363 57.2285 40.1443 57.7327 39.034 57.726C37.9266 57.7217 37.1134 57.5962 37.1134 57.5962C36.908 57.6148 36.7213 57.7674 36.6481 57.9731C36.41 58.6867 36.9068 59.3514 37.6242 59.2764ZM45.1956 25.0707L45.3212 22.5561C45.3859 22.432 45.4739 22.3201 45.5797 22.2275C45.6854 22.1349 45.8065 22.0636 45.9353 22.0183C46.0641 21.9729 46.1976 21.9544 46.3275 21.964C46.4574 21.9736 46.5807 22.0111 46.6895 22.074L47.4848 22.5315C47.9365 22.793 48.0352 23.4108 47.6981 23.8874L46.78 25.9469C46.4871 26.3607 45.9625 26.5295 45.5484 26.3342C45.0947 26.1214 44.9375 25.5595 45.1956 25.0707Z" fill="#0e4981"/>
<path d="M46.2719 21.2254L47.3209 19.464C47.8098 18.9561 48.573 18.9319 48.9713 19.4107L49.6619 20.2374C50.0544 20.7055 49.9298 21.4666 49.3947 21.8954L48.0447 23.0827C47.8198 23.264 47.547 23.3631 47.277 23.3616C47.0069 23.3602 46.758 23.2584 46.5766 23.075C46.168 22.6658 45.8192 21.6974 46.2719 21.2254Z" fill="#0e4981"/>
<path d="M54.0786 19.9292L53.2233 20.4288C52.619 20.736 52.0691 20.9053 51.8662 20.9037L49.5934 21.3889C49.2947 21.3829 48.9996 21.0382 48.928 20.7521L48.6832 19.7614C48.5607 19.2632 48.9958 18.7368 49.5118 18.7624L54.0768 18.7898C54.6943 18.819 54.5625 19.4731 54.0786 19.9292ZM46.9016 28.4118L48.128 25.6266C48.1927 25.5025 48.2808 25.3906 48.3865 25.298C48.4923 25.2054 48.6134 25.1342 48.7421 25.0888C48.8709 25.0434 49.0045 25.0249 49.1343 25.0345C49.2642 25.0441 49.3875 25.0816 49.4963 25.1445L50.2916 25.6021C50.7433 25.8635 50.8421 26.4813 50.5049 26.9579L48.4832 29.2855C48.1903 29.6994 47.6658 29.8682 47.2517 29.6728C46.8064 29.4617 46.6492 28.8999 46.9016 28.4118Z" fill="#0e4981"/>
<path d="M49.4712 24.551L51.0312 21.8524C51.5201 21.3445 52.2833 21.3203 52.6817 21.7991L53.3722 22.6258C53.7648 23.0939 53.6401 23.855 53.1051 24.2838L50.8544 26.1557C50.6296 26.3369 50.3567 26.4361 50.0867 26.4346C49.8167 26.4332 49.5678 26.3314 49.3863 26.148C48.9777 25.7388 49.0157 25.0261 49.4712 24.551Z" fill="#0e4981"/>
<path d="M59.075 22.6108L58.2197 23.1104C57.6154 23.4176 57.0654 23.5869 56.8626 23.5853L53.3038 23.7829C53.005 23.777 52.71 23.4323 52.6384 23.1462L52.3935 22.1555C52.2711 21.6573 52.7061 21.1309 53.2221 21.1564L59.076 21.4739C59.6934 21.4975 59.5588 22.149 59.075 22.6108ZM48.5216 32.2445L50.9459 28.6786C51.2714 28.1809 51.9145 28.0248 52.3387 28.341L53.0733 28.8862C53.4889 29.195 53.5231 29.8299 53.1433 30.2752L49.9845 33.2959C49.6546 33.6834 49.1207 33.7938 48.737 33.5518C48.3135 33.2923 48.2181 32.7109 48.5216 32.2445Z" fill="#0e4981"/>
<path d="M52.3783 27.7419L54.0132 25.7581C54.5449 25.2984 55.2981 25.3552 55.6407 25.8811L56.2337 26.786C56.5705 27.3014 56.3697 28.0526 55.7973 28.4267L53.5694 29.5055C53.3295 29.6633 53.0514 29.7336 52.7863 29.7033C52.5212 29.673 52.2872 29.5443 52.1273 29.3409C51.9549 29.1194 51.8846 28.8266 51.9317 28.5269C51.9787 28.2271 52.1394 27.9448 52.3783 27.7419Z" fill="#0e4981"/>
<path d="M60.8115 26.9255L59.9184 27.3363C59.2906 27.5784 58.7843 27.6396 58.5867 27.6146L56.044 27.9393C55.7505 27.9043 55.4972 27.5228 55.4564 27.2241L55.3183 26.2023C55.2491 25.6885 55.7299 25.2072 56.2353 25.2853L60.928 25.7762C61.5323 25.8725 61.3327 26.5127 60.8115 26.9255ZM49.3942 35.8294L53.1379 31.9128C53.6739 31.3503 54.5474 31.5503 54.67 32.2616L54.9215 33.7346C54.986 34.1154 54.8029 34.5233 54.4624 34.7559L50.5576 37.429C50.4417 37.5083 50.3131 37.5631 50.1807 37.5895C50.0482 37.616 49.915 37.6135 49.7902 37.5822C49.6653 37.551 49.5518 37.4917 49.4573 37.4084C49.3629 37.3252 49.2897 37.2199 49.2428 37.0998L49.1523 36.8702C49.0236 36.5291 49.1193 36.1186 49.3942 35.8294Z" fill="#0e4981"/>
<path d="M54.1005 32.2403L55.091 31.342C55.3971 31.0629 55.8246 31.0064 56.1428 31.1916L58.0822 32.4699C58.5652 32.7585 58.8443 33.577 58.3062 34.1938L57.9974 34.6779C57.7219 34.9275 57.3511 35.0049 57.0422 34.8781L54.2309 33.7151C53.6641 33.4831 53.594 32.6994 54.1005 32.2403Z" fill="#0e4981"/>
<path d="M58.885 34.6771C58.885 34.6771 59.1821 36.1838 58.8413 37.4026C58.4844 38.686 58.0344 39.1547 57.8051 39.0742C57.4398 38.9435 57.7225 37.3942 57.5551 36.2966C57.3905 35.2015 57.1485 34.415 57.1485 34.415C57.1372 34.2091 57.2611 34.0023 57.4541 33.9C58.1284 33.558 58.8581 33.9532 58.885 34.6771Z" fill="#0e4981"/>
<path d="M26.4439 36.0041C27.2908 35.0242 27.1308 33.4982 26.0865 32.5956C25.0422 31.693 23.5091 31.7557 22.6621 32.7356C21.8152 33.7155 21.9752 35.2416 23.0195 36.1442C24.0638 37.0467 25.5969 36.984 26.4439 36.0041Z" fill="#0e4981"/>
<path d="M33.8601 27.308C34.7071 26.3281 34.5471 24.802 33.5028 23.8995C32.4585 22.9969 30.9253 23.0596 30.0784 24.0395C29.2315 25.0194 29.3915 26.5455 30.4358 27.448C31.4801 28.3506 33.0132 28.2879 33.8601 27.308Z" fill="#0e4981"/>
<path d="M39.2125 17.0972L38.5141 18.5451C38.2239 19.1518 38.4447 19.8303 39.0113 20.0566L41.485 21.0511C41.7162 21.1438 41.9806 21.1504 42.2356 21.0698C42.4906 20.9891 42.7213 20.826 42.8905 20.6067L43.3609 19.9932C43.765 19.468 43.7242 18.7601 43.2682 18.3884L41.0196 16.557C40.4638 16.1047 39.563 16.3688 39.2125 17.0972ZM24.6825 45.9051C23.8678 46.2828 22.4887 46.8004 21.0793 46.7594C20.5409 46.7425 20.201 46.2133 20.3768 45.6814L20.5065 45.2891C20.639 44.8823 21.0379 44.5993 21.4498 44.6302C22.4511 44.7109 23.5131 44.4853 24.2035 44.2917C24.6386 44.1688 25.0671 44.3879 25.1996 44.7995C25.3323 45.2224 25.108 45.7068 24.6825 45.9051Z" fill="#0e4981"/>
<path d="M17.2252 42.5371L18.5567 41.6364C19.115 41.2613 19.8183 41.3815 20.1243 41.9095L21.4666 44.213C21.5918 44.4283 21.6366 44.689 21.5937 44.953C21.5509 45.217 21.4229 45.4689 21.2304 45.668L20.6915 46.2224C20.4703 46.4513 20.1798 46.5939 19.8812 46.6201C19.5826 46.6464 19.299 46.5542 19.0902 46.363L16.9525 44.4033C16.4272 43.9157 16.558 42.9862 17.2252 42.5371Z" fill="#0e4981"/>
<path d="M23.7898 34.6015C23.9858 34.3747 23.9813 34.0496 23.7797 33.8753C23.578 33.701 23.2557 33.7437 23.0597 33.9705C22.8636 34.1973 22.8681 34.5224 23.0698 34.6967C23.2714 34.8709 23.5937 34.8283 23.7898 34.6015Z" fill="#0e4981"/>
<path d="M31.3102 25.9001C31.5063 25.6733 31.5017 25.3482 31.3001 25.1739C31.0985 24.9997 30.7761 25.0423 30.5801 25.2691C30.3841 25.4959 30.3886 25.8211 30.5902 25.9953C30.7918 26.1696 31.1142 26.1269 31.3102 25.9001Z" fill="#0e4981"/>
<path d="M40.9578 14.5474C39.9732 13.4442 38.4545 11.6272 35.4574 11.6937C30.4097 11.8039 27.6454 14.6276 26.8236 15.711C25.999 16.7919 26.6935 16.6859 27.6722 16.5509C28.1221 16.4857 29.4058 16.2052 30.5757 16.241C31.7737 16.2787 32.8523 16.6448 32.779 17.041C32.6587 17.7105 30.9444 18.2412 30.2348 18.2668C29.4631 18.2949 29.2764 18.2401 28.2964 18.0769C27.3389 17.9164 26.9481 17.7691 26.9888 18.0678C27.0269 18.3697 27.3764 18.9857 28.1099 19.4571C28.7155 19.846 29.5662 20.0319 30.4086 20.435C31.8553 21.1304 31.3598 21.1618 33.1973 21.9932C34.2804 22.4809 35.107 22.5563 36.8396 22.1312C38.7351 21.6675 39.7532 20.3166 40.2454 19.8452C41.0129 19.1128 41.3762 17.8854 41.7139 16.6414C41.7886 16.3417 41.3785 15.0176 40.9578 14.5474ZM14.5752 45.0728C13.341 44.2583 11.3232 43.0188 10.9549 40.0437C10.3329 35.0332 12.7265 31.8891 13.6794 30.9191C14.6296 29.9466 14.6252 30.6492 14.6334 31.6371C14.634 32.0917 14.5424 33.4026 14.7472 34.5549C14.958 35.7348 15.4765 36.7491 15.8579 36.6191C16.503 36.4031 16.7798 34.6301 16.7024 33.9241C16.6184 33.1566 16.5371 32.9797 16.2337 32.0337C15.9362 31.1096 15.7339 30.7442 16.0354 30.7413C16.3396 30.7352 16.9997 30.9918 17.5724 31.6493C18.0448 32.1922 18.352 33.007 18.8728 33.7822C19.7704 35.1129 19.7297 34.6181 20.8184 36.3158C21.4579 37.3168 21.6523 38.1238 21.4826 39.8997C21.2983 41.8424 20.109 43.0454 19.7138 43.6006C19.1004 44.4661 17.9385 45.0033 16.7566 45.5177C16.468 45.6382 15.1013 45.421 14.5752 45.0728ZM50.2622 38.0706C49.9612 38.5111 49.8163 39.0304 49.8177 39.5417C49.8215 40.6212 49.5751 42.9585 46.8963 46.0579C44.176 49.2054 41.7136 49.835 40.5609 50.0158C40.0352 50.0995 39.5313 50.3366 39.1223 50.7118C36.9495 52.707 33.9413 53.1956 31.8592 51.7884L25.5941 48.4418C22.9545 46.6593 23.4409 43.1449 25.3623 39.6824C25.3623 39.6824 27.4322 35.7541 30.6572 32.0227C33.8822 28.2912 37.4666 25.6775 37.4666 25.6775C40.6531 23.23 43.8695 22.316 46.027 24.489C46.1242 24.5842 46.2074 24.6954 46.2851 24.8073L50.2893 30.7064C51.9889 32.5677 51.9357 35.627 50.2622 38.0706Z" fill="#0e4981"/>
<path d="M29.5605 46.1527C29.0946 46.6917 28.3218 46.8422 27.7787 46.4848C26.9484 45.9466 25.7959 44.3228 26.7535 41.6584C27.0139 40.9305 27.7854 40.4875 28.4727 40.6723C29.1627 40.8539 29.5111 41.5923 29.2479 42.3176C28.7895 43.5974 29.309 44.0801 29.4201 44.1648C30.0086 44.5446 30.1074 45.3642 29.6627 46.0113C29.6325 46.0636 29.5965 46.111 29.5605 46.1527Z" fill="white"/>
</g>
<defs>
<clipPath id="clip0_165_247">
<rect width="54" height="48" fill="white" transform="translate(0 41.0684) scale(1.00522) rotate(-49.1636)"/>
</clipPath>
</defs>
</svg>
