<svg width="24" height="24" viewBox="0 0 24 24" fill="none" xmlns="http://www.w3.org/2000/svg">
<path d="M12.0901 1.49999C7.95012 1.49999 4.06512 3.92999 2.28012 7.79999H7.30512V8.35499C5.76012 8.17499 5.89512 8.96999 6.12012 9.80999L9.42012 18.03L11.8351 12.375L10.7251 9.71999C10.3201 9.01499 10.3201 8.21999 8.65512 8.29499L8.68512 7.78499H16.0501V8.36999C15.1951 8.41499 14.1451 8.15999 14.7001 9.91499L17.6851 17.7L19.3201 13.155C19.8601 11.25 19.3501 9.41999 18.7201 7.61999C18.3751 6.41999 18.5251 5.41499 20.1151 5.00999C17.7001 2.56499 14.8651 1.48499 12.1201 1.48499L12.0901 1.49999ZM22.1101 8.68499L17.3401 21.075C18.6601 19.935 20.0101 19.53 21.6601 16.38C22.7551 13.77 22.6501 11.34 22.1101 8.68499ZM1.78512 8.87999C1.32012 12.54 1.36512 13.605 2.52012 16.59C4.02012 19.455 5.19012 20.055 6.84012 21.18L1.78512 8.89498V8.87999ZM12.2851 13.515L8.74512 22.005C11.2351 22.71 13.4551 22.62 15.4801 21.84L12.2851 13.515Z" fill="white"/>
</svg>
