<svg width="73" height="73" viewBox="0 0 73 73" fill="none" xmlns="http://www.w3.org/2000/svg">
<g clip-path="url(#clip0_166_298)">
<path d="M3.41256 0.198358C4.26315 0.52032 5.68777 0.94557 7.10866 0.802253C7.65387 0.747488 7.9547 0.189012 7.74324 -0.335422L7.5848 -0.725897C7.42002 -1.12813 6.99931 -1.38402 6.58524 -1.32124C5.57959 -1.16959 4.49146 -1.32136 3.78436 -1.46689C3.33878 -1.55949 2.91824 -1.30955 2.8173 -0.883782C2.70862 -0.444277 2.96849 0.0319686 3.41256 0.198358ZM-18.5866 -19.1857L-18.8914 -21.7135C-19.2042 -22.2214 -19.8592 -22.4007 -20.3027 -22.1039L-21.0717 -21.5854C-21.5067 -21.2909 -21.5619 -20.6577 -21.1923 -20.2003L-20.1155 -18.1879C-19.789 -17.79 -19.2476 -17.6603 -18.8482 -17.8831C-18.4106 -18.132 -18.2955 -18.7104 -18.5866 -19.1857Z" fill="#0E4981"/>
<path d="M-31.7115 -8.52454C-31.7115 -8.52454 -31.9029 -6.98467 -31.4709 -5.77611C-31.0214 -4.5068 -30.5306 -4.06759 -30.3087 -4.16201C-29.9511 -4.31917 -30.3423 -5.86341 -30.2549 -6.98054C-30.1675 -8.09767 -29.9774 -8.90731 -29.9774 -8.90731C-29.9837 -9.11797 -30.1201 -9.31955 -30.3208 -9.40286C-31.0282 -9.7047 -31.733 -9.25617 -31.7115 -8.52454ZM2.19887 1.69564L4.7253 2.01206C5.23175 2.32719 5.40803 2.98304 5.10914 3.42512L4.58712 4.19173C4.29061 4.62544 3.65719 4.67765 3.20151 4.30595L1.19409 3.21989C0.79769 2.89159 0.670467 2.34958 0.895118 1.95126C1.01628 1.74227 1.2202 1.59868 1.46361 1.55096C1.70701 1.50323 1.97075 1.55513 2.19887 1.69564Z" fill="#0E4981"/>
<path d="M5.99586 3.07864L7.69109 4.27065C8.16418 4.79971 8.1312 5.57348 7.61782 5.93994L6.73316 6.57355C6.23085 6.935 5.47621 6.75247 5.08306 6.17998L3.98684 4.72905C3.82175 4.48865 3.74276 4.20643 3.76447 3.93456C3.78618 3.66269 3.90713 3.41954 4.10496 3.25006C4.55197 2.86534 5.55289 2.57984 5.99586 3.07864Z" fill="#0E4981"/>
<path d="M6.70746 11.0448L6.26743 10.1455C6.00423 9.50994 5.87271 8.94209 5.89262 8.74154L5.57361 6.41457C5.60214 6.11509 5.97309 5.84223 6.2657 5.79192L7.28146 5.61815C7.79353 5.5301 8.28954 6.01226 8.22496 6.52834L7.85143 11.129C7.78426 11.75 7.13461 11.5654 6.70746 11.0448ZM-1.29735 3.16988L1.41802 4.61749C1.92447 4.93262 2.10074 5.58846 1.80186 6.03055L1.27984 6.79715C0.983324 7.23086 0.349906 7.28307 -0.105766 6.91137L-2.29911 4.69716C-2.69551 4.36886 -2.82273 3.82684 -2.59808 3.42852C-2.35019 2.989 -1.76862 2.87395 -1.29735 3.16988Z" fill="#0E4981"/>
<path d="M2.39953 6.05003L5.00277 7.82611C5.47586 8.35517 5.44288 9.12894 4.9295 9.4954L4.04484 10.129C3.54254 10.4905 2.78789 10.3079 2.39474 9.73544L0.676148 7.32575C0.511054 7.08534 0.432065 6.80313 0.453778 6.53126C0.475491 6.25939 0.596438 6.01624 0.794268 5.84676C0.900631 5.75543 1.02654 5.68825 1.16479 5.64904C1.30305 5.60982 1.45094 5.59936 1.60002 5.61824C1.7491 5.63711 1.89644 5.68497 2.03362 5.75906C2.17081 5.83315 2.29514 5.93202 2.39953 6.05003Z" fill="#0E4981"/>
<path d="M3.63109 15.8781L3.19106 14.9788C2.92786 14.3432 2.79633 13.7753 2.81625 13.5748L2.88826 9.97306C2.91679 9.67358 3.28774 9.40072 3.58036 9.3504L4.59612 9.17664C5.10819 9.08859 5.6042 9.57074 5.53961 10.0868L4.77807 15.9652C4.70219 16.5829 4.05824 16.3986 3.63109 15.8781ZM-5.28712 4.50882L-1.87496 7.22664C-1.39713 7.58833 -1.28863 8.25139 -1.64076 8.65612L-2.24615 9.35512C-2.59021 9.75182 -3.2332 9.73524 -3.65154 9.32036L-6.461 5.90622C-6.82512 5.54579 -6.89867 4.99853 -6.6241 4.62884C-6.32598 4.22365 -5.73247 4.169 -5.28712 4.50882Z" fill="#0E4981"/>
<path d="M-1.03376 8.73869L0.840543 10.5356C0.940744 10.67 1.01416 10.8207 1.05612 10.9781C1.09808 11.1355 1.10768 11.296 1.0843 11.4496C1.06092 11.6032 1.00507 11.7464 0.920305 11.8702C0.835539 11.9939 0.72371 12.0956 0.591921 12.1686L-0.366957 12.6953C-0.909707 12.9946 -1.65143 12.739 -1.98682 12.1331L-2.90525 9.80644C-3.04599 9.55283 -3.09579 9.26736 -3.04551 9.00258C-2.99522 8.73779 -2.84823 8.5115 -2.63158 8.36537C-2.39469 8.20778 -2.09351 8.15859 -1.79402 8.22856C-1.49453 8.29854 -1.22115 8.48198 -1.03376 8.73869Z" fill="#0E4981"/>
<path d="M-0.850855 17.3034L-1.1959 16.3758C-1.39465 15.7243 -1.41527 15.2087 -1.37524 15.0122L-1.51016 12.4237C-1.4528 12.1317 -1.04808 11.9035 -0.745142 11.8851L0.296857 11.8237C0.823558 11.7934 1.27352 12.3154 1.15127 12.8166L0.300209 17.513C0.154936 18.1094 -0.478463 17.8604 -0.850855 17.3034ZM-8.96282 5.11957L-5.29515 9.19146C-4.76785 9.77498 -5.03417 10.6425 -5.76624 10.7086L-7.26964 10.8497C-7.45909 10.8668 -7.65616 10.8241 -7.83398 10.7273C-8.0118 10.6305 -8.16172 10.4843 -8.2633 10.3087L-10.6619 6.17228C-10.7334 6.04963 -10.7791 5.91595 -10.7958 5.78046C-10.8125 5.64498 -10.7999 5.51092 -10.7588 5.38754C-10.7177 5.26416 -10.6491 5.15439 -10.5577 5.06581C-10.4663 4.97723 -10.3544 4.91195 -10.2295 4.87448L-9.9922 4.80089C-9.64042 4.69168 -9.23551 4.81873 -8.96282 5.11957Z" fill="#0E4981"/>
<path d="M10.6935 -3.72994L9.28385 -4.54359C8.6936 -4.88374 7.99315 -4.71059 7.72051 -4.15607L6.53053 -1.73664C6.41948 -1.51078 6.39268 -1.24484 6.45445 -0.981718C6.51623 -0.7186 6.66298 -0.473663 6.87101 -0.286443L7.45447 0.23516C7.69396 0.449489 7.99659 0.572085 8.29918 0.577345C8.60176 0.582603 8.88088 0.470116 9.07825 0.263381L11.0944 -1.864C11.5984 -2.39585 11.3983 -3.32311 10.6935 -3.72994ZM-17.2494 -20.5589C-17.5674 -21.4109 -17.9861 -22.8375 -17.8363 -24.2577C-17.779 -24.8027 -17.2192 -25.1009 -16.6957 -24.8871L-16.306 -24.7268C-15.9045 -24.5602 -15.6505 -24.1383 -15.7152 -23.7245C-15.8715 -22.7196 -15.7247 -21.6308 -15.5825 -20.923C-15.4919 -20.477 -15.7438 -20.0576 -16.17 -19.9587C-16.613 -19.855 -17.0881 -20.1171 -17.2494 -20.5589Z" fill="#0E4981"/>
<path d="M13.1333 -1.77914C14.3205 -2.6898 16.2676 -4.07972 16.4288 -7.10765C16.6948 -12.2036 14.0565 -15.2038 13.0304 -16.1162C12.0044 -17.0286 12.0558 -16.3207 12.1206 -15.325C12.1494 -14.8657 12.3403 -13.5497 12.2108 -12.3726C12.0829 -11.167 11.6313 -10.1091 11.2364 -10.21C10.5676 -10.3816 10.1664 -12.1509 10.1939 -12.871C10.2266 -13.6505 10.2928 -13.8368 10.5275 -14.8114C10.7604 -15.7662 10.9408 -16.1445 10.6348 -16.1291C10.3289 -16.1137 9.68143 -15.8066 9.14715 -15.1061C8.70841 -14.5248 8.4606 -13.6817 7.98978 -12.8637C7.17983 -11.4611 7.18299 -11.9582 6.20713 -10.1736C5.63044 -9.11759 5.49537 -8.29038 5.79484 -6.51021C6.11775 -4.56664 7.40322 -3.43662 7.83973 -2.90127C8.5201 -2.07252 9.72795 -1.61221 10.957 -1.17902C11.2613 -1.07233 12.6212 -1.38987 13.1333 -1.77914ZM-15.6459 -30.691C-14.7297 -31.874 -13.3309 -33.8146 -10.3022 -33.9619C-5.20542 -34.2102 -2.21743 -31.5581 -1.30945 -30.5222C-0.404472 -29.4893 -1.10942 -29.5466 -2.10483 -29.616C-2.56397 -29.6469 -3.87909 -29.8438 -5.05675 -29.7197C-6.26292 -29.5974 -7.32291 -29.1507 -7.22386 -28.7553C-7.05534 -28.0857 -5.28787 -27.6764 -4.56764 -27.7006C-3.78802 -27.7297 -3.60137 -27.795 -2.62573 -28.0252C-1.66989 -28.2538 -1.29077 -28.4324 -1.30758 -28.1265C-1.32438 -27.8206 -1.63447 -27.1746 -2.33742 -26.6436C-2.92073 -26.2075 -3.76491 -25.9636 -4.58512 -25.4965C-5.99143 -24.693 -5.49431 -24.6939 -7.2834 -23.7263C-8.342 -23.1544 -9.16982 -23.0232 -10.9486 -23.3308C-12.8907 -23.6627 -14.0148 -24.9533 -14.5481 -25.3923C-15.3737 -26.0765 -15.8284 -27.2864 -16.256 -28.5174C-16.3613 -28.8223 -16.0375 -30.1807 -15.6459 -30.691ZM-11.2897 5.82132C-11.7122 5.4829 -12.2227 5.29824 -12.7388 5.26385C-13.8285 5.18587 -16.1621 4.76188 -19.0867 1.82379C-22.0535 -1.15666 -22.5032 -3.68486 -22.5981 -4.86144C-22.6363 -5.3953 -22.8444 -5.92295 -23.1917 -6.3669C-25.0372 -8.71046 -25.3016 -11.7786 -23.7268 -13.7738L-19.8762 -19.8357C-17.8799 -22.365 -14.374 -21.6079 -11.025 -19.4054C-11.025 -19.4054 -7.22267 -17.0218 -3.70471 -13.4876C-0.186755 -9.95345 2.17935 -6.14016 2.17935 -6.14016C4.40553 -2.74179 5.08421 0.570512 2.73188 2.58073C2.62903 2.67106 2.50843 2.74894 2.3902 2.81844L-3.85849 6.412C-5.87503 7.97954 -8.95366 7.69472 -11.2897 5.82132Z" fill="#EA4832"/>
<path d="M48.2851 45.084C49.13 45.4057 50.5516 45.8279 51.9641 45.6869C52.5036 45.6318 52.8074 45.0763 52.5933 44.5546L52.4352 44.1698C52.2734 43.7706 51.8527 43.5147 51.4413 43.5748C50.4413 43.7268 49.3589 43.5754 48.6518 43.4299C48.2062 43.3373 47.7914 43.5875 47.6874 44.0103C47.5841 44.4444 47.8467 44.918 48.2851 45.084ZM26.3816 25.7854L26.0775 23.269C26.0037 23.149 25.9074 23.0428 25.7946 22.9573C25.6819 22.8718 25.5552 22.8088 25.4227 22.7724C25.2902 22.7359 25.1547 22.7268 25.025 22.7456C24.8952 22.7645 24.7741 22.8108 24.6692 22.8817L23.9029 23.3975C23.4678 23.692 23.4124 24.3195 23.7847 24.7742L24.8525 26.7775C25.1759 27.1724 25.7147 27.3048 26.1167 27.0793C26.5574 26.8334 26.6754 26.2581 26.3816 25.7854Z" fill="#D9D9D9"/>
<path d="M25.0255 21.997L23.8473 20.3023C23.3204 19.8268 22.5522 19.8566 22.1861 20.3656L21.5511 21.2446C21.19 21.7426 21.3691 22.4981 21.9367 22.8908L23.3766 23.9877C23.6152 24.1537 23.8962 24.234 24.1673 24.2134C24.4384 24.1929 24.6812 24.073 24.8504 23.876C25.2318 23.4361 25.5165 22.4419 25.0255 21.997Z" fill="#D9D9D9"/>
<path d="M17.0968 21.2508L17.9911 21.692C18.6198 21.9577 19.184 22.0889 19.3876 22.0729L21.7044 22.3992C22.004 22.3721 22.2759 22.0051 22.3275 21.7127L22.5033 20.7004C22.5236 20.5829 22.5137 20.4586 22.4744 20.3388C22.4352 20.219 22.3679 20.1074 22.2785 20.0138C22.1891 19.9203 22.0804 19.8478 21.9621 19.8027C21.8437 19.7577 21.7195 19.7416 21.6005 19.7558L17.0149 20.1035C16.3999 20.1795 16.5785 20.827 17.0968 21.2508ZM24.9017 29.2585L23.473 26.5483C23.3992 26.4282 23.3029 26.3221 23.1901 26.2366C23.0774 26.1511 22.9507 26.0881 22.8182 26.0516C22.6857 26.0152 22.5502 26.0061 22.4205 26.0249C22.2907 26.0437 22.1696 26.0901 22.0647 26.1609L21.3041 26.6771C20.869 26.9716 20.8136 27.5991 21.1859 28.0538L23.381 30.2482C23.7044 30.6431 24.2432 30.7755 24.6452 30.55C25.0748 30.3091 25.1928 29.7338 24.9017 29.2585Z" fill="#D9D9D9"/>
<path d="M22.051 25.5662L20.2933 22.9666C19.7664 22.491 18.9982 22.5208 18.632 23.0298L17.9971 23.9089C17.636 24.4068 17.815 25.1623 18.3827 25.5551L20.7754 27.2756C21.0141 27.4417 21.2951 27.5219 21.5662 27.5014C21.8373 27.4809 22.08 27.361 22.2492 27.164C22.4309 26.9495 22.5119 26.6618 22.4748 26.3628C22.4377 26.0639 22.2855 25.7777 22.051 25.5662Z" fill="#D9D9D9"/>
<path d="M12.266 24.2945L13.1603 24.7357C13.7889 25.0014 14.3532 25.1325 14.5568 25.1166L18.1447 25.0631C18.4443 25.036 18.7162 24.6689 18.7679 24.3766L18.9436 23.3643C18.9639 23.2467 18.954 23.1225 18.9148 23.0027C18.8755 22.8829 18.8082 22.7713 18.7188 22.6777C18.6294 22.5842 18.5207 22.5116 18.4024 22.4666C18.2841 22.4216 18.1599 22.4055 18.0408 22.4196L12.1844 23.1529C11.5691 23.2232 11.7504 23.868 12.266 24.2945ZM23.5493 33.2253L20.8622 29.8158C20.5 29.3389 19.8432 29.2277 19.4395 29.5753L18.7404 30.1748C18.3449 30.5144 18.3555 31.1544 18.7684 31.5747L22.1545 34.3847C22.5133 34.7504 23.0572 34.8235 23.4255 34.5533C23.8323 34.2627 23.884 33.6691 23.5493 33.2253Z" fill="#D9D9D9"/>
<path d="M19.3544 28.9734L17.5721 27.0969C17.0056 26.6729 16.2533 26.7832 15.9464 27.3356L15.4149 28.2864C15.1131 28.8278 15.368 29.568 15.9694 29.9031L18.2831 30.8289C18.5351 30.9703 18.8194 31.0212 19.0835 30.972C19.3475 30.9229 19.5735 30.7771 19.7197 30.5615C20.0502 30.0759 19.8851 29.3667 19.3544 28.9734Z" fill="#D9D9D9"/>
<path d="M10.8305 28.7535L11.7565 29.1028C12.4041 29.3015 12.9169 29.3272 13.1135 29.2881L15.69 29.4342C15.9823 29.3782 16.2096 28.9772 16.2295 28.6743L16.2959 27.6383C16.329 27.1175 15.8121 26.6682 15.31 26.7824L10.6292 27.6045C10.0321 27.747 10.2779 28.3759 10.8305 28.7535ZM22.9236 36.8841L18.8867 33.2159C18.3086 32.6889 17.4456 32.9516 17.3729 33.6746L17.2245 35.1717C17.1867 35.5587 17.3995 35.9553 17.7579 36.1648L21.8685 38.5729C21.9905 38.6444 22.1235 38.6902 22.2584 38.7074C22.3933 38.7246 22.5269 38.7127 22.65 38.6724C22.7732 38.6322 22.883 38.5646 22.972 38.4743C23.061 38.384 23.127 38.2731 23.1656 38.1492L23.2403 37.9122C23.2927 37.7406 23.2906 37.5511 23.2342 37.368C23.1778 37.1848 23.0696 37.0163 22.9236 36.8841Z" fill="#D9D9D9"/>
<path d="M17.9462 33.6159L16.8879 32.7839C16.5607 32.5252 16.1274 32.4987 15.821 32.7073L13.9638 34.1283C13.4991 34.4523 13.2768 35.2941 13.8608 35.8754L14.2053 36.3397C14.4996 36.5708 14.8775 36.6224 15.1787 36.4731L17.917 35.1088C18.4724 34.833 18.4843 34.0381 17.9462 33.6159Z" fill="#D9D9D9"/>
<path d="M13.3108 36.3987C13.3108 36.3987 13.1191 37.9329 13.5477 39.1327C13.997 40.3963 14.482 40.8352 14.7066 40.7381C15.0642 40.5809 14.6706 39.0451 14.7611 37.931C14.8488 36.8195 15.0362 36.0126 15.0362 36.0126C15.033 35.8049 14.8939 35.606 14.6928 35.517C13.9945 35.2243 13.2897 35.6728 13.3108 36.3987ZM47.0797 46.579L49.5948 46.8947C49.7144 46.969 49.8201 47.0659 49.9051 47.179C49.9901 47.2922 50.0525 47.4191 50.0884 47.5518C50.1242 47.6845 50.1327 47.82 50.1133 47.9496C50.0939 48.0793 50.047 48.2002 49.9756 48.3048L49.4563 49.0687C49.1597 49.5024 48.532 49.555 48.079 49.1806L46.0807 48.1036C45.6873 47.7783 45.5574 47.239 45.7847 46.838C46.0326 46.3985 46.6085 46.2831 47.0797 46.579Z" fill="#D9D9D9"/>
<path d="M50.8589 47.9496L52.5482 49.1355C53.0212 49.6646 52.9879 50.4326 52.4772 50.7964L51.5953 51.4274C51.0957 51.7861 50.341 51.6036 49.9509 51.0341L48.8607 49.5893C48.6957 49.3498 48.6168 49.0685 48.6386 48.7975C48.6604 48.5265 48.7814 48.2843 48.9791 48.116C49.4208 47.7366 50.4193 47.4595 50.8589 47.9496Z" fill="#D9D9D9"/>
<path d="M51.5716 55.8846L51.1346 54.9883C50.8717 54.3584 50.7432 53.7936 50.7601 53.59L50.4444 51.2718C50.473 50.9723 50.8412 50.7021 51.1338 50.6518L52.1469 50.4807C52.6563 50.3953 53.152 50.8718 53.0874 51.3879L52.7156 55.9687C52.6397 56.5864 51.9931 56.4048 51.5716 55.8846ZM43.5969 48.0399L46.3006 49.4811C46.4202 49.5554 46.5259 49.6522 46.6109 49.7654C46.6959 49.8785 46.7583 50.0055 46.7942 50.1382C46.83 50.2708 46.8385 50.4063 46.8191 50.536C46.7997 50.6656 46.7528 50.7866 46.6814 50.8911L46.1621 51.655C45.8655 52.0887 45.2378 52.1413 44.7848 51.7669L42.6005 49.5618C42.2071 49.2365 42.0772 48.6972 42.3046 48.2962C42.5501 47.865 43.126 47.7496 43.5969 48.0399Z" fill="#D9D9D9"/>
<path d="M47.2791 50.9106L49.8707 52.6803C50.3437 53.2093 50.3104 53.9774 49.7997 54.3412L48.9178 54.9721C48.4182 55.3309 47.6635 55.1483 47.2734 54.5789L45.5638 52.1783C45.3989 51.9389 45.3199 51.6575 45.3417 51.3865C45.3635 51.1155 45.4845 50.8733 45.6823 50.705C46.1239 50.3256 46.8365 50.4175 47.2791 50.9106Z" fill="#D9D9D9"/>
<path d="M48.5028 60.6984L48.0657 59.8021C47.8029 59.1722 47.6744 58.6074 47.6913 58.4038L47.7612 54.8161C47.7898 54.5167 48.158 54.2465 48.4506 54.1962L49.4637 54.0251C49.9731 53.9397 50.4688 54.4162 50.4042 54.9322L49.6441 60.7852C49.5739 61.4032 48.9299 61.2189 48.5028 60.6984ZM39.627 49.3772L43.0242 52.0799C43.4993 52.4442 43.6075 53.1016 43.258 53.5036L42.6553 54.2C42.314 54.594 41.674 54.5804 41.2556 54.1655L38.4612 50.7665C38.0971 50.4061 38.0266 49.8619 38.2985 49.4949C38.5909 49.0893 39.1817 49.0373 39.627 49.3772Z" fill="#D9D9D9"/>
<path d="M43.8565 53.5885L45.7248 55.3793C46.1461 55.9479 46.0324 56.6997 45.4786 57.004L44.5254 57.5311C43.9826 57.8304 43.2436 57.5721 42.9112 56.9692L41.9961 54.6513C41.8558 54.3985 41.8063 54.114 41.8566 53.8502C41.907 53.5864 42.0539 53.3611 42.2701 53.2159C42.5055 53.0596 42.8047 53.011 43.1021 53.0809C43.3995 53.1508 43.6708 53.3333 43.8565 53.5885Z" fill="#D9D9D9"/>
<path d="M44.0402 62.1164L43.6951 61.1888C43.4994 60.5403 43.4761 60.0273 43.5161 59.8309L43.3818 57.2537C43.4392 56.9617 43.8412 56.7362 44.1442 56.7178L45.1805 56.6561C45.7015 56.6254 46.1484 57.1444 46.0319 57.6459L45.1852 62.3199C45.043 62.9194 44.4153 62.6707 44.0402 62.1164ZM35.9623 49.9829L39.6119 54.0366C40.1362 54.6171 39.8696 55.4789 39.1462 55.5484L37.6485 55.6898C37.2613 55.7259 36.8657 55.5113 36.6579 55.1519L34.2687 51.0303C34.1978 50.9079 34.1525 50.7747 34.1359 50.6397C34.1194 50.5048 34.1319 50.3713 34.1727 50.2483C34.2135 50.1253 34.2816 50.0158 34.3723 49.9272C34.463 49.8387 34.5742 49.7731 34.6983 49.7351L34.9356 49.6616C35.2877 49.558 35.6926 49.6851 35.9623 49.9829Z" fill="#D9D9D9"/>
<path d="M39.2106 54.9783L40.0377 56.0405C40.2949 56.3688 40.3194 56.8022 40.1094 57.1077L38.6799 58.9583C38.3538 59.4215 37.511 59.6399 36.9324 59.0533L36.4696 58.7067C36.2399 58.4113 36.1901 58.0332 36.3407 57.7326L37.7203 54.998C37.9959 54.4465 38.7879 54.4353 39.2106 54.9783Z" fill="#D9D9D9"/>
<path d="M36.4035 59.5978C36.4035 59.5978 34.8684 59.7825 33.6706 59.3483C32.4091 58.8933 31.9725 58.4062 32.0706 58.182C32.2294 57.8252 33.7634 58.2258 34.8779 58.1405C35.9897 58.0579 36.7976 57.8742 36.7976 57.8742C37.0052 57.8784 37.2034 58.0184 37.2915 58.2199C37.5841 58.9226 37.1323 59.6253 36.4035 59.5978Z" fill="#D9D9D9"/>
<path d="M37.5175 26.9294C38.4373 27.8535 39.9814 27.808 40.9663 26.8276C41.9511 25.8473 42.0038 24.3035 41.0839 23.3793C40.164 22.4552 38.6199 22.5007 37.6351 23.4811C36.6502 24.4614 36.5976 26.0053 37.5175 26.9294Z" fill="#070707"/>
<path d="M45.6884 35.0305C46.6083 35.9546 48.1524 35.9091 49.1373 34.9287C50.1221 33.9484 50.1748 32.4045 49.2549 31.4804C48.335 30.5563 46.7909 30.6018 45.8061 31.5822C44.8212 32.5625 44.7685 34.1064 45.6884 35.0305Z" fill="#070707"/>
<path d="M55.5358 41.1738L54.1349 40.3635C53.5476 40.0264 52.8499 40.1969 52.5799 40.7487L51.395 43.1571C51.2845 43.3822 51.2579 43.6471 51.3196 43.9092C51.3814 44.1713 51.5277 44.4152 51.7351 44.6016L52.3156 45.1202C52.8123 45.5654 53.5261 45.5778 53.9337 45.148L55.9417 43.0287C56.4377 42.5049 56.2406 41.5806 55.5358 41.1738ZM27.7105 24.4146C27.3927 23.5682 26.9771 22.1447 27.1245 20.7328C27.1821 20.1936 27.739 19.8923 28.2597 20.1089L28.6438 20.2687C29.0422 20.4323 29.2962 20.8542 29.2342 21.2653C29.0776 22.2646 29.224 23.3477 29.3663 24.0554C29.4569 24.5014 29.2047 24.9151 28.7815 25.0171C28.3468 25.1184 27.8775 24.8567 27.7105 24.4146Z" fill="#D9D9D9"/>
<path d="M31.654 17.182L32.4578 18.5866C32.7923 19.1754 32.6186 19.8723 32.0655 20.1398L29.6517 21.3136C29.4261 21.4231 29.161 21.4484 28.8992 21.3855C28.6374 21.3225 28.3942 21.175 28.2088 20.9668L27.6929 20.384C27.4797 20.1446 27.3585 19.8423 27.3547 19.5405C27.3509 19.2387 27.4648 18.961 27.6725 18.7658L29.801 16.7675C30.3301 16.2769 31.2535 16.4783 31.654 17.182Z" fill="#D9D9D9"/>
<path d="M39.1257 24.3707C39.3386 24.5846 39.6654 24.6046 39.8555 24.4153C40.0457 24.2261 40.0272 23.8992 39.8143 23.6853C39.6013 23.4714 39.2746 23.4515 39.0845 23.6407C38.8943 23.83 38.9128 24.1568 39.1257 24.3707Z" fill="#939090"/>
<path d="M47.2941 32.5768C47.507 32.7907 47.8338 32.8107 48.0239 32.6214C48.214 32.4321 48.1956 32.1053 47.9827 31.8914C47.7697 31.6775 47.443 31.6575 47.2528 31.8468C47.0627 32.036 47.0812 32.3629 47.2941 32.5768Z" fill="#939090"/>
<path d="M57.9639 43.1182C59.1457 42.2129 61.0843 40.8253 61.2435 37.8115C61.5135 32.7356 58.8872 29.7476 57.8615 28.8409C56.8385 27.9315 56.8926 28.6367 56.9544 29.6294C56.9859 30.086 57.1707 31.396 57.0466 32.5677C56.9184 33.7676 56.4695 34.8228 56.0773 34.7193C55.4142 34.548 55.0107 32.7871 55.0385 32.0727C55.0684 31.2959 55.1376 31.1125 55.3753 30.141C55.6086 29.1919 55.7859 28.8106 55.483 28.829C55.177 28.8444 54.5323 29.1489 54.0037 29.8497C53.5677 30.4283 53.3168 31.2684 52.8487 32.0837C52.0415 33.4837 52.0473 32.9839 51.0741 34.7658C50.5028 35.8164 50.3647 36.6406 50.6609 38.412C50.9835 40.3499 52.2629 41.4739 52.6991 42.0035C53.3765 42.8292 54.5813 43.2865 55.8046 43.7194C56.0999 43.817 57.4602 43.5051 57.9639 43.1182ZM29.3082 14.3304C30.2189 13.1528 31.6154 11.2205 34.63 11.0752C39.707 10.8286 42.6829 13.4686 43.5849 14.4984C44.4895 15.5256 43.7846 15.4683 42.7922 15.4019C42.3357 15.3683 41.0266 15.1775 39.8544 15.2962C38.6539 15.4189 37.5966 15.8629 37.6983 16.2556C37.8665 16.9195 39.6256 17.3311 40.3401 17.3066C41.1171 17.2802 41.3007 17.2119 42.2733 16.9786C43.2235 16.7497 43.6056 16.5741 43.5858 16.877C43.569 17.1829 43.2616 17.8262 42.5583 18.3515C41.9777 18.7849 41.1365 19.0319 40.319 19.4963C38.9154 20.2971 39.4152 20.2935 37.6288 21.2585C36.5756 21.825 35.7508 21.9592 33.9807 21.655C32.0443 21.3235 30.9263 20.0389 30.3986 19.6002C29.576 18.9191 29.1243 17.7122 28.6971 16.4868C28.5978 16.1881 28.9189 14.8323 29.3082 14.3304ZM33.6469 50.6854C33.2274 50.35 32.717 50.1653 32.2035 50.1282C31.1196 50.0506 28.7916 49.627 25.8821 46.704C22.9273 43.7357 22.481 41.2162 22.3864 40.0453C22.342 39.5112 22.1419 38.9875 21.7961 38.5486C19.9569 36.2168 19.6933 33.16 21.263 31.1759L25.0951 25.1385C27.0836 22.6229 30.5751 23.3763 33.9063 25.5663C33.9063 25.5663 37.6939 27.9405 41.1968 31.4595C44.6997 34.9786 47.0535 38.7741 47.0535 38.7741C49.2703 42.1577 49.9453 45.4555 47.601 47.4577C47.4982 47.548 47.3803 47.6232 47.2621 47.6927L41.0379 51.2679C39.0411 52.8338 35.9739 52.5497 33.6469 50.6854Z" fill="#D9D9D9"/>
<path d="M27.0941 29.293C26.5881 28.7847 26.4953 27.9976 26.895 27.4792C27.4979 26.6863 29.215 25.6518 31.8177 26.814C32.5287 27.1303 32.9153 27.9382 32.6779 28.6142C32.4436 29.2933 31.6761 29.5874 30.9677 29.2684C29.7175 28.7117 29.1938 29.1969 29.1003 29.302C28.6747 29.8642 27.8444 29.9016 27.2283 29.4064C27.1781 29.3721 27.1332 29.3324 27.0941 29.293Z" fill="white"/>
</g>
<defs>
<clipPath id="clip0_166_298">
<rect width="54" height="48" fill="white" transform="translate(34.4273) scale(1.012) rotate(45.1318)"/>
</clipPath>
</defs>
</svg>
