<svg width="32" height="32" viewBox="0 0 32 32" fill="none" xmlns="http://www.w3.org/2000/svg">
<path d="M28.596 8.14L20.596 4.13999C20.4107 4.0473 20.2064 3.99904 19.9993 3.99904C19.7922 3.99904 19.5879 4.0473 19.4026 4.13999L12 7.84266L4.59596 4.13999C4.39263 4.03839 4.1667 3.99045 3.93964 4.00074C3.71257 4.01102 3.4919 4.07918 3.29858 4.19875C3.10527 4.31832 2.94574 4.48532 2.83513 4.6839C2.72453 4.88247 2.66652 5.10603 2.66663 5.33333V22.6667C2.66663 23.172 2.95196 23.6333 3.40396 23.86L11.404 27.86C11.5892 27.9527 11.7935 28.001 12.0006 28.001C12.2078 28.001 12.4121 27.9527 12.5973 27.86L20 24.1573L27.404 27.8587C27.6067 27.9612 27.8325 28.0098 28.0595 27.9998C28.2865 27.9898 28.5071 27.9214 28.7 27.8013C29.0933 27.5573 29.3333 27.1293 29.3333 26.6667V9.33333C29.3333 8.828 29.048 8.36666 28.596 8.14ZM13.3333 10.1573L18.6666 7.49066V21.8427L13.3333 24.5093V10.1573ZM5.33329 7.49066L10.6666 10.1573V24.5093L5.33329 21.8427V7.49066ZM26.6666 24.5093L21.3333 21.8427V7.49066L26.6666 10.1573V24.5093Z" fill="white"/>
</svg>
