<svg width="29" height="25" viewBox="0 0 29 25" fill="none" xmlns="http://www.w3.org/2000/svg">
<path d="M10.5181 1.48252H10.5381C11.3595 1.48252 12.0206 0.821395 12.0206 0H10.1174V0.0120205C8.46268 0.113082 6.90891 0.841917 5.77333 2.04973C4.63775 3.25754 4.00599 4.85324 4.00703 6.51106H4.24944C4.15608 6.73272 4.14735 6.98095 4.22491 7.20862C4.30246 7.43629 4.4609 7.62757 4.67016 7.74616C4.54893 7.82507 4.44933 7.93302 4.38041 8.06019C4.31149 8.18737 4.27542 8.32974 4.27549 8.47439C4.27549 9.50615 4.70221 10.4347 5.38637 11.0989C5.21107 11.5336 5.09388 12.0304 5.04079 12.5954L1.72816 9.27576C1.27739 8.83501 0.526117 9.17559 0.556168 9.80666C0.606253 11.0588 1.11712 12.2909 2.06874 13.2425C2.89081 14.0688 3.96905 14.5915 5.12693 14.725C5.167 14.9594 5.21508 15.1898 5.27318 15.4162H0.686389C0.0553169 15.4162 -0.235177 16.1875 0.225606 16.6182C1.0016 17.3311 1.97708 17.7896 3.02113 17.9321C4.06519 18.0746 5.12786 17.8944 6.06653 17.4156C6.18273 17.6259 6.30694 17.8293 6.43916 18.0286C5.67306 18.4375 5.02242 19.033 4.54741 19.7599C4.0724 20.4869 3.78836 21.3219 3.72154 22.1877C3.67146 22.8188 4.41272 23.1794 4.8735 22.7587L8.02285 19.8227C8.25725 20.025 8.50267 20.2163 8.7581 20.3936C8.70908 20.6518 8.67961 20.9133 8.66995 21.176C8.61986 22.5383 9.09067 23.7904 9.91206 24.752C10.3228 25.2329 11.1141 24.9724 11.1341 24.3313L11.2363 21.6127C12.1385 21.8955 13.0786 22.0387 14.024 22.0374C14.9678 22.0387 15.9062 21.8958 16.8068 21.6137L16.9039 24.2111C16.924 24.8522 17.7153 25.1127 18.126 24.6318C18.9474 23.6702 19.4182 22.4181 19.3681 21.0558C19.3602 20.8315 19.3378 20.608 19.301 20.3866C19.5414 20.2183 19.7748 20.038 19.9972 19.8477L23.1245 22.7587C23.5853 23.1894 24.3366 22.8188 24.2865 22.1877C24.1863 20.9356 23.6254 19.7135 22.6337 18.7819C22.324 18.4902 21.9795 18.2378 21.6079 18.0306C21.7453 17.8237 21.874 17.6112 21.9936 17.3935C22.7101 17.7472 23.4985 17.9309 24.2975 17.9305C25.6598 17.9305 26.9019 17.4096 27.8235 16.5581C28.2943 16.1274 27.9938 15.3461 27.3627 15.3461H22.7929C22.8495 15.1158 22.8963 14.8832 22.9332 14.6489C24.0795 14.5048 25.1447 13.9815 25.9593 13.1624C26.921 12.2007 27.4318 10.9586 27.4819 9.69647C27.512 9.0654 26.7507 8.7148 26.2999 9.16557L22.9943 12.4712C22.9433 11.9592 22.8157 11.4577 22.6156 10.9837C23.2578 10.3062 23.615 9.40783 23.6133 8.47439C23.6133 8.33062 23.5776 8.18909 23.5095 8.06251C23.4413 7.93593 23.3427 7.82826 23.2227 7.74916C23.4337 7.63148 23.5939 7.44011 23.6727 7.21167C23.7514 6.98323 23.7431 6.73377 23.6494 6.51106H24.0411C24.0421 4.8706 23.4234 3.2903 22.309 2.08651C21.1945 0.882725 19.6665 0.144289 18.0309 0.0190324V0H16.0274C16.0274 0.821395 16.6886 1.48252 17.51 1.48252H17.53V1.81308H17.51C16.6886 1.81308 16.0274 2.4742 16.0274 3.2956H17.6432C17.8632 4.21159 18.3851 5.02688 19.1248 5.61017C19.8645 6.19346 20.7791 6.51079 21.7211 6.51106H21.8393C21.7456 6.73377 21.7373 6.98323 21.8161 7.21167C21.8948 7.44011 22.055 7.63148 22.266 7.74916C22.146 7.82826 22.0474 7.93593 21.9793 8.06251C21.9111 8.18909 21.8754 8.33062 21.8754 8.47439C21.8754 8.87307 21.7532 9.2427 21.5448 9.54922C20.6663 8.81397 19.4463 8.42431 18.0088 8.22197C18.0386 8.08303 18.0385 7.93935 18.0085 7.80046C17.9786 7.66156 17.9194 7.53064 17.8349 7.41637C17.7504 7.30211 17.6426 7.20713 17.5186 7.13773C17.3946 7.06834 17.2573 7.02611 17.1157 7.01387C16.9742 7.00162 16.8316 7.01964 16.6975 7.06671C16.5635 7.11379 16.4409 7.18885 16.3381 7.28691C16.2353 7.38497 16.1545 7.50379 16.1011 7.63547C16.0477 7.76715 16.0229 7.90869 16.0284 8.05067C15.3607 8.02384 14.6924 8.01148 14.024 8.01361C13.3349 8.01361 12.6647 8.02363 12.0206 8.05067V8.01361C12.0204 7.87326 11.9908 7.73452 11.9335 7.60638C11.8763 7.47824 11.7927 7.36357 11.6883 7.26978C11.5839 7.176 11.4609 7.10521 11.3274 7.06199C11.1939 7.01877 11.0528 7.00409 10.9132 7.01891C10.7736 7.03373 10.6387 7.07771 10.5173 7.148C10.3958 7.21829 10.2904 7.31332 10.208 7.42694C10.1256 7.54056 10.068 7.67022 10.039 7.80752C10.0099 7.94483 10.01 8.08671 10.0393 8.22397C8.54874 8.43433 7.29161 8.84703 6.40611 9.63637C6.15078 9.30288 6.01274 8.8944 6.01344 8.47439C6.01344 8.17388 5.86018 7.90743 5.62778 7.75217C5.84024 7.63508 6.00182 7.44346 6.08136 7.21429C6.16089 6.98511 6.15276 6.73459 6.05851 6.51106H6.32697C7.26901 6.51079 8.18354 6.19346 8.92328 5.61017C9.66302 5.02688 10.1849 4.21159 10.4049 3.2956H12.0206C12.0206 2.4742 11.3595 1.81308 10.5381 1.81308H10.5181V1.48252Z" fill="#2246C5"/>
</svg>
