<svg width="59" height="59" viewBox="0 0 59 59" fill="none" xmlns="http://www.w3.org/2000/svg">
<g filter="url(#filter0_d_707_2469)">
<rect x="12" y="8" width="35" height="35" rx="8" fill="white"/>
</g>
<path d="M22.3394 23.0476L28.7088 25.937C28.8947 26.0215 29.105 26.0215 29.2909 25.937L35.6603 23.0476C36.1129 22.8422 36.1129 22.1584 35.6603 21.953L29.2912 19.0634C29.1999 19.0216 29.1006 19 29.0001 19C28.8997 19 28.8004 19.0216 28.7091 19.0634L22.3394 21.9528C21.8869 22.1581 21.8869 22.8422 22.3394 23.0476ZM35.6606 25.4615L34.0722 24.7415L29.6524 26.745C29.4457 26.8388 29.2261 26.8863 29 26.8863C28.7739 26.8863 28.5546 26.8388 28.3476 26.745L23.9281 24.7415L22.3394 25.4615C21.8869 25.6665 21.8869 26.3501 22.3394 26.5552L28.7088 29.4424C28.8947 29.5266 29.105 29.5266 29.2909 29.4424L35.6606 26.5552C36.1131 26.3501 36.1131 25.6665 35.6606 25.4615ZM35.6606 28.956L34.0782 28.2387L29.6524 30.2449C29.4457 30.3387 29.2261 30.3863 29 30.3863C28.7739 30.3863 28.5546 30.3387 28.3476 30.2449L23.922 28.2387L22.3394 28.956C21.8869 29.161 21.8869 29.8446 22.3394 30.0497L28.7088 32.9369C28.8947 33.0211 29.105 33.0211 29.2909 32.9369L35.6606 30.0497C36.1131 29.8446 36.1131 29.161 35.6606 28.956Z" fill="#424242"/>
<defs>
<filter id="filter0_d_707_2469" x="0" y="0" width="59" height="59" filterUnits="userSpaceOnUse" color-interpolation-filters="sRGB">
<feFlood flood-opacity="0" result="BackgroundImageFix"/>
<feColorMatrix in="SourceAlpha" type="matrix" values="0 0 0 0 0 0 0 0 0 0 0 0 0 0 0 0 0 0 127 0" result="hardAlpha"/>
<feOffset dy="4"/>
<feGaussianBlur stdDeviation="6"/>
<feComposite in2="hardAlpha" operator="out"/>
<feColorMatrix type="matrix" values="0 0 0 0 0 0 0 0 0 0 0 0 0 0 0 0 0 0 0.3 0"/>
<feBlend mode="normal" in2="BackgroundImageFix" result="effect1_dropShadow_707_2469"/>
<feBlend mode="normal" in="SourceGraphic" in2="effect1_dropShadow_707_2469" result="shape"/>
</filter>
</defs>
</svg>
