<svg width="24" height="24" viewBox="0 0 24 24" fill="none" xmlns="http://www.w3.org/2000/svg">
<path d="M13 19C13 19.7 13.13 20.37 13.35 21H5C4.46957 21 3.96086 20.7893 3.58579 20.4142C3.21071 20.0391 3 19.5304 3 19V5C3 3.9 3.9 3 5 3H19C19.5304 3 20.0391 3.21071 20.4142 3.58579C20.7893 3.96086 21 4.46957 21 5V13.35C20.37 13.13 19.7 13 19 13V5H5V19H13ZM13.96 12.29L11.21 15.83L9.25 13.47L6.5 17H13.35C13.75 15.88 14.47 14.91 15.4 14.21L13.96 12.29ZM20 18V15H18V18H15V20H18V23H20V20H23V18H20Z" fill="#539987"/>
</svg>
