<svg width="24" height="24" viewBox="0 0 24 24" fill="none" xmlns="http://www.w3.org/2000/svg">
<path d="M8 16.5V14.5H16V16.5H8ZM12 1.5C17.5 1.5 22 6 22 11.5C22 17 17.5 21.5 12 21.5C6.5 21.5 2 17 2 11.5C2 6 6.5 1.5 12 1.5ZM12 3.5C7.58 3.5 4 7.08 4 11.5C4 15.92 7.58 19.5 12 19.5C16.42 19.5 20 15.92 20 11.5C20 7.08 16.42 3.5 12 3.5Z" fill="#1A315C"/>
<path fill-rule="evenodd" clip-rule="evenodd" d="M9.52917 11.5239C9.60621 11.8226 9.62095 12.1591 9.57082 12.4748C9.52069 12.7905 9.40887 13.0654 9.25484 13.2517C9.1008 13.438 8.91431 13.5239 8.72783 13.4943C8.54136 13.4647 8.36672 13.3216 8.23432 13.0899C8.10192 12.8582 8.02016 12.5526 8.00326 12.2263C7.98637 11.8999 8.03542 11.5736 8.14187 11.304C8.24832 11.0344 8.40543 10.8388 8.58583 10.751C8.76624 10.6633 8.95851 10.6891 9.12917 10.8239L10.0708 9.17608C10.0158 8.96285 9.99222 8.72891 10.0022 8.49564C10.0122 8.26236 10.0554 8.03718 10.128 7.84067C10.2005 7.64416 10.3 7.48259 10.4174 7.37071C10.5348 7.25883 10.6663 7.20021 10.8 7.20021C10.9337 7.20021 11.0652 7.25883 11.1826 7.37071C11.3 7.48259 11.3995 7.64416 11.472 7.84067C11.5445 8.03718 11.5878 8.26236 11.5978 8.49564C11.6077 8.72891 11.5842 8.96285 11.5292 9.17608L12.4708 10.8239C12.5742 10.7419 12.6865 10.6994 12.8 10.6994C12.9136 10.6994 13.0258 10.7419 13.1292 10.8239L14.4708 8.47606C14.3938 8.17741 14.3791 7.84093 14.4292 7.52522C14.4793 7.20951 14.5911 6.93457 14.7452 6.74828C14.8992 6.56199 15.0857 6.47615 15.2722 6.50571C15.4586 6.53527 15.6333 6.67836 15.7657 6.91006C15.8981 7.14176 15.9798 7.44739 15.9967 7.77373C16.0136 8.10006 15.9646 8.42643 15.8581 8.69599C15.7517 8.96556 15.5946 9.16124 15.4142 9.24896C15.2338 9.33669 15.0415 9.3109 14.8708 9.17608L13.5292 11.5239C13.5842 11.7372 13.6078 11.9711 13.5978 12.2044C13.5878 12.4377 13.5446 12.6628 13.472 12.8593C13.3995 13.0559 13.3 13.2174 13.1826 13.3293C13.0652 13.4412 12.9337 13.4998 12.8 13.4998C12.6663 13.4998 12.5348 13.4412 12.4174 13.3293C12.3 13.2174 12.2005 13.0559 12.128 12.8593C12.0555 12.6628 12.0122 12.4377 12.0022 12.2044C11.9922 11.9711 12.0158 11.7372 12.0708 11.5239L11.1292 9.8761C11.0258 9.95815 10.9135 10.0006 10.8 10.0006C10.6864 10.0006 10.5742 9.95815 10.4708 9.8761L9.52917 11.5239Z" fill="#1A315C"/>
</svg>
