<?xml version="1.0" encoding="UTF-8"?>
<!DOCTYPE svg PUBLIC "-//W3C//DTD SVG 1.1//EN" "http://www.w3.org/Graphics/SVG/1.1/DTD/svg11.dtd">
<!-- Creator: CorelDRAW X8 -->
<svg xmlns="http://www.w3.org/2000/svg" xml:space="preserve" width="170.558mm" height="152.977mm" version="1.1" style="shape-rendering:geometricPrecision; text-rendering:geometricPrecision; image-rendering:optimizeQuality; fill-rule:evenodd; clip-rule:evenodd"
viewBox="0 0 17431 15634"
 xmlns:xlink="http://www.w3.org/1999/xlink">
 <defs>
  <style type="text/css">
   <![CDATA[
    .str0 {stroke:#2B418A;stroke-width:7.78755}
    .fil3 {fill:#FEFEFE}
    .fil2 {fill:#373435}
    .fil1 {fill:#2B418A}
    .fil0 {fill:#3F7367}
   ]]>
  </style>
 </defs>
 <g id="Layer_x0020_1">
  <metadata id="CorelCorpID_0Corel-Layer"/>
  <path class="fil0" d="M1892 13866c-106,-98 -216,-171 -331,-219 -114,-48 -231,-72 -350,-72 -238,0 -431,78 -579,234 -148,156 -222,360 -222,612 0,248 74,449 222,602 148,153 342,230 581,230 67,0 136,-8 207,-23 72,-15 150,-39 236,-73l0 -474 -548 0 0 -349 939 0 0 1074c-135,74 -273,131 -413,169 -141,38 -282,57 -424,57 -356,0 -647,-113 -872,-339 -225,-227 -338,-517 -338,-872 0,-353 114,-644 341,-872 227,-228 517,-341 869,-341 126,0 247,15 366,46 119,32 236,79 352,143l-36 467z"/>
  <path class="fil0" d="M3346 14510c-246,4 -396,23 -450,57 -54,34 -81,117 -81,251l0 739 -372 0 0 -1409 345 0 0 236c77,-91 160,-159 247,-204 88,-45 183,-67 285,-67l26 0 0 397z"/>
  <path class="fil0" d="M3846 14855c0,141 36,254 107,341 71,87 164,131 277,131 112,0 203,-44 275,-132 71,-87 107,-200 107,-340 0,-141 -36,-254 -107,-342 -71,-88 -162,-131 -275,-131 -113,0 -206,43 -277,130 -71,87 -107,201 -107,343zm-381 -4l0 0c0,-222 72,-405 217,-550 144,-145 327,-217 548,-217 221,0 404,72 547,217 144,144 216,328 216,550 0,225 -72,409 -216,554 -143,144 -326,216 -547,216 -221,0 -404,-72 -548,-217 -145,-145 -217,-329 -217,-553z"/>
  <path class="fil0" d="M5294 14148l371 0 0 881c0,85 22,150 66,195 44,45 107,67 190,67 123,0 218,-29 283,-87 66,-59 99,-143 99,-252l0 -804 371 0 0 1409 -336 67 -14 -284c-77,92 -160,160 -250,204 -90,45 -187,68 -294,68 -159,0 -279,-43 -362,-128 -83,-86 -124,-211 -124,-376l0 -960z"/>
  <path class="fil0" d="M7439 15557l-371 0 0 -1409 344 0 0 236c78,-92 162,-161 252,-207 90,-45 189,-68 296,-68 160,0 281,43 364,129 82,85 124,210 124,375l0 944 -372 0 0 -865c0,-86 -21,-152 -64,-196 -42,-44 -106,-66 -189,-66 -123,0 -218,29 -285,87 -66,59 -99,143 -99,252l0 788z"/>
  <path class="fil0" d="M10200 15557l-319 67 -8 -122c-78,42 -152,72 -222,91 -69,19 -139,28 -210,28 -199,0 -365,-71 -497,-213 -131,-142 -198,-323 -198,-542 0,-221 74,-405 220,-552 147,-147 331,-221 552,-221 49,0 98,4 149,12 50,8 103,21 159,37l0 -817 374 -67 0 2299zm-374 -321l0 0 0 -813c-46,-20 -88,-36 -127,-46 -40,-10 -78,-14 -117,-14 -138,0 -249,47 -331,142 -82,95 -123,222 -123,383 0,137 33,245 99,324 67,78 159,118 275,118 50,0 102,-8 155,-24 53,-15 109,-39 169,-70z"/>
  <polygon class="fil1 str0" points="11580,13635 11580,15557 11180,15557 11180,13635 10415,13635 10415,13290 12343,13290 12343,13635 "/>
  <path class="fil1" d="M12983 14510c-246,4 -396,23 -450,57 -54,34 -82,117 -82,251l0 739 -371 0 0 -1409 345 0 0 236c77,-91 159,-159 247,-204 88,-45 183,-67 285,-67l26 0 0 397z"/>
  <path class="fil1" d="M13188 14148l372 0 0 881c0,85 22,150 65,195 44,45 108,67 191,67 123,0 217,-29 283,-87 65,-59 98,-143 98,-252l0 -804 372 0 0 1409 -336 67 -14 -284c-77,92 -161,160 -250,204 -90,45 -188,68 -295,68 -158,0 -279,-43 -361,-128 -83,-86 -125,-211 -125,-376l0 -960z"/>
  <path class="fil1" d="M15042 14983l0 -524 -224 0 0 -311 224 0 0 -423 378 -67 0 490 391 0 0 311 -391 0 0 527c0,174 18,296 53,367 35,70 98,139 190,204l-420 42c-73,-45 -126,-102 -156,-172 -30,-68 -45,-192 -45,-369l0 -75z"/>
  <path class="fil1" d="M16050 13325l375 -67 0 1101c73,-83 153,-145 239,-187 87,-42 180,-63 279,-63 161,0 282,43 365,128 82,85 123,210 123,376l0 944 -372 0 0 -865c0,-86 -21,-152 -64,-196 -42,-44 -106,-66 -189,-66 -122,0 -216,29 -282,86 -66,57 -99,140 -99,247l0 6 0 788 -375 0 0 -2232z"/>
  <path class="fil0" d="M13213 4525c1857,2051 -5044,498 -3314,4965 -1004,-3759 5896,-2206 3314,-4965z"/>
  <path class="fil1" d="M12926 6195c1472,1626 -3998,395 -2627,3936 -796,-2980 4675,-1749 2627,-3936z"/>
  <path class="fil0" d="M3478 4087c480,348 940,681 1381,1000 -2,-60 -2,-138 4,-175 4,-28 7,-82 8,-108 2,-38 6,-71 11,-105 27,-187 76,-382 154,-545 38,-79 78,-152 125,-224 15,-23 33,-46 48,-67 -41,-28 -78,-60 -118,-92l-115 -90c-40,-30 -75,-61 -115,-90l-1106 -868c-223,333 -331,776 -277,1364zm1421 1030c595,431 1153,837 1679,1221 -7,-187 10,-424 38,-565 33,-175 80,-330 156,-481l72 -138c-23,-6 -178,-138 -203,-157l-804 -637c-160,-130 -340,-264 -502,-396 -22,-17 -79,-68 -103,-73 -6,24 -197,250 -278,630 -30,141 -28,177 -45,298l-9 102c-3,59 -2,132 -1,196zm1719 1251c87,63 173,126 258,189 399,292 781,573 1146,842l-9 -173c0,-40 6,-58 6,-94 0,-34 -2,-65 3,-97l18 -176c21,-148 66,-339 123,-470 19,-44 38,-92 61,-132l-846 -673c-154,-124 -341,-266 -487,-388 -8,-6 -11,-9 -18,-14 -25,46 -48,91 -72,138 -23,45 -42,96 -61,144 -20,51 -34,105 -51,160 -14,49 -28,115 -37,168 -19,113 -50,436 -34,576zm1447 1064c443,327 862,637 1258,930 -54,-460 -13,-834 96,-1143 -51,-33 -248,-199 -290,-233 -99,-79 -192,-155 -292,-234l-440 -352c-26,-21 -48,-39 -74,-59 -24,-20 -46,-39 -70,-57 -146,272 -199,641 -200,948 0,61 6,132 12,200zm1368 -251c156,-413 438,-706 778,-928 -62,-59 -129,-123 -188,-172 -104,-88 -308,-292 -388,-354 -28,-21 -41,-41 -67,-61 -34,-26 -304,-274 -319,-296 -24,14 -52,27 -77,39 -151,75 -292,169 -426,271 -43,33 -82,76 -125,109 -34,27 -59,59 -87,90l-56 60c-85,90 -148,205 -209,311 28,19 48,37 75,58l1030 827c13,9 41,31 59,46zm812 -950c300,-189 642,-326 983,-444 -49,-48 -103,-105 -124,-127l-507 -518c-11,-12 -12,-16 -22,-28 -9,-10 -16,-16 -25,-25 -18,-18 -32,-32 -50,-50 -61,-61 -39,-59 -136,-35 -54,14 -110,25 -165,41 -54,16 -109,28 -162,42 -233,62 -464,139 -684,237 -20,9 -53,25 -70,29 18,25 44,40 65,62 48,48 139,121 191,175l549 499c44,35 82,81 127,116 7,6 18,15 30,26zm1026 -458c94,-32 188,-63 281,-93 201,-65 396,-126 581,-195 -52,-56 -116,-136 -145,-166l-308 -346c-8,-10 -13,-14 -22,-23l-66 -77c-23,-27 -87,-103 -109,-118 -82,19 -160,40 -246,59 -75,16 -708,144 -746,163 56,75 153,140 212,214 62,78 140,145 211,216 38,37 67,73 105,111 37,36 69,68 105,105l106 111c10,10 25,24 41,39zm902 -303c241,-92 460,-197 642,-338 -13,-16 -25,-33 -35,-46l-72 -88c-25,-29 -49,-59 -72,-89l-330 -402c-11,-13 -25,-32 -36,-40 -19,4 -30,12 -45,21 -110,67 -278,128 -402,169 -98,33 -195,63 -295,87 55,74 198,214 257,291 53,69 119,123 172,193l195 220c7,7 14,15 21,22zm676 -364c160,-131 288,-293 374,-501 -32,-43 -72,-91 -83,-106l-324 -424c-17,-23 -44,-64 -64,-79 -75,141 -188,261 -315,355 -26,20 -105,81 -134,88 7,25 419,508 546,667zm390 -542c56,-148 91,-319 101,-518 -135,-188 -273,-380 -414,-576 -23,167 -83,361 -152,487 20,27 43,56 65,84l400 523zm-347 -1141c-179,-249 -364,-506 -554,-769 -12,80 -34,159 -51,222 -15,53 -60,164 -87,213 -8,13 -12,18 -19,31 -3,7 -5,11 -10,18l-4 6c-9,12 -2,3 -8,10 11,15 24,28 37,45l185 242c12,16 22,30 36,47 14,20 24,31 38,50l72 94c14,18 23,31 36,48l113 148c17,21 60,83 75,95 6,-23 19,-41 27,-62 54,-132 101,-287 114,-438zm-588 -816l-25 -35c-189,-263 -385,-533 -588,-813 -24,138 -70,259 -130,380 -23,46 -73,111 -78,133 75,106 248,318 328,426 28,37 54,69 81,106l224 292c9,12 11,19 26,23l62 -131c55,-126 82,-245 100,-381zm-646 -893c-214,-296 -435,-601 -664,-917 -30,232 -104,416 -214,560 114,160 293,377 414,539 15,20 27,36 44,56l217 281c39,-30 119,-205 138,-261 22,-66 52,-171 65,-258zm-903 -326c-158,189 -383,306 -659,376 38,44 87,106 102,125 16,21 34,41 49,61 15,20 32,37 49,57l485 590c17,20 32,42 53,57 76,-18 189,-68 257,-109 30,-17 54,-28 81,-46 97,-64 191,-138 260,-232l-651 -845c-9,-11 -13,-17 -21,-28 -2,-3 -4,-5 -5,-6zm-704 387c-316,73 -697,88 -1117,79l736 818c21,24 120,139 134,143 175,-15 350,-23 517,-48 145,-21 275,-43 412,-81 18,-5 36,-14 57,-15 -7,-22 -31,-42 -46,-59 -132,-151 -253,-312 -383,-465l-193 -233c-18,-20 -30,-39 -48,-58 -17,-20 -31,-37 -48,-58 -6,-8 -13,-15 -21,-23zm-1167 78c-182,-5 -371,-14 -565,-24 52,29 93,77 160,92 69,16 152,-83 309,-27 121,43 -177,-4 -223,75l597 237 -5 39 -301 71 13 -26 -277 -221 -14 28c-58,52 -60,148 -176,114 -31,-9 -180,-94 -183,-136l-4 -7 102 -99c-11,-56 -89,-46 -129,-48 -58,-4 -72,-72 -14,-100l-40 -2c-27,50 -51,105 -80,157 -126,230 4,284 -30,493l-1 3 248 247c37,37 73,87 113,120 16,13 17,9 45,9l172 -6c85,0 152,-5 233,-5 159,0 301,-6 460,-6 45,1 66,-5 111,-5 39,0 77,0 116,0 67,0 160,-11 227,-11 -28,-37 -64,-69 -93,-106 -11,-13 -22,-20 -33,-34 -51,-61 -110,-115 -159,-179l-579 -643zm-868 664c-20,122 -36,228 -56,352 54,-3 106,-10 165,-10 42,0 61,-6 105,-6 18,1 37,1 56,1 28,-1 31,-6 54,-6l-281 -289c-9,-9 -24,-24 -43,-42zm-62 388c-5,33 -11,68 -17,104 -17,99 14,400 23,507 16,186 27,328 42,505 7,78 20,140 35,199 22,19 39,34 49,41 80,-44 573,-158 651,-174 84,-17 612,-114 712,-114 -26,-35 -371,-378 -426,-433 -11,-11 -20,-19 -30,-30 -91,-105 -287,-294 -399,-405l-122 -127c-134,-134 -36,-84 -392,-80 -28,1 -30,5 -55,6 -20,1 -41,-1 -61,0l-10 1zm109 1404c20,67 41,136 58,225l-193 -26c2,-6 -4,-62 -14,-145 -155,65 -345,164 -441,223 -119,73 -289,208 -383,309 -76,82 -131,162 -195,253l837 669c58,46 112,89 170,136l294 237c17,13 27,22 45,33 42,-78 59,-107 107,-175 106,-153 172,-216 304,-339 13,-12 18,-13 31,-25 13,-13 16,-15 29,-26 95,-75 243,-179 349,-233 35,-19 118,-69 155,-78l-425 -389c-13,-10 -21,-21 -34,-33 -15,-14 -23,-18 -39,-33l-643 -586c-4,1 -8,2 -12,3zm-154 14c-7,-56 -16,-121 -25,-192 -12,-10 -19,-14 -33,-28l-983 -890c-27,-26 -51,-46 -78,-72 -15,-15 -24,-18 -39,-33 -53,-53 -33,-47 -157,-17 -172,43 -289,86 -454,145l-154 67c-18,9 -33,15 -54,24l-368 230c-132,108 -116,94 -233,216 -12,12 -61,68 -65,84l598 476c33,26 64,53 99,78l600 475c35,28 66,54 101,82 36,28 65,50 100,78l102 79c29,-54 65,-98 103,-146 100,-127 261,-278 394,-366 15,-9 23,-16 35,-25l281 -162c47,-20 145,-68 230,-103zm-32 -248c-38,-294 -81,-648 -75,-758 8,-144 16,-265 22,-402l-204 16c-335,35 -452,49 -763,102 -27,5 -79,20 -106,21l206 187c15,12 24,24 39,38l86 74c27,27 52,49 80,75 16,15 26,20 42,36l213 192c15,12 24,25 39,38l251 226c18,14 27,26 43,40l83 72c14,13 24,26 39,39l5 4zm-51 -1199c2,-47 4,-95 5,-147 4,-149 7,-136 -43,-286 -59,-173 -155,-103 -172,-112l-3 4 45 51 -7 -4 -30 200c-7,12 -123,11 -136,4 -56,-29 -14,-129 3,-180l1 -7 -116 -25c-42,109 43,218 -153,207 -87,-5 -185,-54 -120,-171l-5 -4c-7,-9 -134,36 -180,6 -25,-16 -121,-94 -139,-111 -69,-63 15,-121 51,-139 69,-35 96,12 162,46 228,120 225,-52 305,-60 83,-9 270,-16 297,125 138,-83 180,110 278,138 -1,-15 -2,-29 -3,-42 -140,-138 -307,-305 -345,-352 -33,-42 -103,-106 -169,-169 -41,2 -80,0 -112,19l-5 3 31 90 4 -2c-81,54 -123,29 -205,31 -145,2 -142,-70 -184,-85l59 -76 -2 -19 -256 -44c-438,0 -870,21 -1268,85l41 38c18,18 31,24 48,41l93 85c19,14 28,28 46,42 20,17 27,24 46,43 63,62 204,178 280,252 17,16 29,23 47,41 18,18 30,25 47,42l373 336c26,20 262,233 277,255 11,-5 75,-17 89,-21 33,-7 61,-12 93,-18 231,-37 463,-75 699,-93l205 -17c9,-1 19,-1 28,0zm30 -571c-2,-16 -5,-33 -8,-51 -11,-80 49,-37 -2,-145 -26,-56 -107,-157 -165,-206 -44,-37 -83,-88 -116,-114 -22,-1 -45,-2 -67,-3 -30,20 -65,49 -94,57 137,138 308,312 343,347 21,21 33,39 55,61l54 54zm-2491 -447c-676,116 -1252,358 -1587,831 79,64 149,119 183,145 41,31 74,60 115,90 118,88 231,182 347,273l779 613c13,10 18,16 30,24 36,-53 83,-102 128,-148 47,-47 93,-90 146,-132 79,-62 158,-119 244,-171 33,-20 59,-32 93,-51 32,-18 57,-32 91,-48 97,-47 192,-88 297,-124 71,-24 141,-48 210,-67 59,-17 167,-55 226,-57l0 -10c-22,-6 -31,-23 -46,-37 -72,-72 -204,-176 -277,-250 -18,-18 -30,-24 -47,-41 -117,-117 -286,-251 -410,-372 -17,-16 -29,-23 -47,-41 -18,-18 -30,-25 -47,-42l-428 -385zm2919 2380c59,-17 115,-33 173,-48 287,-76 638,-130 937,-172 112,-15 80,-22 147,46 39,38 73,72 111,111 39,38 69,74 108,113l653 666c-28,2 -66,16 -95,21 -263,55 -737,205 -971,309l-80 37c-28,8 -45,-22 -65,-42l-120 -108c-21,-21 -39,-33 -61,-55l-122 -111c-46,-47 -143,-126 -182,-166l-603 -549 170 -52zm2229 -353c157,-17 160,-48 213,20l558 627c33,39 143,152 171,189 -21,10 -213,51 -251,60 -42,10 -87,19 -127,27l-625 135c-31,-48 -178,-187 -228,-237l-86 -92c-10,-11 -17,-17 -28,-27 -40,-41 -76,-77 -116,-117 -40,-40 -76,-76 -116,-116 -23,-22 -34,-40 -56,-61l-174 -175c-33,-32 -91,-84 -115,-117l980 -116zm217 -33c40,0 185,-29 232,-39 215,-42 380,-85 579,-164 19,-7 30,-15 47,-19 14,26 59,75 80,102 151,192 337,408 495,603 19,23 72,78 79,103l-172 83c-58,26 -121,51 -182,73 -33,12 -355,116 -389,116 -8,0 -345,-387 -386,-428l-383 -430zm892 -239c27,-14 53,-25 81,-40 76,-41 142,-86 210,-139 43,-34 210,-195 224,-247 50,64 100,129 149,194 123,164 335,427 443,581 -16,23 -29,49 -44,72 -90,135 -208,248 -342,339 -24,16 -46,27 -67,43 -7,-25 -280,-344 -328,-404 -67,-82 -263,-312 -326,-399zm-3187 -725c40,0 58,-6 100,-6l293 -6c139,0 260,-5 399,-5l494 -17c86,-5 65,6 103,46 9,10 16,15 25,25l238 266c12,13 13,18 25,31l333 371c8,10 15,15 25,25 12,12 12,15 22,27l119 130c12,12 13,15 23,28 8,10 15,15 23,26 -38,0 -65,7 -100,11l-1057 123c-20,-6 -352,-356 -426,-429l-639 -646zm1397 -39c74,0 311,-19 396,-30 44,-6 80,-10 123,-16 80,-12 163,-27 240,-42l227 -56 605 729c16,21 29,35 45,55 31,39 63,74 92,113 -25,5 -45,15 -69,25 -145,58 -344,110 -496,140 -53,11 -100,20 -154,29 -199,33 -118,33 -237,-85l-322 -360c-8,-9 -14,-14 -22,-22l-428 -480zm1025 -161c28,-7 66,-23 93,-34 121,-48 211,-95 315,-172l131 -114c12,-12 51,-55 54,-68 22,6 188,236 213,269 15,19 27,34 41,53l125 163c15,19 27,34 41,53l244 321c-72,103 -131,167 -228,247 -129,105 -177,113 -292,179 -15,-23 -28,-37 -46,-59l-92 -113c-14,-18 -30,-36 -46,-54 -17,-20 -30,-38 -47,-58 -103,-116 -260,-317 -371,-449 -17,-20 -29,-36 -45,-55l-90 -109z"/>
  <path class="fil1" d="M10262 12852c410,4 746,-325 750,-735 6,-612 -498,-1206 -632,-1800 -151,537 -847,1201 -853,1786 -4,410 325,745 735,749z"/>
  <path class="fil2" d="M5725 798c0,-1 -2,3 -2,2l2 -2z"/>
  <path class="fil2" d="M7291 1355c30,-3 55,-33 79,-18 16,10 57,35 71,39l-24 74 0 6 -126 -101z"/>
  <path class="fil2" d="M7655 1142c113,-12 161,-35 320,-25 211,13 5,118 -59,137l-13 40 123 60 5 -15c45,263 -197,-22 -197,251l2 8 154 -41 3 12 -16 106 3 -13 -392 -31 -2 34 -121 -218 93 -127c166,111 95,58 264,-29 59,-31 73,-88 4,-116 -34,-14 -115,-4 -171,-23l0 -10z"/>
  <polygon class="fil2" points="7951,1754 7950,1766 7893,1984 7622,1706 "/>
  <path class="fil1" d="M8548 1973c46,-79 232,-57 205,-79 -147,-27 -214,59 -283,43 -111,-25 -132,-147 -269,-108 -76,22 -66,76 -2,80 39,3 125,6 137,61l-101 103c39,61 88,102 159,122 117,34 106,-43 164,-95l31 -53 290 227 9 24 261 -69 -8 -15 -593 -241zm1954 -1173l0 0c-62,122 0,217 -167,107 -99,-65 -133,-38 -246,-4l49 89c-187,55 -88,50 -249,-4 -32,-11 -281,-22 -251,58l2 -5 336 244 -13 30 -56 8 -102 0c-40,0 -296,-59 -355,-96 -152,-95 -160,14 -334,-33 -208,-54 -83,71 -330,9 -106,-27 -223,-1 -345,35l0 18 808 3 7 53 -164 84 -5 -14 -1 23 92 62 3 -5c-56,103 -318,195 -413,108 -81,-75 -89,-25 -201,11 -94,31 -136,38 -220,49 -160,22 -226,181 -309,332 -126,230 2,293 -32,502 -30,188 -48,329 -83,538 -17,99 10,398 20,505 15,186 28,335 43,511 18,206 80,297 119,503l-161 -25c9,-27 -137,-975 -126,-1170 11,-205 24,-367 31,-591 4,-149 -6,-164 -57,-314 -59,-172 -181,-87 -197,-95l40 55 -29 195c-7,13 -102,1 -115,-6 -56,-29 2,-130 19,-181l-146 -28c-42,109 26,213 -148,206 -87,-5 -164,-55 -99,-171 -22,-20 -147,34 -196,2 -25,-16 -111,-87 -130,-104 -68,-63 4,-100 40,-118 69,-35 86,12 152,46 228,121 230,-46 309,-54 83,-9 268,-17 294,123 139,-82 198,115 296,143 -2,-58 -3,-116 -11,-173 -11,-80 51,-27 0,-135 -26,-55 -123,-191 -181,-240 -86,-102 -157,-142 -196,-118 -34,20 -72,60 -108,66 -56,3 -120,-13 -166,30l25 73 -1 18c-81,54 -97,15 -179,16 -145,2 -122,-60 -164,-74l53 -63 -1 -40 -269 -43 -34 -12c-6,-18 47,-78 95,-68 34,8 79,12 113,12 30,0 66,-3 112,7 94,21 27,-58 44,-100 20,-35 93,7 131,23 101,44 76,2 122,-18 33,-14 114,-12 135,14 61,73 17,145 17,145l108 -47c-82,-152 -98,-161 -230,-248 -101,-67 -198,75 -311,68 -76,-5 -84,-49 -149,1 -56,43 -70,72 -154,74 -109,2 -208,-43 -238,-204l-3 -43 597 -66 1 8 -43 81 225 -47 1 8 0 -165c-53,5 -133,39 -187,52 -28,7 -103,5 -162,9 -32,2 -153,5 -170,6 -124,5 -87,-34 -165,-57l15 96 -8 31 -397 -126 14 101c-85,58 -132,-35 -185,-100 -96,-120 -62,-139 -189,-102l32 89 -73 64 -3 5 -146 -169 9 -10 102 -55 -7 -32 177 -55 -8 -41 -219 -24 0 -23 67 -32 -1 -7 -128 -19 -6 8 -97 -187 0 -22 4 -4 119 28 2 -6 -6 -117 8 -24 285 137 14 -31 -67 -97 -6 -34 195 -8 289 -75 -4 -23c82,68 103,114 103,-37l13 -37 240 132 18 -26 -33 -101 -1 -44 238 -21 237 -38 -8 37 100 63 4 -8c34,-91 33,-83 129,-33 124,64 77,-32 154,-46 78,-13 281,53 281,-161 50,90 61,158 164,128l-2 -101c23,-6 175,-32 202,47 33,99 155,46 214,47 101,2 128,70 249,20 82,-35 144,-137 216,-88l-11 15 57 68 23 -57 149 59 -11 30 -78 111 3 4 218 -13 0 18c7,-99 102,-133 176,-112l5 2 -23 115c30,18 150,17 231,54 90,41 145,63 219,-17l4 5 -11 35 125 60 10 -30 47 107c-6,11 -90,107 -9,107l90 0c32,0 -30,-157 163,-100 86,25 142,49 217,84l5 3 -46 93 -3 7 113 46 0 5 0 6 0 16 0 5 0 21z"/>
  <polygon class="fil3" points="7622,1706 7893,1984 7950,1766 7951,1754 "/>
  <path class="fil2" d="M5723 800c0,1 2,-3 2,-2 0,0 -3,1 -2,2z"/>
  <polygon class="fil2" points="10502,779 10502,774 "/>
  <polygon class="fil2" points="10502,758 10502,752 "/>
  <path class="fil3" d="M10568 12311c66,1 120,-52 120,-118 1,-98 -79,-193 -101,-288 -24,86 -135,193 -136,286 -1,66 52,119 117,120z"/>
 </g>
</svg>
